G04*
G04 #@! TF.GenerationSoftware,Altium Limited,Altium Designer,23.0.1 (38)*
G04*
G04 Layer_Color=32768*
%FSLAX44Y44*%
%MOMM*%
G71*
G04*
G04 #@! TF.SameCoordinates,40E8D280-AE9E-4637-9913-6930DAB067FB*
G04*
G04*
G04 #@! TF.FilePolarity,Positive*
G04*
G01*
G75*
%ADD13C,0.3000*%
D13*
X282370Y167460D02*
X304370D01*
Y246560D01*
X282370D02*
X304370D01*
X282370Y167460D02*
Y246560D01*
X689230Y667660D02*
X717930D01*
Y724260D01*
X689230D02*
X717930D01*
X689230Y667660D02*
Y724260D01*
X248540Y879750D02*
X277240D01*
Y936350D01*
X248540D02*
X277240D01*
X248540Y879750D02*
Y936350D01*
X892430Y935080D02*
X921130D01*
X892430Y878480D02*
Y935080D01*
Y878480D02*
X921130D01*
Y935080D01*
X320930Y131720D02*
X349630D01*
Y188320D01*
X320930D02*
X349630D01*
X320930Y131720D02*
Y188320D01*
X305160Y265050D02*
Y293750D01*
X248560D02*
X305160D01*
X248560Y265050D02*
Y293750D01*
Y265050D02*
X305160D01*
X634160Y672010D02*
X656160D01*
X634160Y592910D02*
Y672010D01*
Y592910D02*
X656160D01*
Y672010D01*
X170610Y859610D02*
X192610D01*
Y938710D01*
X170610D02*
X192610D01*
X170610Y859610D02*
Y938710D01*
X76630Y771980D02*
X98630D01*
Y851080D01*
X76630D02*
X98630D01*
X76630Y771980D02*
Y851080D01*
X277950Y735760D02*
Y757760D01*
Y735760D02*
X357050D01*
Y757760D01*
X277950D02*
X357050D01*
X55040Y636090D02*
X77040D01*
Y715190D01*
X55040D02*
X77040D01*
X55040Y636090D02*
Y715190D01*
X476680Y741500D02*
X498680D01*
Y820600D01*
X476680D02*
X498680D01*
X476680Y741500D02*
Y820600D01*
X895530Y314120D02*
Y336120D01*
X816430D02*
X895530D01*
X816430Y314120D02*
Y336120D01*
Y314120D02*
X895530D01*
X557710Y329360D02*
Y351360D01*
X478610D02*
X557710D01*
X478610Y329360D02*
Y351360D01*
Y329360D02*
X557710D01*
X937440Y489380D02*
Y511380D01*
X858340D02*
X937440D01*
X858340Y489380D02*
Y511380D01*
Y489380D02*
X937440D01*
X797740Y491920D02*
Y513920D01*
X718640D02*
X797740D01*
X718640Y491920D02*
Y513920D01*
Y491920D02*
X797740D01*
X439850Y330020D02*
X461850D01*
Y409120D01*
X439850D02*
X461850D01*
X439850Y330020D02*
Y409120D01*
X256720Y226490D02*
Y248490D01*
X177620D02*
X256720D01*
X177620Y226490D02*
Y248490D01*
Y226490D02*
X256720D01*
X88060Y87450D02*
X110060D01*
Y166550D01*
X88060D02*
X110060D01*
X88060Y87450D02*
Y166550D01*
X518340Y56310D02*
Y78310D01*
X439240D02*
X518340D01*
X439240Y56310D02*
Y78310D01*
Y56310D02*
X518340D01*
X404170Y116120D02*
Y190520D01*
Y116120D02*
X474670D01*
Y190520D01*
X404170D02*
X474670D01*
X519740Y141520D02*
Y215920D01*
Y141520D02*
X590240D01*
Y215920D01*
X519740D02*
X590240D01*
X501250Y98220D02*
Y120220D01*
Y98220D02*
X580350D01*
Y120220D01*
X501250D02*
X580350D01*
M02*
