G04*
G04 #@! TF.GenerationSoftware,Altium Limited,Altium Designer,23.0.1 (38)*
G04*
G04 Layer_Physical_Order=2*
G04 Layer_Color=16711680*
%FSLAX44Y44*%
%MOMM*%
G71*
G04*
G04 #@! TF.SameCoordinates,40E8D280-AE9E-4637-9913-6930DAB067FB*
G04*
G04*
G04 #@! TF.FilePolarity,Positive*
G04*
G01*
G75*
%ADD13C,0.3000*%
%ADD17C,1.1500*%
%ADD18R,1.1500X1.1500*%
%ADD24C,1.5700*%
%ADD25R,1.5700X1.5700*%
%ADD26R,1.5700X1.5700*%
%ADD30R,1.1500X1.1500*%
%ADD37C,1.0000*%
%ADD38C,1.0000*%
%ADD39R,1.5000X1.5000*%
%ADD40C,1.5000*%
%ADD41C,1.6000*%
%ADD42R,1.6000X1.6000*%
%ADD43C,1.6500*%
%ADD44R,1.6500X1.6500*%
%ADD45R,1.6000X1.6000*%
%ADD46C,1.3000*%
%ADD47R,1.3000X1.3000*%
%ADD48R,1.3000X1.3000*%
%ADD49R,1.5500X1.5500*%
%ADD50C,1.5500*%
%ADD51C,0.8000*%
G36*
X986506Y6634D02*
X284D01*
Y985236D01*
X986506D01*
Y6634D01*
D02*
G37*
%LPC*%
G36*
X964384Y977620D02*
X960936D01*
X957555Y976947D01*
X954371Y975628D01*
X951504Y973713D01*
X949067Y971276D01*
X947152Y968409D01*
X945833Y965225D01*
X945160Y961844D01*
Y958396D01*
X945833Y955015D01*
X947152Y951831D01*
X949067Y948964D01*
X951504Y946527D01*
X954371Y944612D01*
X957555Y943292D01*
X960936Y942620D01*
X964384D01*
X967765Y943292D01*
X970949Y944612D01*
X973816Y946527D01*
X976253Y948964D01*
X978168Y951831D01*
X979488Y955015D01*
X980160Y958396D01*
Y961844D01*
X979488Y965225D01*
X978168Y968409D01*
X976253Y971276D01*
X973816Y973713D01*
X970949Y975628D01*
X967765Y976947D01*
X964384Y977620D01*
D02*
G37*
G36*
X25854Y976350D02*
X22406D01*
X19025Y975677D01*
X15841Y974358D01*
X12974Y972443D01*
X10537Y970006D01*
X8622Y967139D01*
X7303Y963955D01*
X6630Y960574D01*
Y957126D01*
X7303Y953745D01*
X8622Y950561D01*
X10537Y947694D01*
X12974Y945257D01*
X15841Y943342D01*
X19025Y942022D01*
X22406Y941350D01*
X25854D01*
X29235Y942022D01*
X32419Y943342D01*
X35286Y945257D01*
X37723Y947694D01*
X39638Y950561D01*
X40957Y953745D01*
X41630Y957126D01*
Y960574D01*
X40957Y963955D01*
X39638Y967139D01*
X37723Y970006D01*
X35286Y972443D01*
X32419Y974358D01*
X29235Y975677D01*
X25854Y976350D01*
D02*
G37*
G36*
X182534Y938980D02*
X180686D01*
X178900Y938502D01*
X177300Y937577D01*
X175993Y936270D01*
X175135Y934784D01*
X115350D01*
X115350Y934784D01*
X114269Y934569D01*
X113353Y933957D01*
X28483Y849087D01*
X27871Y848171D01*
X27656Y847090D01*
X27656Y847090D01*
Y774600D01*
X27213Y774157D01*
X26601Y773241D01*
X26386Y772160D01*
X26386Y772160D01*
Y679670D01*
X26386Y679670D01*
X26601Y678589D01*
X27213Y677673D01*
X59020Y645866D01*
Y635820D01*
X73060D01*
Y649860D01*
X63014D01*
X32034Y680840D01*
Y770990D01*
X32477Y771433D01*
X32477Y771433D01*
X33089Y772349D01*
X33304Y773430D01*
X33304Y773430D01*
Y845920D01*
X116520Y929136D01*
X175135D01*
X175993Y927650D01*
X177300Y926343D01*
X178900Y925418D01*
X180686Y924940D01*
X182534D01*
X184320Y925418D01*
X185920Y926343D01*
X187227Y927650D01*
X188085Y929136D01*
X250510D01*
X254752Y924894D01*
X254391Y924270D01*
X253770Y921951D01*
Y919549D01*
X254391Y917230D01*
X255592Y915150D01*
X257290Y913452D01*
X259370Y912252D01*
X261689Y911630D01*
X264091D01*
X266410Y912252D01*
X268490Y913452D01*
X270188Y915150D01*
X271388Y917230D01*
X272010Y919549D01*
Y921951D01*
X271388Y924270D01*
X270188Y926350D01*
X268490Y928048D01*
X266410Y929249D01*
X264091Y929870D01*
X261689D01*
X259370Y929249D01*
X258746Y928888D01*
X253677Y933957D01*
X252761Y934569D01*
X251680Y934784D01*
X251680Y934784D01*
X188085D01*
X187227Y936270D01*
X185920Y937577D01*
X184320Y938502D01*
X182534Y938980D01*
D02*
G37*
G36*
X915900Y928600D02*
X907415D01*
Y920115D01*
X915900D01*
Y928600D01*
D02*
G37*
G36*
X883920Y948733D02*
X768267D01*
X765821Y948246D01*
X763747Y946860D01*
X744964Y928078D01*
X743375Y927652D01*
X741375Y926498D01*
X739742Y924865D01*
X738588Y922865D01*
X737990Y920635D01*
Y920115D01*
X755530D01*
Y920562D01*
X770915Y935947D01*
X881272D01*
X897104Y920115D01*
X906145D01*
Y929156D01*
X888440Y946860D01*
X886366Y948246D01*
X883920Y948733D01*
D02*
G37*
G36*
X755530Y918845D02*
X747395D01*
Y910710D01*
X747915D01*
X750145Y911308D01*
X752145Y912462D01*
X753778Y914095D01*
X754932Y916095D01*
X755530Y918325D01*
Y918845D01*
D02*
G37*
G36*
X722515Y928250D02*
X720205D01*
X717975Y927652D01*
X715975Y926498D01*
X714342Y924865D01*
X713188Y922865D01*
X712590Y920635D01*
Y918325D01*
X713188Y916095D01*
X714342Y914095D01*
X715975Y912462D01*
X717975Y911308D01*
X720205Y910710D01*
X722515D01*
X724745Y911308D01*
X726745Y912462D01*
X728378Y914095D01*
X729532Y916095D01*
X730130Y918325D01*
Y920635D01*
X729532Y922865D01*
X728378Y924865D01*
X726745Y926498D01*
X724745Y927652D01*
X722515Y928250D01*
D02*
G37*
G36*
X915900Y918845D02*
X907415D01*
Y910360D01*
X915900D01*
Y918845D01*
D02*
G37*
G36*
X906145D02*
X897660D01*
Y910360D01*
X906145D01*
Y918845D01*
D02*
G37*
G36*
X746125D02*
X737990D01*
Y918325D01*
X738588Y916095D01*
X738878Y915592D01*
X729080Y905794D01*
X665535D01*
X657472Y913857D01*
X656556Y914469D01*
X655475Y914684D01*
X655475Y914684D01*
X618490D01*
X617409Y914469D01*
X616493Y913857D01*
X615881Y912941D01*
X615666Y911860D01*
X615881Y910779D01*
X616493Y909863D01*
X617409Y909251D01*
X618490Y909036D01*
X654305D01*
X662368Y900973D01*
X662368Y900973D01*
X663284Y900361D01*
X664365Y900146D01*
X664365Y900146D01*
X730250D01*
X730250Y900146D01*
X731331Y900361D01*
X732247Y900973D01*
X742872Y911598D01*
X743375Y911308D01*
X745605Y910710D01*
X746125D01*
Y918845D01*
D02*
G37*
G36*
X907981Y903200D02*
X905579D01*
X903260Y902579D01*
X901180Y901378D01*
X899482Y899680D01*
X898281Y897600D01*
X897660Y895281D01*
Y892879D01*
X898281Y890560D01*
X899482Y888480D01*
X901180Y886782D01*
X903260Y885582D01*
X905579Y884960D01*
X907981D01*
X910300Y885582D01*
X912380Y886782D01*
X914078Y888480D01*
X915278Y890560D01*
X915900Y892879D01*
Y895281D01*
X915278Y897600D01*
X914078Y899680D01*
X912380Y901378D01*
X910300Y902579D01*
X907981Y903200D01*
D02*
G37*
G36*
X576465Y869830D02*
X575945D01*
Y861695D01*
X584080D01*
Y862215D01*
X583482Y864445D01*
X582328Y866445D01*
X580695Y868078D01*
X578695Y869232D01*
X576465Y869830D01*
D02*
G37*
G36*
X574675D02*
X574155D01*
X571925Y869232D01*
X569925Y868078D01*
X568292Y866445D01*
X567138Y864445D01*
X566540Y862215D01*
Y861695D01*
X574675D01*
Y869830D01*
D02*
G37*
G36*
X853900Y877950D02*
X835360D01*
Y859410D01*
X853900D01*
Y877950D01*
D02*
G37*
G36*
X773315Y928250D02*
X771005D01*
X768775Y927652D01*
X766775Y926498D01*
X765142Y924865D01*
X763988Y922865D01*
X763390Y920635D01*
Y918325D01*
X763618Y917473D01*
X744320Y898174D01*
X584200D01*
X583119Y897959D01*
X582203Y897347D01*
X582203Y897347D01*
X553798Y868942D01*
X553295Y869232D01*
X551065Y869830D01*
X548755D01*
X546525Y869232D01*
X544525Y868078D01*
X542892Y866445D01*
X541738Y864445D01*
X541140Y862215D01*
Y859905D01*
X541738Y857675D01*
X542892Y855675D01*
X544525Y854042D01*
X546525Y852888D01*
X548755Y852290D01*
X551065D01*
X553295Y852888D01*
X555295Y854042D01*
X556928Y855675D01*
X558082Y857675D01*
X558680Y859905D01*
Y862215D01*
X558082Y864445D01*
X557792Y864948D01*
X585370Y892526D01*
X745490D01*
X745490Y892526D01*
X746571Y892741D01*
X747487Y893353D01*
X766686Y912552D01*
X766775Y912462D01*
X768775Y911308D01*
X771005Y910710D01*
X773315D01*
X773699Y910813D01*
X812915Y871598D01*
X812460Y869900D01*
Y867460D01*
X813092Y865102D01*
X814312Y862988D01*
X816038Y861262D01*
X818152Y860042D01*
X820510Y859410D01*
X822950D01*
X825308Y860042D01*
X827422Y861262D01*
X829148Y862988D01*
X830368Y865102D01*
X831000Y867460D01*
Y869900D01*
X830368Y872258D01*
X829148Y874372D01*
X827422Y876098D01*
X825308Y877318D01*
X825199Y877347D01*
X825102Y877492D01*
X781094Y921500D01*
X780612Y921823D01*
X780332Y922865D01*
X779178Y924865D01*
X777545Y926498D01*
X775545Y927652D01*
X773315Y928250D01*
D02*
G37*
G36*
X634880Y869830D02*
X617340D01*
Y852290D01*
X634880D01*
Y869830D01*
D02*
G37*
G36*
X601865D02*
X599555D01*
X597325Y869232D01*
X595325Y868078D01*
X593692Y866445D01*
X592538Y864445D01*
X591940Y862215D01*
Y859905D01*
X592538Y857675D01*
X592828Y857172D01*
X530133Y794477D01*
X529521Y793561D01*
X529306Y792480D01*
X529306Y792480D01*
Y744220D01*
X529306Y744220D01*
X529521Y743139D01*
X530133Y742223D01*
X565693Y706663D01*
X566609Y706051D01*
X567690Y705836D01*
X567690Y705836D01*
X694895D01*
X695081Y705140D01*
X695442Y704516D01*
X659010Y668084D01*
X652180D01*
Y672280D01*
X638140D01*
Y658240D01*
X652180D01*
Y662436D01*
X660180D01*
X660180Y662436D01*
X661261Y662651D01*
X662177Y663263D01*
X699436Y700522D01*
X700060Y700162D01*
X702379Y699540D01*
X704781D01*
X707100Y700162D01*
X709180Y701362D01*
X710878Y703060D01*
X712078Y705140D01*
X712700Y707459D01*
Y709861D01*
X712078Y712180D01*
X710878Y714260D01*
X709180Y715958D01*
X707100Y717159D01*
X704781Y717780D01*
X702379D01*
X700060Y717159D01*
X697980Y715958D01*
X696282Y714260D01*
X695081Y712180D01*
X694895Y711484D01*
X568860D01*
X534954Y745390D01*
Y791310D01*
X596822Y853178D01*
X597325Y852888D01*
X599555Y852290D01*
X601865D01*
X604095Y852888D01*
X606095Y854042D01*
X607728Y855675D01*
X608882Y857675D01*
X609480Y859905D01*
Y862215D01*
X608882Y864445D01*
X607728Y866445D01*
X606095Y868078D01*
X604095Y869232D01*
X601865Y869830D01*
D02*
G37*
G36*
X584080Y860425D02*
X575945D01*
Y852290D01*
X576465D01*
X578695Y852888D01*
X580695Y854042D01*
X582328Y855675D01*
X583482Y857675D01*
X584080Y859905D01*
Y860425D01*
D02*
G37*
G36*
X574675D02*
X566540D01*
Y859905D01*
X567138Y857675D01*
X567428Y857172D01*
X516163Y805907D01*
X515551Y804991D01*
X515336Y803910D01*
X515336Y803910D01*
Y755550D01*
X510860Y751074D01*
X494700D01*
Y755270D01*
X488315D01*
Y748250D01*
Y741230D01*
X494700D01*
Y745426D01*
X512030D01*
X512030Y745426D01*
X513111Y745641D01*
X514027Y746253D01*
X520157Y752383D01*
X520769Y753299D01*
X520984Y754380D01*
X520984Y754380D01*
Y802740D01*
X571422Y853178D01*
X571925Y852888D01*
X574155Y852290D01*
X574675D01*
Y860425D01*
D02*
G37*
G36*
X418453Y852320D02*
X416407D01*
X414431Y851790D01*
X412659Y850768D01*
X411213Y849321D01*
X410190Y847549D01*
X409660Y845573D01*
Y843527D01*
X410190Y841551D01*
X411213Y839779D01*
X412659Y838333D01*
X414431Y837309D01*
X416407Y836780D01*
X418453D01*
X420429Y837309D01*
X422201Y838333D01*
X423647Y839779D01*
X424670Y841551D01*
X425200Y843527D01*
Y845573D01*
X424670Y847549D01*
X423647Y849321D01*
X422201Y850768D01*
X420429Y851790D01*
X418453Y852320D01*
D02*
G37*
G36*
X272010Y904470D02*
X253770D01*
Y898174D01*
X210600D01*
X209519Y897959D01*
X208603Y897347D01*
X184636Y873380D01*
X174590D01*
Y869184D01*
X76420D01*
X76420Y869184D01*
X75339Y868969D01*
X74423Y868357D01*
X74423Y868357D01*
X58963Y852897D01*
X58351Y851981D01*
X58136Y850900D01*
X58136Y850900D01*
Y821690D01*
X58136Y821690D01*
X58351Y820609D01*
X58963Y819693D01*
X61503Y817153D01*
X61503Y817153D01*
X62419Y816541D01*
X63500Y816326D01*
X102970D01*
X103856Y815440D01*
Y701040D01*
X103856Y701040D01*
X104071Y699959D01*
X104683Y699043D01*
X117383Y686343D01*
X117383Y686343D01*
X118299Y685731D01*
X119380Y685516D01*
X119380Y685516D01*
X173990D01*
X173990Y685516D01*
X175071Y685731D01*
X175987Y686343D01*
X195502Y705858D01*
X196005Y705568D01*
X198235Y704970D01*
X200545D01*
X202775Y705568D01*
X204775Y706722D01*
X206408Y708355D01*
X207562Y710355D01*
X208160Y712585D01*
Y714895D01*
X207562Y717125D01*
X206408Y719125D01*
X204775Y720758D01*
X202775Y721912D01*
X200545Y722510D01*
X198235D01*
X196005Y721912D01*
X194005Y720758D01*
X192372Y719125D01*
X191218Y717125D01*
X190620Y714895D01*
Y712585D01*
X191218Y710355D01*
X191508Y709852D01*
X172820Y691164D01*
X120550D01*
X109504Y702210D01*
Y816610D01*
X109289Y817691D01*
X108677Y818607D01*
X108677Y818607D01*
X106137Y821147D01*
X105221Y821759D01*
X104140Y821974D01*
X104140Y821974D01*
X64670D01*
X63784Y822860D01*
Y849730D01*
X77590Y863536D01*
X174590D01*
Y859340D01*
X188630D01*
Y869386D01*
X211770Y892526D01*
X253770D01*
Y886230D01*
X272010D01*
Y892526D01*
X340460D01*
X384660Y848326D01*
Y836780D01*
X400200D01*
Y852320D01*
X388654D01*
X343627Y897347D01*
X342711Y897959D01*
X341630Y898174D01*
X341630Y898174D01*
X272010D01*
Y904470D01*
D02*
G37*
G36*
X488604Y820870D02*
X486756D01*
X484970Y820392D01*
X483370Y819467D01*
X482063Y818160D01*
X481138Y816560D01*
X480660Y814774D01*
Y812926D01*
X481104Y811268D01*
X439963Y770127D01*
X439351Y769211D01*
X439136Y768130D01*
X439136Y768130D01*
Y699770D01*
X439136Y699770D01*
X439351Y698689D01*
X439963Y697773D01*
X596173Y541563D01*
X596173Y541563D01*
X597089Y540951D01*
X598170Y540736D01*
X754096D01*
Y480289D01*
X752534Y479643D01*
X750987Y478096D01*
X750150Y476074D01*
Y473886D01*
X750987Y471865D01*
X752534Y470317D01*
X754556Y469480D01*
X756744D01*
X758765Y470317D01*
X760313Y471865D01*
X761150Y473886D01*
Y476074D01*
X760313Y478096D01*
X759744Y478664D01*
Y542290D01*
X759744Y542290D01*
X759529Y543371D01*
X758917Y544287D01*
X758917Y544287D01*
X757647Y545557D01*
X756731Y546169D01*
X755650Y546384D01*
X755650Y546384D01*
X599340D01*
X444784Y700940D01*
Y766960D01*
X485098Y807274D01*
X486756Y806830D01*
X488604D01*
X490390Y807308D01*
X491990Y808233D01*
X493297Y809540D01*
X494222Y811140D01*
X494700Y812926D01*
Y814774D01*
X494222Y816560D01*
X493297Y818160D01*
X491990Y819467D01*
X490390Y820392D01*
X488604Y820870D01*
D02*
G37*
G36*
X175145Y798710D02*
X174625D01*
Y790575D01*
X182760D01*
Y791095D01*
X182162Y793325D01*
X181008Y795325D01*
X179375Y796958D01*
X177375Y798112D01*
X175145Y798710D01*
D02*
G37*
G36*
X173355D02*
X172835D01*
X170605Y798112D01*
X168605Y796958D01*
X166972Y795325D01*
X165818Y793325D01*
X165220Y791095D01*
Y790575D01*
X173355D01*
Y798710D01*
D02*
G37*
G36*
X233560D02*
X216020D01*
Y781170D01*
X233560D01*
Y798710D01*
D02*
G37*
G36*
X182760Y789305D02*
X174625D01*
Y781170D01*
X175145D01*
X177375Y781768D01*
X179375Y782922D01*
X181008Y784555D01*
X182162Y786555D01*
X182760Y788785D01*
Y789305D01*
D02*
G37*
G36*
X173355D02*
X165220D01*
Y788785D01*
X165818Y786555D01*
X166108Y786052D01*
X151673Y771617D01*
X151061Y770701D01*
X150846Y769620D01*
X150846Y769620D01*
Y756820D01*
X146593Y752567D01*
X145981Y751651D01*
X145766Y750570D01*
X145766Y750570D01*
Y722063D01*
X145205Y721912D01*
X143205Y720758D01*
X141572Y719125D01*
X140418Y717125D01*
X139820Y714895D01*
Y714375D01*
X148590D01*
X157360D01*
Y714895D01*
X156762Y717125D01*
X155608Y719125D01*
X153975Y720758D01*
X151975Y721912D01*
X151414Y722063D01*
Y749400D01*
X155667Y753653D01*
X155667Y753653D01*
X156279Y754569D01*
X156494Y755650D01*
X156494Y755650D01*
Y768450D01*
X170102Y782058D01*
X170605Y781768D01*
X172835Y781170D01*
X173355D01*
Y789305D01*
D02*
G37*
G36*
X149745Y798710D02*
X147435D01*
X145205Y798112D01*
X143205Y796958D01*
X141572Y795325D01*
X140418Y793325D01*
X139820Y791095D01*
Y788785D01*
X140418Y786555D01*
X141572Y784555D01*
X143205Y782922D01*
X145205Y781768D01*
X147435Y781170D01*
X149745D01*
X151975Y781768D01*
X153975Y782922D01*
X155608Y784555D01*
X156762Y786555D01*
X157360Y788785D01*
Y791095D01*
X156762Y793325D01*
X155608Y795325D01*
X153975Y796958D01*
X151975Y798112D01*
X149745Y798710D01*
D02*
G37*
G36*
X627265Y793630D02*
X624955D01*
X622725Y793032D01*
X620725Y791878D01*
X619092Y790245D01*
X617938Y788245D01*
X617340Y786015D01*
Y783705D01*
X617938Y781475D01*
X619092Y779475D01*
X620725Y777842D01*
X622725Y776688D01*
X624955Y776090D01*
X627265D01*
X629495Y776688D01*
X631495Y777842D01*
X633128Y779475D01*
X634282Y781475D01*
X634880Y783705D01*
Y786015D01*
X634282Y788245D01*
X633128Y790245D01*
X631495Y791878D01*
X629495Y793032D01*
X627265Y793630D01*
D02*
G37*
G36*
X576465D02*
X574155D01*
X571925Y793032D01*
X569925Y791878D01*
X568292Y790245D01*
X567138Y788245D01*
X566540Y786015D01*
Y783705D01*
X567138Y781475D01*
X568292Y779475D01*
X569925Y777842D01*
X571925Y776688D01*
X574096Y776106D01*
Y774360D01*
X574096Y774360D01*
X574311Y773279D01*
X574923Y772363D01*
X594903Y752383D01*
X594903Y752383D01*
X595819Y751771D01*
X596900Y751556D01*
X669290D01*
X669290Y751556D01*
X670371Y751771D01*
X671287Y752383D01*
X692035Y773131D01*
X692326Y773010D01*
X694514D01*
X696535Y773847D01*
X698083Y775395D01*
X698920Y777416D01*
Y779604D01*
X698083Y781626D01*
X696535Y783173D01*
X694514Y784010D01*
X692326D01*
X690304Y783173D01*
X688757Y781626D01*
X687920Y779604D01*
Y777416D01*
X688041Y777125D01*
X668120Y757204D01*
X598070D01*
X579744Y775530D01*
Y777293D01*
X580695Y777842D01*
X582328Y779475D01*
X583482Y781475D01*
X584080Y783705D01*
Y786015D01*
X583482Y788245D01*
X582328Y790245D01*
X580695Y791878D01*
X578695Y793032D01*
X576465Y793630D01*
D02*
G37*
G36*
X94650Y785750D02*
X80610D01*
Y771710D01*
X94650D01*
Y785750D01*
D02*
G37*
G36*
X870330Y787860D02*
X851790D01*
Y769320D01*
X870330D01*
Y787860D01*
D02*
G37*
G36*
X487045Y755270D02*
X480660D01*
Y748885D01*
X487045D01*
Y755270D01*
D02*
G37*
G36*
Y747615D02*
X480660D01*
Y741230D01*
X487045D01*
Y747615D01*
D02*
G37*
G36*
X744220Y794034D02*
X743139Y793819D01*
X742223Y793207D01*
X741611Y792291D01*
X741396Y791210D01*
Y762000D01*
X741396Y762000D01*
X741611Y760919D01*
X742223Y760003D01*
X757906Y744320D01*
Y726440D01*
X758121Y725359D01*
X758733Y724443D01*
X759649Y723831D01*
X760730Y723616D01*
X761811Y723831D01*
X762727Y724443D01*
X763339Y725359D01*
X763554Y726440D01*
Y745490D01*
X763554Y745490D01*
X763339Y746571D01*
X762727Y747487D01*
X762727Y747487D01*
X747044Y763170D01*
Y791210D01*
X746829Y792291D01*
X746217Y793207D01*
X745301Y793819D01*
X744220Y794034D01*
D02*
G37*
G36*
X800050Y877950D02*
X797610D01*
X795252Y877318D01*
X793138Y876098D01*
X791412Y874372D01*
X790192Y872258D01*
X789560Y869900D01*
Y867460D01*
X790192Y865102D01*
X791412Y862988D01*
X793138Y861262D01*
X795252Y860042D01*
X796006Y859840D01*
Y805464D01*
X618490D01*
X617409Y805249D01*
X616493Y804637D01*
X616493Y804637D01*
X604598Y792742D01*
X604095Y793032D01*
X601865Y793630D01*
X599555D01*
X597325Y793032D01*
X595325Y791878D01*
X593692Y790245D01*
X592538Y788245D01*
X591940Y786015D01*
Y783705D01*
X592538Y781475D01*
X593692Y779475D01*
X595325Y777842D01*
X597325Y776688D01*
X599555Y776090D01*
X601865D01*
X604095Y776688D01*
X606095Y777842D01*
X607728Y779475D01*
X608882Y781475D01*
X609480Y783705D01*
Y786015D01*
X608882Y788245D01*
X608592Y788748D01*
X619660Y799816D01*
X812476D01*
Y778550D01*
X812476Y778550D01*
X812691Y777469D01*
X813303Y776553D01*
X852812Y737044D01*
X852422Y736368D01*
X851790Y734010D01*
Y731570D01*
X852422Y729212D01*
X853642Y727098D01*
X855368Y725372D01*
X857482Y724152D01*
X859840Y723520D01*
X862280D01*
X864638Y724152D01*
X866752Y725372D01*
X868478Y727098D01*
X869698Y729212D01*
X870330Y731570D01*
Y734010D01*
X869698Y736368D01*
X868478Y738482D01*
X866752Y740208D01*
X864638Y741428D01*
X862280Y742060D01*
X859840D01*
X857482Y741428D01*
X856806Y741038D01*
X818124Y779720D01*
Y802640D01*
X817909Y803721D01*
X817297Y804637D01*
X816381Y805249D01*
X815300Y805464D01*
X801654D01*
Y859840D01*
X802408Y860042D01*
X804522Y861262D01*
X806248Y862988D01*
X807468Y865102D01*
X808100Y867460D01*
Y869900D01*
X807468Y872258D01*
X806248Y874372D01*
X804522Y876098D01*
X802408Y877318D01*
X800050Y877950D01*
D02*
G37*
G36*
X225945Y722510D02*
X223635D01*
X221405Y721912D01*
X219405Y720758D01*
X217772Y719125D01*
X216618Y717125D01*
X216020Y714895D01*
Y712585D01*
X216618Y710355D01*
X217772Y708355D01*
X219405Y706722D01*
X221405Y705568D01*
X223635Y704970D01*
X225945D01*
X228175Y705568D01*
X230175Y706722D01*
X231808Y708355D01*
X232962Y710355D01*
X233560Y712585D01*
Y714895D01*
X232962Y717125D01*
X231808Y719125D01*
X230175Y720758D01*
X228175Y721912D01*
X225945Y722510D01*
D02*
G37*
G36*
X175145D02*
X172835D01*
X170605Y721912D01*
X168605Y720758D01*
X166972Y719125D01*
X165818Y717125D01*
X165220Y714895D01*
Y712585D01*
X165818Y710355D01*
X166972Y708355D01*
X168605Y706722D01*
X170605Y705568D01*
X172835Y704970D01*
X175145D01*
X177375Y705568D01*
X179375Y706722D01*
X181008Y708355D01*
X182162Y710355D01*
X182760Y712585D01*
Y714895D01*
X182162Y717125D01*
X181008Y719125D01*
X179375Y720758D01*
X177375Y721912D01*
X175145Y722510D01*
D02*
G37*
G36*
X157360Y713105D02*
X149225D01*
Y704970D01*
X149745D01*
X151975Y705568D01*
X153975Y706722D01*
X155608Y708355D01*
X156762Y710355D01*
X157360Y712585D01*
Y713105D01*
D02*
G37*
G36*
X147955D02*
X139820D01*
Y712585D01*
X140418Y710355D01*
X141572Y708355D01*
X143205Y706722D01*
X145205Y705568D01*
X147435Y704970D01*
X147955D01*
Y713105D01*
D02*
G37*
G36*
X551065Y793630D02*
X548755D01*
X546525Y793032D01*
X544525Y791878D01*
X542892Y790245D01*
X541738Y788245D01*
X541140Y786015D01*
Y783705D01*
X541738Y781475D01*
X542892Y779475D01*
X544525Y777842D01*
X546525Y776688D01*
X548755Y776090D01*
X551065D01*
X553295Y776688D01*
X553798Y776978D01*
X589823Y740953D01*
X589823Y740953D01*
X590739Y740341D01*
X591820Y740126D01*
X741396D01*
Y702210D01*
X725270Y686084D01*
X712700D01*
Y692380D01*
X694460D01*
Y674140D01*
X712700D01*
Y680436D01*
X726440D01*
X726440Y680436D01*
X727521Y680651D01*
X728437Y681263D01*
X746217Y699043D01*
X746217Y699043D01*
X746829Y699959D01*
X747044Y701040D01*
Y741778D01*
X747044Y741778D01*
X746829Y742859D01*
X746217Y743775D01*
X746217Y743776D01*
X745045Y744947D01*
X744129Y745559D01*
X743048Y745774D01*
X743048Y745774D01*
X592990D01*
X557792Y780972D01*
X558082Y781475D01*
X558680Y783705D01*
Y786015D01*
X558082Y788245D01*
X556928Y790245D01*
X555295Y791878D01*
X553295Y793032D01*
X551065Y793630D01*
D02*
G37*
G36*
X88554Y851350D02*
X86706D01*
X84920Y850872D01*
X83320Y849947D01*
X82013Y848640D01*
X81088Y847040D01*
X80610Y845254D01*
Y843406D01*
X81088Y841620D01*
X82013Y840020D01*
X83320Y838713D01*
X84920Y837788D01*
X86706Y837310D01*
X88554D01*
X90340Y837788D01*
X91940Y838713D01*
X93247Y840020D01*
X94105Y841506D01*
X143830D01*
X191508Y793828D01*
X191218Y793325D01*
X190620Y791095D01*
Y788785D01*
X191218Y786555D01*
X192372Y784555D01*
X194005Y782922D01*
X196005Y781768D01*
X198235Y781170D01*
X200545D01*
X202775Y781768D01*
X203278Y782058D01*
X240573Y744763D01*
X241489Y744151D01*
X242570Y743936D01*
X242570Y743936D01*
X277680D01*
Y739740D01*
X280386D01*
Y702210D01*
X264260Y686084D01*
X208280D01*
X208280Y686084D01*
X207199Y685869D01*
X206283Y685257D01*
X206283Y685257D01*
X155201Y634175D01*
X154612Y634515D01*
X152317Y635130D01*
X149943D01*
X147648Y634515D01*
X145592Y633328D01*
X143912Y631648D01*
X142725Y629592D01*
X142110Y627298D01*
Y624922D01*
X142725Y622628D01*
X143912Y620572D01*
X145592Y618892D01*
X147648Y617705D01*
X149943Y617090D01*
X152317D01*
X154612Y617705D01*
X156668Y618892D01*
X158348Y620572D01*
X159535Y622628D01*
X160150Y624922D01*
Y627298D01*
X159535Y629592D01*
X159195Y630181D01*
X209450Y680436D01*
X265430D01*
X265430Y680436D01*
X266511Y680651D01*
X267427Y681263D01*
X285207Y699043D01*
X285207Y699043D01*
X285819Y699959D01*
X286034Y701040D01*
Y739740D01*
X291720D01*
Y753780D01*
X277680D01*
Y749584D01*
X243740D01*
X207272Y786052D01*
X207562Y786555D01*
X208160Y788785D01*
Y791095D01*
X207562Y793325D01*
X206408Y795325D01*
X204775Y796958D01*
X202775Y798112D01*
X200545Y798710D01*
X198235D01*
X196005Y798112D01*
X195502Y797822D01*
X146997Y846327D01*
X146081Y846939D01*
X145000Y847154D01*
X145000Y847154D01*
X94105D01*
X93247Y848640D01*
X91940Y849947D01*
X90340Y850872D01*
X88554Y851350D01*
D02*
G37*
G36*
X160150Y660530D02*
X142110D01*
Y642490D01*
X160150D01*
Y660530D01*
D02*
G37*
G36*
X267723Y624990D02*
X265677D01*
X263701Y624460D01*
X261929Y623438D01*
X260483Y621991D01*
X259459Y620219D01*
X258930Y618243D01*
Y616197D01*
X259459Y614221D01*
X260483Y612449D01*
X261929Y611003D01*
X263701Y609980D01*
X265677Y609450D01*
X267723D01*
X269699Y609980D01*
X271471Y611003D01*
X272917Y612449D01*
X273941Y614221D01*
X274470Y616197D01*
Y618243D01*
X273941Y620219D01*
X272917Y621991D01*
X271471Y623438D01*
X269699Y624460D01*
X267723Y624990D01*
D02*
G37*
G36*
X370990Y624590D02*
X355450D01*
Y609050D01*
X370990D01*
Y624590D01*
D02*
G37*
G36*
X646084Y606680D02*
X644236D01*
X642450Y606202D01*
X640850Y605277D01*
X639543Y603970D01*
X638618Y602370D01*
X638140Y600584D01*
Y598736D01*
X638618Y596950D01*
X639543Y595350D01*
X640850Y594043D01*
X642450Y593118D01*
X644236Y592640D01*
X646084D01*
X647870Y593118D01*
X649470Y594043D01*
X650777Y595350D01*
X651702Y596950D01*
X652180Y598736D01*
Y600584D01*
X651702Y602370D01*
X650777Y603970D01*
X649470Y605277D01*
X647870Y606202D01*
X646084Y606680D01*
D02*
G37*
G36*
X152317Y609730D02*
X149943D01*
X147648Y609115D01*
X145592Y607928D01*
X143912Y606248D01*
X142725Y604192D01*
X142110Y601898D01*
Y599523D01*
X142725Y597228D01*
X143912Y595172D01*
X145592Y593492D01*
X147648Y592305D01*
X149943Y591690D01*
X152317D01*
X154612Y592305D01*
X156668Y593492D01*
X158348Y595172D01*
X159535Y597228D01*
X160150Y599523D01*
Y601898D01*
X159535Y604192D01*
X158348Y606248D01*
X156668Y607928D01*
X154612Y609115D01*
X152317Y609730D01*
D02*
G37*
G36*
X274470Y599990D02*
X258930D01*
Y584450D01*
X274470D01*
Y599990D01*
D02*
G37*
G36*
X66964Y715460D02*
X65116D01*
X63330Y714982D01*
X61730Y714057D01*
X60423Y712750D01*
X59498Y711150D01*
X59020Y709364D01*
Y707516D01*
X59498Y705730D01*
X60423Y704130D01*
X61730Y702823D01*
X63330Y701898D01*
X65116Y701420D01*
X66964D01*
X68622Y701864D01*
X114016Y656470D01*
Y586740D01*
X114016Y586740D01*
X114231Y585659D01*
X114843Y584743D01*
X135163Y564423D01*
X136079Y563811D01*
X137160Y563596D01*
X137160Y563596D01*
X337820D01*
X337820Y563596D01*
X338901Y563811D01*
X339817Y564423D01*
X360064Y584670D01*
X360221Y584580D01*
X362197Y584050D01*
X364243D01*
X366219Y584580D01*
X367991Y585602D01*
X369437Y587049D01*
X370461Y588821D01*
X370990Y590797D01*
Y592843D01*
X370461Y594819D01*
X369437Y596591D01*
X367991Y598037D01*
X366219Y599061D01*
X364243Y599590D01*
X362197D01*
X360221Y599061D01*
X358449Y598037D01*
X357002Y596591D01*
X355979Y594819D01*
X355450Y592843D01*
Y590797D01*
X355979Y588821D01*
X356070Y588664D01*
X336650Y569244D01*
X138330D01*
X119664Y587910D01*
Y657640D01*
X119449Y658721D01*
X118837Y659637D01*
X72616Y705858D01*
X73060Y707516D01*
Y709364D01*
X72582Y711150D01*
X71657Y712750D01*
X70350Y714057D01*
X68750Y714982D01*
X66964Y715460D01*
D02*
G37*
G36*
X252483Y515770D02*
X250437D01*
X248461Y515241D01*
X246689Y514217D01*
X245243Y512771D01*
X244219Y510999D01*
X243690Y509023D01*
Y506977D01*
X244219Y505001D01*
X245243Y503229D01*
X246689Y501782D01*
X248461Y500760D01*
X250437Y500230D01*
X252483D01*
X254459Y500760D01*
X256231Y501782D01*
X257677Y503229D01*
X258701Y505001D01*
X259230Y506977D01*
Y509023D01*
X258701Y510999D01*
X257677Y512771D01*
X256231Y514217D01*
X254459Y515241D01*
X252483Y515770D01*
D02*
G37*
G36*
X82303D02*
X80257D01*
X78281Y515241D01*
X76509Y514217D01*
X75062Y512771D01*
X74040Y510999D01*
X73510Y509023D01*
Y506977D01*
X74040Y505001D01*
X75062Y503229D01*
X76509Y501782D01*
X78281Y500760D01*
X80257Y500230D01*
X82303D01*
X84279Y500760D01*
X86051Y501782D01*
X87498Y503229D01*
X88520Y505001D01*
X89050Y506977D01*
Y509023D01*
X88520Y510999D01*
X87498Y512771D01*
X86051Y514217D01*
X84279Y515241D01*
X82303Y515770D01*
D02*
G37*
G36*
X167393Y514500D02*
X165347D01*
X163371Y513970D01*
X161599Y512948D01*
X160152Y511501D01*
X159129Y509729D01*
X158600Y507753D01*
Y505707D01*
X159129Y503731D01*
X160152Y501959D01*
X161599Y500513D01*
X163371Y499490D01*
X165347Y498960D01*
X167393D01*
X169369Y499490D01*
X171141Y500513D01*
X172588Y501959D01*
X173610Y503731D01*
X174140Y505707D01*
Y507753D01*
X173610Y509729D01*
X172588Y511501D01*
X171141Y512948D01*
X169369Y513970D01*
X167393Y514500D01*
D02*
G37*
G36*
X798010Y509940D02*
X783970D01*
Y495900D01*
X798010D01*
Y509940D01*
D02*
G37*
G36*
X937710Y507400D02*
X923670D01*
Y493360D01*
X937710D01*
Y507400D01*
D02*
G37*
G36*
X866014D02*
X864166D01*
X862380Y506922D01*
X860780Y505997D01*
X859473Y504690D01*
X858548Y503090D01*
X858070Y501304D01*
Y499456D01*
X858548Y497670D01*
X859473Y496070D01*
X860780Y494763D01*
X862380Y493838D01*
X864166Y493360D01*
X866014D01*
X867800Y493838D01*
X869400Y494763D01*
X870707Y496070D01*
X871632Y497670D01*
X872110Y499456D01*
Y501304D01*
X871632Y503090D01*
X870707Y504690D01*
X869400Y505997D01*
X867800Y506922D01*
X866014Y507400D01*
D02*
G37*
G36*
X259230Y490770D02*
X243690D01*
Y475230D01*
X259230D01*
Y490770D01*
D02*
G37*
G36*
X89050D02*
X73510D01*
Y475230D01*
X89050D01*
Y490770D01*
D02*
G37*
G36*
X174140Y489500D02*
X158600D01*
Y473960D01*
X174140D01*
Y489500D01*
D02*
G37*
G36*
X341780Y489300D02*
X326240D01*
Y473760D01*
X341780D01*
Y489300D01*
D02*
G37*
G36*
X816610Y673384D02*
X815529Y673169D01*
X814613Y672557D01*
X814001Y671641D01*
X813786Y670560D01*
X814001Y669479D01*
X814613Y668563D01*
X840456Y642720D01*
Y457903D01*
X839895Y457752D01*
X837895Y456598D01*
X836262Y454965D01*
X835108Y452965D01*
X834510Y450735D01*
Y450215D01*
X843280D01*
X852050D01*
Y450735D01*
X851452Y452965D01*
X850298Y454965D01*
X848665Y456598D01*
X846665Y457752D01*
X846104Y457903D01*
Y643890D01*
X845889Y644971D01*
X845277Y645887D01*
X845277Y645887D01*
X818607Y672557D01*
X817691Y673169D01*
X816610Y673384D01*
D02*
G37*
G36*
X902850Y458350D02*
X885310D01*
Y440810D01*
X902850D01*
Y458350D01*
D02*
G37*
G36*
X869835D02*
X867525D01*
X865295Y457752D01*
X863295Y456598D01*
X861662Y454965D01*
X860508Y452965D01*
X859910Y450735D01*
Y448425D01*
X860508Y446195D01*
X861662Y444195D01*
X863295Y442562D01*
X865295Y441408D01*
X867525Y440810D01*
X869835D01*
X872065Y441408D01*
X874065Y442562D01*
X875698Y444195D01*
X876852Y446195D01*
X877450Y448425D01*
Y450735D01*
X876852Y452965D01*
X875698Y454965D01*
X874065Y456598D01*
X872065Y457752D01*
X869835Y458350D01*
D02*
G37*
G36*
X852050Y448945D02*
X843915D01*
Y440810D01*
X844435D01*
X846665Y441408D01*
X848665Y442562D01*
X850298Y444195D01*
X851452Y446195D01*
X852050Y448425D01*
Y448945D01*
D02*
G37*
G36*
X842645D02*
X834510D01*
Y448425D01*
X835108Y446195D01*
X836262Y444195D01*
X837895Y442562D01*
X839895Y441408D01*
X842125Y440810D01*
X842645D01*
Y448945D01*
D02*
G37*
G36*
X773254Y794170D02*
X771066D01*
X769044Y793333D01*
X767497Y791786D01*
X766660Y789764D01*
Y787576D01*
X767497Y785555D01*
X769044Y784007D01*
X769336Y783887D01*
Y609600D01*
X769336Y609600D01*
X769551Y608519D01*
X770163Y607603D01*
X818866Y558900D01*
Y509659D01*
X815883Y506676D01*
X815271Y505760D01*
X815056Y504679D01*
X815056Y504679D01*
Y457903D01*
X814495Y457752D01*
X812495Y456598D01*
X810862Y454965D01*
X809708Y452965D01*
X809110Y450735D01*
Y448425D01*
X809708Y446195D01*
X810862Y444195D01*
X812495Y442562D01*
X814495Y441408D01*
X816725Y440810D01*
X819035D01*
X821265Y441408D01*
X823265Y442562D01*
X824898Y444195D01*
X826052Y446195D01*
X826650Y448425D01*
Y450735D01*
X826052Y452965D01*
X824898Y454965D01*
X823265Y456598D01*
X821265Y457752D01*
X820704Y457903D01*
Y503509D01*
X823687Y506492D01*
X824299Y507408D01*
X824514Y508489D01*
X824514Y508489D01*
Y560070D01*
X824299Y561151D01*
X823687Y562067D01*
X823687Y562067D01*
X774984Y610770D01*
Y783887D01*
X775275Y784007D01*
X776823Y785555D01*
X777660Y787576D01*
Y789764D01*
X776823Y791786D01*
X775275Y793333D01*
X773254Y794170D01*
D02*
G37*
G36*
X693244Y477940D02*
X691056D01*
X689035Y477103D01*
X687487Y475555D01*
X686650Y473534D01*
Y471346D01*
X687487Y469324D01*
X688691Y468121D01*
Y433036D01*
X687765Y432653D01*
X686217Y431105D01*
X685380Y429084D01*
Y426896D01*
X686217Y424874D01*
X687765Y423327D01*
X689786Y422490D01*
X691974D01*
X693996Y423327D01*
X695543Y424874D01*
X696380Y426896D01*
Y429084D01*
X695543Y431105D01*
X694339Y432309D01*
Y467394D01*
X695266Y467777D01*
X696813Y469324D01*
X697650Y471346D01*
Y473534D01*
X696813Y475555D01*
X695266Y477103D01*
X693244Y477940D01*
D02*
G37*
G36*
X335033Y514300D02*
X332987D01*
X331011Y513770D01*
X329239Y512747D01*
X327793Y511301D01*
X326769Y509529D01*
X326240Y507553D01*
Y505507D01*
X326769Y503531D01*
X327793Y501759D01*
X329239Y500312D01*
X331011Y499290D01*
X332987Y498760D01*
X335033D01*
X337009Y499290D01*
X338781Y500312D01*
X340228Y501759D01*
X341250Y503531D01*
X341297Y503706D01*
X377490D01*
X456916Y424280D01*
Y412430D01*
X453432Y408946D01*
X451774Y409390D01*
X449926D01*
X448140Y408912D01*
X446540Y407987D01*
X445233Y406680D01*
X444375Y405194D01*
X300770D01*
X300770Y405194D01*
X299689Y404979D01*
X298773Y404367D01*
X135163Y240757D01*
X134551Y239841D01*
X134336Y238760D01*
X134336Y238760D01*
Y199390D01*
X134336Y199390D01*
X134551Y198309D01*
X135163Y197393D01*
X206748Y125808D01*
X206458Y125305D01*
X205860Y123075D01*
Y120765D01*
X206458Y118535D01*
X206748Y118032D01*
X185740Y97024D01*
X106080D01*
Y101220D01*
X92040D01*
Y87180D01*
X106080D01*
Y91376D01*
X186910D01*
X186910Y91376D01*
X187991Y91591D01*
X188907Y92203D01*
X210742Y114038D01*
X211245Y113748D01*
X213475Y113150D01*
X215785D01*
X218015Y113748D01*
X220015Y114902D01*
X221648Y116535D01*
X222802Y118535D01*
X223400Y120765D01*
Y123075D01*
X222802Y125305D01*
X221648Y127305D01*
X220015Y128938D01*
X218015Y130092D01*
X215785Y130690D01*
X213475D01*
X211245Y130092D01*
X210742Y129802D01*
X139984Y200560D01*
Y237590D01*
X301940Y399546D01*
X444375D01*
X445233Y398060D01*
X446540Y396753D01*
X448140Y395828D01*
X449926Y395350D01*
X451774D01*
X453560Y395828D01*
X455160Y396753D01*
X456467Y398060D01*
X457392Y399660D01*
X457870Y401446D01*
Y403294D01*
X457426Y404952D01*
X461737Y409263D01*
X461737Y409263D01*
X462349Y410179D01*
X462564Y411260D01*
X462564Y411260D01*
Y425450D01*
X462349Y426531D01*
X461737Y427447D01*
X461737Y427447D01*
X380657Y508527D01*
X379741Y509139D01*
X378660Y509354D01*
X378660Y509354D01*
X341297D01*
X341250Y509529D01*
X340228Y511301D01*
X338781Y512747D01*
X337009Y513770D01*
X335033Y514300D01*
D02*
G37*
G36*
X760554Y395390D02*
X758366D01*
X756345Y394553D01*
X754797Y393005D01*
X753960Y390984D01*
Y388796D01*
X754081Y388505D01*
X732063Y366487D01*
X731451Y365571D01*
X731236Y364490D01*
X731236Y364490D01*
Y195283D01*
X730945Y195163D01*
X729397Y193615D01*
X728560Y191594D01*
Y189406D01*
X729397Y187384D01*
X730945Y185837D01*
X732966Y185000D01*
X735154D01*
X737176Y185837D01*
X738723Y187384D01*
X739560Y189406D01*
Y191594D01*
X738723Y193615D01*
X737176Y195163D01*
X736884Y195283D01*
Y363320D01*
X758075Y384511D01*
X758366Y384390D01*
X760554D01*
X762576Y385227D01*
X764123Y386774D01*
X764960Y388796D01*
Y390984D01*
X764123Y393005D01*
X762576Y394553D01*
X760554Y395390D01*
D02*
G37*
G36*
X862280Y764960D02*
X859840D01*
X857482Y764328D01*
X855368Y763108D01*
X853642Y761382D01*
X852422Y759268D01*
X851790Y756910D01*
Y754470D01*
X852422Y752112D01*
X853642Y749998D01*
X855368Y748272D01*
X857482Y747052D01*
X859840Y746420D01*
X862280D01*
X864638Y747052D01*
X866752Y748272D01*
X868478Y749998D01*
X869698Y752112D01*
X869900Y752866D01*
X913190D01*
X954756Y711300D01*
Y438050D01*
X897968Y381262D01*
X897465Y381552D01*
X895235Y382150D01*
X892925D01*
X890695Y381552D01*
X888695Y380398D01*
X887062Y378765D01*
X885908Y376765D01*
X885310Y374535D01*
Y372225D01*
X885908Y369995D01*
X887062Y367995D01*
X888695Y366362D01*
X890695Y365208D01*
X892925Y364610D01*
X895235D01*
X897465Y365208D01*
X897968Y365498D01*
X961106Y302360D01*
Y82450D01*
X937360Y58704D01*
X524190D01*
X519678Y63216D01*
X520205Y64486D01*
X580390D01*
X580390Y64486D01*
X581471Y64701D01*
X582387Y65313D01*
X612039Y94965D01*
X612039Y94965D01*
X612651Y95881D01*
X612866Y96962D01*
X612866Y96962D01*
Y121904D01*
X612866Y121905D01*
X612651Y122985D01*
X612039Y123902D01*
X612039Y123902D01*
X583214Y152726D01*
Y172595D01*
X584700Y173453D01*
X586007Y174760D01*
X586132Y174976D01*
X604520D01*
X604520Y174976D01*
X605601Y175191D01*
X606517Y175803D01*
X683987Y253273D01*
X683987Y253273D01*
X684599Y254189D01*
X684814Y255270D01*
Y291397D01*
X685375Y291548D01*
X687375Y292702D01*
X689008Y294335D01*
X690162Y296335D01*
X690760Y298565D01*
Y300875D01*
X690162Y303105D01*
X689008Y305105D01*
X687375Y306738D01*
X685375Y307892D01*
X683145Y308490D01*
X680835D01*
X678605Y307892D01*
X676605Y306738D01*
X674972Y305105D01*
X673818Y303105D01*
X673220Y300875D01*
Y298565D01*
X673818Y296335D01*
X674972Y294335D01*
X676605Y292702D01*
X678605Y291548D01*
X679166Y291397D01*
Y256440D01*
X603350Y180624D01*
X587241D01*
X586932Y181780D01*
X586007Y183380D01*
X584700Y184687D01*
X583100Y185612D01*
X581314Y186090D01*
X579466D01*
X577680Y185612D01*
X576080Y184687D01*
X574773Y183380D01*
X573848Y181780D01*
X573370Y179994D01*
Y178146D01*
X573848Y176360D01*
X574773Y174760D01*
X576080Y173453D01*
X577566Y172595D01*
Y151556D01*
X577566Y151556D01*
X577781Y150475D01*
X578393Y149559D01*
X607217Y120735D01*
Y98131D01*
X579220Y70134D01*
X518610D01*
Y74330D01*
X504570D01*
Y60290D01*
X508766D01*
Y56830D01*
X490320Y38384D01*
X327560D01*
X247912Y118032D01*
X248202Y118535D01*
X248800Y120765D01*
Y123075D01*
X248202Y125305D01*
X247048Y127305D01*
X245415Y128938D01*
X243415Y130092D01*
X241185Y130690D01*
X238875D01*
X236645Y130092D01*
X234645Y128938D01*
X233012Y127305D01*
X231858Y125305D01*
X231260Y123075D01*
Y120765D01*
X231858Y118535D01*
X233012Y116535D01*
X234645Y114902D01*
X236645Y113748D01*
X238875Y113150D01*
X241185D01*
X243415Y113748D01*
X243918Y114038D01*
X324393Y33563D01*
X325309Y32951D01*
X326390Y32736D01*
X491490D01*
X491490Y32736D01*
X492571Y32951D01*
X493487Y33563D01*
X513587Y53663D01*
X513587Y53663D01*
X514199Y54579D01*
X514414Y55660D01*
Y58696D01*
X515684Y59222D01*
X521023Y53883D01*
X521939Y53271D01*
X523020Y53056D01*
X938530D01*
X938530Y53056D01*
X939611Y53271D01*
X940527Y53883D01*
X965927Y79283D01*
X965927Y79283D01*
X966539Y80199D01*
X966754Y81280D01*
X966754Y81280D01*
Y303530D01*
X966539Y304611D01*
X965927Y305527D01*
X965927Y305527D01*
X901962Y369492D01*
X902252Y369995D01*
X902850Y372225D01*
Y374535D01*
X902252Y376765D01*
X901962Y377268D01*
X959577Y434883D01*
X960189Y435799D01*
X960404Y436880D01*
X960404Y436880D01*
Y712470D01*
X960189Y713551D01*
X959577Y714467D01*
X959577Y714467D01*
X916357Y757687D01*
X915441Y758299D01*
X914360Y758514D01*
X914360Y758514D01*
X869900D01*
X869698Y759268D01*
X868478Y761382D01*
X866752Y763108D01*
X864638Y764328D01*
X862280Y764960D01*
D02*
G37*
G36*
X819035Y382150D02*
X818515D01*
Y374015D01*
X826650D01*
Y374535D01*
X826052Y376765D01*
X824898Y378765D01*
X823265Y380398D01*
X821265Y381552D01*
X819035Y382150D01*
D02*
G37*
G36*
X817245D02*
X816725D01*
X814495Y381552D01*
X812495Y380398D01*
X810862Y378765D01*
X809708Y376765D01*
X809110Y374535D01*
Y374015D01*
X817245D01*
Y382150D01*
D02*
G37*
G36*
X657745Y384690D02*
X655435D01*
X653205Y384092D01*
X651205Y382938D01*
X649572Y381305D01*
X648418Y379305D01*
X647820Y377075D01*
Y374765D01*
X648418Y372535D01*
X649572Y370535D01*
X651205Y368902D01*
X653205Y367748D01*
X655435Y367150D01*
X657745D01*
X659975Y367748D01*
X661975Y368902D01*
X663608Y370535D01*
X664762Y372535D01*
X665360Y374765D01*
Y377075D01*
X664762Y379305D01*
X663608Y381305D01*
X661975Y382938D01*
X659975Y384092D01*
X657745Y384690D01*
D02*
G37*
G36*
X632345D02*
X630035D01*
X627805Y384092D01*
X625805Y382938D01*
X624172Y381305D01*
X623018Y379305D01*
X622420Y377075D01*
Y374765D01*
X623018Y372535D01*
X623308Y372032D01*
X439241Y187965D01*
X438628Y187048D01*
X438434Y186074D01*
X436710Y185612D01*
X435110Y184687D01*
X433803Y183380D01*
X432878Y181780D01*
X432400Y179994D01*
Y178146D01*
X432878Y176360D01*
X433803Y174760D01*
X435110Y173453D01*
X436710Y172528D01*
X438496Y172050D01*
X440344D01*
X442130Y172528D01*
X443730Y173453D01*
X445037Y174760D01*
X445962Y176360D01*
X446440Y178146D01*
Y179994D01*
X445962Y181780D01*
X445037Y183380D01*
X444062Y184356D01*
Y184798D01*
X627302Y368038D01*
X627805Y367748D01*
X630035Y367150D01*
X632345D01*
X634575Y367748D01*
X636575Y368902D01*
X638208Y370535D01*
X639362Y372535D01*
X639960Y374765D01*
Y377075D01*
X639362Y379305D01*
X638208Y381305D01*
X636575Y382938D01*
X634575Y384092D01*
X632345Y384690D01*
D02*
G37*
G36*
X606945D02*
X604635D01*
X602405Y384092D01*
X600405Y382938D01*
X598772Y381305D01*
X597618Y379305D01*
X597467Y378744D01*
X519430D01*
X518349Y378529D01*
X517433Y377917D01*
X509813Y370297D01*
X509201Y369381D01*
X508986Y368300D01*
X508986Y368300D01*
Y312123D01*
X508694Y312003D01*
X507147Y310455D01*
X506310Y308434D01*
Y306246D01*
X507147Y304224D01*
X508694Y302677D01*
X510716Y301840D01*
X512904D01*
X514925Y302677D01*
X516473Y304224D01*
X517310Y306246D01*
Y308434D01*
X516473Y310455D01*
X514925Y312003D01*
X514634Y312123D01*
Y367130D01*
X520600Y373096D01*
X597467D01*
X597618Y372535D01*
X598772Y370535D01*
X600405Y368902D01*
X602405Y367748D01*
X604635Y367150D01*
X606945D01*
X609175Y367748D01*
X611175Y368902D01*
X612808Y370535D01*
X613962Y372535D01*
X614560Y374765D01*
Y377075D01*
X613962Y379305D01*
X612808Y381305D01*
X611175Y382938D01*
X609175Y384092D01*
X606945Y384690D01*
D02*
G37*
G36*
X869835Y382150D02*
X867525D01*
X865295Y381552D01*
X863295Y380398D01*
X861662Y378765D01*
X860508Y376765D01*
X859910Y374535D01*
Y372225D01*
X860508Y369995D01*
X861662Y367995D01*
X863295Y366362D01*
X865295Y365208D01*
X867525Y364610D01*
X869835D01*
X872065Y365208D01*
X874065Y366362D01*
X875698Y367995D01*
X876852Y369995D01*
X877450Y372225D01*
Y374535D01*
X876852Y376765D01*
X875698Y378765D01*
X874065Y380398D01*
X872065Y381552D01*
X869835Y382150D01*
D02*
G37*
G36*
X844435D02*
X842125D01*
X839895Y381552D01*
X837895Y380398D01*
X836262Y378765D01*
X835108Y376765D01*
X834510Y374535D01*
Y372225D01*
X835108Y369995D01*
X836262Y367995D01*
X837895Y366362D01*
X839895Y365208D01*
X842125Y364610D01*
X844435D01*
X846665Y365208D01*
X848665Y366362D01*
X850298Y367995D01*
X851452Y369995D01*
X852050Y372225D01*
Y374535D01*
X851452Y376765D01*
X850298Y378765D01*
X848665Y380398D01*
X846665Y381552D01*
X844435Y382150D01*
D02*
G37*
G36*
X238710Y382650D02*
X236270D01*
X233912Y382018D01*
X231798Y380798D01*
X230072Y379072D01*
X228852Y376958D01*
X228220Y374600D01*
Y372160D01*
X228852Y369802D01*
X230072Y367688D01*
X231798Y365962D01*
X233912Y364742D01*
X236270Y364110D01*
X238710D01*
X241068Y364742D01*
X243182Y365962D01*
X244908Y367688D01*
X246128Y369802D01*
X246760Y372160D01*
Y374600D01*
X246128Y376958D01*
X244908Y379072D01*
X243182Y380798D01*
X241068Y382018D01*
X238710Y382650D01*
D02*
G37*
G36*
X213310D02*
X210870D01*
X208512Y382018D01*
X206398Y380798D01*
X204672Y379072D01*
X203452Y376958D01*
X202820Y374600D01*
Y372160D01*
X203452Y369802D01*
X204672Y367688D01*
X206398Y365962D01*
X208512Y364742D01*
X210870Y364110D01*
X213310D01*
X215668Y364742D01*
X217782Y365962D01*
X219508Y367688D01*
X220728Y369802D01*
X221360Y372160D01*
Y374600D01*
X220728Y376958D01*
X219508Y379072D01*
X217782Y380798D01*
X215668Y382018D01*
X213310Y382650D01*
D02*
G37*
G36*
X162510D02*
X160070D01*
X157712Y382018D01*
X155598Y380798D01*
X153872Y379072D01*
X152652Y376958D01*
X152020Y374600D01*
Y372160D01*
X152652Y369802D01*
X153872Y367688D01*
X155598Y365962D01*
X157712Y364742D01*
X160070Y364110D01*
X162510D01*
X164868Y364742D01*
X166982Y365962D01*
X168708Y367688D01*
X169928Y369802D01*
X170560Y372160D01*
Y374600D01*
X169928Y376958D01*
X168708Y379072D01*
X166982Y380798D01*
X164868Y382018D01*
X162510Y382650D01*
D02*
G37*
G36*
X145160D02*
X126620D01*
Y364110D01*
X145160D01*
Y382650D01*
D02*
G37*
G36*
X557980Y347380D02*
X543940D01*
Y333340D01*
X557980D01*
Y347380D01*
D02*
G37*
G36*
X486284D02*
X484436D01*
X482650Y346902D01*
X481050Y345977D01*
X479743Y344670D01*
X478818Y343070D01*
X478340Y341284D01*
Y339436D01*
X478818Y337650D01*
X479743Y336050D01*
X481050Y334743D01*
X482650Y333818D01*
X484436Y333340D01*
X486284D01*
X488070Y333818D01*
X489670Y334743D01*
X490977Y336050D01*
X491902Y337650D01*
X492380Y339436D01*
Y341284D01*
X491902Y343070D01*
X490977Y344670D01*
X489670Y345977D01*
X488070Y346902D01*
X486284Y347380D01*
D02*
G37*
G36*
X457870Y343790D02*
X443830D01*
Y329750D01*
X457870D01*
Y343790D01*
D02*
G37*
G36*
X895800Y332140D02*
X881760D01*
Y318100D01*
X895800D01*
Y332140D01*
D02*
G37*
G36*
X824104D02*
X822256D01*
X820470Y331662D01*
X818870Y330737D01*
X817563Y329430D01*
X816638Y327830D01*
X816160Y326044D01*
Y324196D01*
X816638Y322410D01*
X817563Y320810D01*
X818870Y319503D01*
X820470Y318578D01*
X822256Y318100D01*
X824104D01*
X825890Y318578D01*
X827490Y319503D01*
X828797Y320810D01*
X829722Y322410D01*
X830200Y324196D01*
Y326044D01*
X829722Y327830D01*
X828797Y329430D01*
X827490Y330737D01*
X825890Y331662D01*
X824104Y332140D01*
D02*
G37*
G36*
X690760Y384690D02*
X673220D01*
Y371144D01*
X609678Y307602D01*
X609175Y307892D01*
X606945Y308490D01*
X604635D01*
X602405Y307892D01*
X600405Y306738D01*
X598772Y305105D01*
X597618Y303105D01*
X597020Y300875D01*
Y298565D01*
X597618Y296335D01*
X598772Y294335D01*
X600405Y292702D01*
X602405Y291548D01*
X604635Y290950D01*
X606945D01*
X609175Y291548D01*
X611175Y292702D01*
X612808Y294335D01*
X613962Y296335D01*
X614560Y298565D01*
Y300875D01*
X613962Y303105D01*
X613672Y303608D01*
X677214Y367150D01*
X690760D01*
Y384690D01*
D02*
G37*
G36*
X265361Y288520D02*
X262959D01*
X260640Y287899D01*
X258560Y286698D01*
X256862Y285000D01*
X255662Y282920D01*
X255040Y280601D01*
Y278199D01*
X255662Y275880D01*
X256022Y275256D01*
X247973Y267207D01*
X247361Y266291D01*
X247146Y265210D01*
X247146Y265210D01*
Y244510D01*
X242950D01*
Y230470D01*
X247146D01*
Y209230D01*
X244806Y206890D01*
X231260D01*
Y189350D01*
X248800D01*
Y202896D01*
X251967Y206063D01*
X252579Y206979D01*
X252794Y208060D01*
X252794Y208060D01*
Y230470D01*
X256990D01*
Y244510D01*
X252794D01*
Y264040D01*
X260016Y271262D01*
X260640Y270902D01*
X262959Y270280D01*
X265361D01*
X267680Y270902D01*
X269760Y272102D01*
X271458Y273800D01*
X272659Y275880D01*
X273280Y278199D01*
Y280601D01*
X272659Y282920D01*
X271458Y285000D01*
X269760Y286698D01*
X267680Y287899D01*
X265361Y288520D01*
D02*
G37*
G36*
X298680D02*
X280440D01*
Y270280D01*
X290546D01*
Y246285D01*
X289060Y245427D01*
X287753Y244120D01*
X286828Y242520D01*
X286350Y240734D01*
Y238886D01*
X286828Y237100D01*
X287753Y235500D01*
X289060Y234193D01*
X290660Y233268D01*
X292446Y232790D01*
X294294D01*
X296080Y233268D01*
X297680Y234193D01*
X298987Y235500D01*
X299912Y237100D01*
X300390Y238886D01*
Y240734D01*
X299912Y242520D01*
X298987Y244120D01*
X297680Y245427D01*
X296194Y246285D01*
Y270280D01*
X298680D01*
Y288520D01*
D02*
G37*
G36*
X185294Y244510D02*
X183446D01*
X181660Y244032D01*
X180060Y243107D01*
X178753Y241800D01*
X177828Y240200D01*
X177350Y238414D01*
Y236566D01*
X177828Y234780D01*
X178753Y233180D01*
X180060Y231873D01*
X181660Y230948D01*
X183446Y230470D01*
X185294D01*
X187080Y230948D01*
X188680Y231873D01*
X189987Y233180D01*
X190912Y234780D01*
X191390Y236566D01*
Y238414D01*
X190912Y240200D01*
X189987Y241800D01*
X188680Y243107D01*
X187080Y244032D01*
X185294Y244510D01*
D02*
G37*
G36*
X327484Y217590D02*
X325296D01*
X323274Y216753D01*
X321727Y215205D01*
X321607Y214914D01*
X284480D01*
X284480Y214914D01*
X283399Y214699D01*
X282483Y214087D01*
X262163Y193767D01*
X261551Y192851D01*
X261336Y191770D01*
X261336Y191770D01*
Y163830D01*
X261336Y163830D01*
X261551Y162749D01*
X262163Y161833D01*
X262606Y161390D01*
Y138430D01*
X262606Y138430D01*
X262821Y137349D01*
X263433Y136433D01*
X336251Y63615D01*
X336130Y63324D01*
Y61136D01*
X336967Y59114D01*
X338515Y57567D01*
X340536Y56730D01*
X342724D01*
X344745Y57567D01*
X346293Y59114D01*
X347130Y61136D01*
Y63324D01*
X346293Y65346D01*
X344745Y66893D01*
X342724Y67730D01*
X340536D01*
X340245Y67609D01*
X268254Y139600D01*
Y162560D01*
X268254Y162560D01*
X268039Y163641D01*
X267427Y164557D01*
X267427Y164557D01*
X266984Y165000D01*
Y190600D01*
X285650Y209266D01*
X321607D01*
X321727Y208974D01*
X323274Y207427D01*
X325296Y206590D01*
X327484D01*
X329506Y207427D01*
X331053Y208974D01*
X331890Y210996D01*
Y213184D01*
X331053Y215205D01*
X329506Y216753D01*
X327484Y217590D01*
D02*
G37*
G36*
X878664Y289980D02*
X876476D01*
X874454Y289143D01*
X872907Y287596D01*
X872070Y285574D01*
Y283386D01*
X872907Y281364D01*
X874363Y279909D01*
Y222880D01*
X873777D01*
X871355Y222231D01*
X869185Y220978D01*
X867412Y219205D01*
X866159Y217035D01*
X865510Y214613D01*
Y212107D01*
X866159Y209685D01*
X867412Y207515D01*
X869185Y205742D01*
X871355Y204489D01*
X873777Y203840D01*
X876283D01*
X878705Y204489D01*
X880875Y205742D01*
X882648Y207515D01*
X883901Y209685D01*
X884550Y212107D01*
Y214613D01*
X883901Y217035D01*
X882648Y219205D01*
X880875Y220978D01*
X880012Y221477D01*
Y279538D01*
X880686Y279817D01*
X882233Y281364D01*
X883070Y283386D01*
Y285574D01*
X882233Y287596D01*
X880686Y289143D01*
X878664Y289980D01*
D02*
G37*
G36*
X351224Y753780D02*
X349376D01*
X347590Y753302D01*
X345990Y752377D01*
X344683Y751070D01*
X343758Y749470D01*
X343280Y747684D01*
Y745836D01*
X343758Y744050D01*
X344683Y742450D01*
X345990Y741143D01*
X347590Y740218D01*
X349376Y739740D01*
X351224D01*
X352882Y740184D01*
X592143Y500923D01*
X592143Y500923D01*
X593059Y500311D01*
X594140Y500096D01*
X718915D01*
X719773Y498610D01*
X721080Y497303D01*
X722566Y496445D01*
Y465870D01*
X722566Y465870D01*
X722566Y465870D01*
Y369690D01*
X660478Y307602D01*
X659975Y307892D01*
X657745Y308490D01*
X655435D01*
X653205Y307892D01*
X651205Y306738D01*
X649572Y305105D01*
X648418Y303105D01*
X648267Y302544D01*
X639513D01*
X639362Y303105D01*
X638208Y305105D01*
X636575Y306738D01*
X634575Y307892D01*
X632345Y308490D01*
X630035D01*
X627805Y307892D01*
X625805Y306738D01*
X624172Y305105D01*
X623018Y303105D01*
X622420Y300875D01*
Y298565D01*
X623018Y296335D01*
X624172Y294335D01*
X625805Y292702D01*
X627805Y291548D01*
X630035Y290950D01*
X632345D01*
X634575Y291548D01*
X636575Y292702D01*
X638208Y294335D01*
X639362Y296335D01*
X639513Y296896D01*
X648267D01*
X648418Y296335D01*
X649572Y294335D01*
X651205Y292702D01*
X653205Y291548D01*
X655435Y290950D01*
X657745D01*
X659975Y291548D01*
X661975Y292702D01*
X663608Y294335D01*
X664762Y296335D01*
X665360Y298565D01*
Y300875D01*
X664762Y303105D01*
X664472Y303608D01*
X727387Y366523D01*
X727999Y367439D01*
X728214Y368520D01*
Y457392D01*
X729388Y457878D01*
X773146Y414120D01*
Y328930D01*
X773146Y328930D01*
X773361Y327849D01*
X773973Y326933D01*
X846806Y254100D01*
Y222459D01*
X845955Y222231D01*
X843785Y220978D01*
X842012Y219205D01*
X840759Y217035D01*
X840110Y214613D01*
Y212107D01*
X840759Y209685D01*
X842012Y207515D01*
X843785Y205742D01*
X845955Y204489D01*
X848377Y203840D01*
X850883D01*
X853305Y204489D01*
X855475Y205742D01*
X857248Y207515D01*
X858501Y209685D01*
X859150Y212107D01*
Y214613D01*
X858501Y217035D01*
X857248Y219205D01*
X855475Y220978D01*
X853305Y222231D01*
X852454Y222459D01*
Y255270D01*
X852239Y256351D01*
X851627Y257267D01*
X851627Y257267D01*
X778794Y330100D01*
Y415290D01*
X778794Y415290D01*
X778579Y416371D01*
X777967Y417287D01*
X777967Y417287D01*
X728214Y467040D01*
Y496445D01*
X729700Y497303D01*
X731007Y498610D01*
X731932Y500210D01*
X732410Y501996D01*
Y503844D01*
X731932Y505630D01*
X731007Y507230D01*
X729700Y508537D01*
X728100Y509462D01*
X726314Y509940D01*
X724466D01*
X722680Y509462D01*
X721080Y508537D01*
X719773Y507230D01*
X718915Y505744D01*
X595310D01*
X356876Y744178D01*
X357320Y745836D01*
Y747684D01*
X356842Y749470D01*
X355917Y751070D01*
X354610Y752377D01*
X353010Y753302D01*
X351224Y753780D01*
D02*
G37*
G36*
X215785Y206890D02*
X215265D01*
Y198755D01*
X223400D01*
Y199275D01*
X222802Y201505D01*
X221648Y203505D01*
X220015Y205138D01*
X218015Y206292D01*
X215785Y206890D01*
D02*
G37*
G36*
X213995D02*
X213475D01*
X211245Y206292D01*
X209245Y205138D01*
X207612Y203505D01*
X206458Y201505D01*
X205860Y199275D01*
Y198755D01*
X213995D01*
Y206890D01*
D02*
G37*
G36*
X555914Y211490D02*
X554066D01*
X552280Y211012D01*
X550680Y210087D01*
X549373Y208780D01*
X548448Y207180D01*
X547970Y205394D01*
Y203546D01*
X548448Y201760D01*
X549373Y200160D01*
X550680Y198853D01*
X552280Y197928D01*
X554066Y197450D01*
X555914D01*
X557700Y197928D01*
X559300Y198853D01*
X560607Y200160D01*
X561532Y201760D01*
X562010Y203546D01*
Y205394D01*
X561532Y207180D01*
X560607Y208780D01*
X559300Y210087D01*
X557700Y211012D01*
X555914Y211490D01*
D02*
G37*
G36*
X826650Y372745D02*
X817880D01*
X809110D01*
Y372225D01*
X809708Y369995D01*
X810862Y367995D01*
X812495Y366362D01*
X814495Y365208D01*
X815056Y365057D01*
Y355111D01*
X815056Y355111D01*
X815271Y354030D01*
X815883Y353114D01*
X858236Y310761D01*
Y298352D01*
X858236Y298352D01*
X858451Y297271D01*
X859063Y296355D01*
X860234Y295183D01*
X860235Y295183D01*
X861151Y294571D01*
X862232Y294356D01*
X862232Y294356D01*
X901800D01*
X939616Y256540D01*
X879467Y196391D01*
X878705Y196831D01*
X876283Y197480D01*
X875665D01*
Y188595D01*
X884550D01*
Y189213D01*
X884211Y190478D01*
X884984Y191486D01*
X936090D01*
X947136Y180440D01*
Y157380D01*
X904340Y114584D01*
X884550D01*
Y121280D01*
X877854D01*
Y128061D01*
X878705Y128289D01*
X880875Y129542D01*
X882648Y131315D01*
X883901Y133485D01*
X884550Y135907D01*
Y136525D01*
X875030D01*
X865510D01*
Y135907D01*
X866159Y133485D01*
X867412Y131315D01*
X869185Y129542D01*
X871355Y128289D01*
X872206Y128061D01*
Y121280D01*
X865510D01*
Y112395D01*
X875030D01*
Y111760D01*
X875665D01*
Y102240D01*
X884550D01*
Y108936D01*
X905510D01*
X905510Y108936D01*
X906591Y109151D01*
X907507Y109763D01*
X951957Y154213D01*
X951957Y154213D01*
X952569Y155129D01*
X952784Y156210D01*
X952784Y156210D01*
Y181610D01*
X952784Y181610D01*
X952569Y182691D01*
X951957Y183607D01*
X951957Y183607D01*
X939257Y196307D01*
X938341Y196919D01*
X937260Y197134D01*
X937260Y197134D01*
X889858D01*
X889372Y198308D01*
X944779Y253715D01*
X944779Y253715D01*
X945391Y254631D01*
X945606Y255712D01*
X945606Y255712D01*
Y257368D01*
X945391Y258449D01*
X944779Y259366D01*
X904967Y299177D01*
X904051Y299789D01*
X902970Y300004D01*
X902970Y300004D01*
X863884D01*
Y311931D01*
X863884Y311931D01*
X863669Y313012D01*
X863057Y313928D01*
X820704Y356281D01*
Y365057D01*
X821265Y365208D01*
X823265Y366362D01*
X824898Y367995D01*
X826052Y369995D01*
X826650Y372225D01*
Y372745D01*
D02*
G37*
G36*
X223400Y197485D02*
X215265D01*
Y189350D01*
X215785D01*
X218015Y189948D01*
X220015Y191102D01*
X221648Y192735D01*
X222802Y194735D01*
X223400Y196965D01*
Y197485D01*
D02*
G37*
G36*
X213995D02*
X205860D01*
Y196965D01*
X206458Y194735D01*
X207612Y192735D01*
X209245Y191102D01*
X211245Y189948D01*
X213475Y189350D01*
X213995D01*
Y197485D01*
D02*
G37*
G36*
X190385Y206890D02*
X188075D01*
X185845Y206292D01*
X183845Y205138D01*
X182212Y203505D01*
X181058Y201505D01*
X180460Y199275D01*
Y196965D01*
X181058Y194735D01*
X182212Y192735D01*
X183845Y191102D01*
X185845Y189948D01*
X188075Y189350D01*
X190385D01*
X192615Y189948D01*
X194615Y191102D01*
X196248Y192735D01*
X197402Y194735D01*
X198000Y196965D01*
Y199275D01*
X197402Y201505D01*
X196248Y203505D01*
X194615Y205138D01*
X192615Y206292D01*
X190385Y206890D01*
D02*
G37*
G36*
X164985D02*
X162675D01*
X160445Y206292D01*
X158445Y205138D01*
X156812Y203505D01*
X155658Y201505D01*
X155060Y199275D01*
Y196965D01*
X155658Y194735D01*
X156812Y192735D01*
X158445Y191102D01*
X160445Y189948D01*
X162675Y189350D01*
X164985D01*
X167215Y189948D01*
X169215Y191102D01*
X170848Y192735D01*
X172002Y194735D01*
X172600Y196965D01*
Y199275D01*
X172002Y201505D01*
X170848Y203505D01*
X169215Y205138D01*
X167215Y206292D01*
X164985Y206890D01*
D02*
G37*
G36*
X874395Y197480D02*
X873777D01*
X871355Y196831D01*
X869185Y195578D01*
X867412Y193805D01*
X866159Y191635D01*
X865510Y189213D01*
Y188595D01*
X874395D01*
Y197480D01*
D02*
G37*
G36*
X884550Y187325D02*
X875665D01*
Y178440D01*
X876283D01*
X878705Y179089D01*
X880875Y180342D01*
X882648Y182115D01*
X883901Y184285D01*
X884550Y186707D01*
Y187325D01*
D02*
G37*
G36*
X874395D02*
X865510D01*
Y186707D01*
X866159Y184285D01*
X867412Y182115D01*
X869185Y180342D01*
X871355Y179089D01*
X873777Y178440D01*
X874395D01*
Y187325D01*
D02*
G37*
G36*
X850883Y197480D02*
X848377D01*
X845955Y196831D01*
X843785Y195578D01*
X842012Y193805D01*
X840759Y191635D01*
X840110Y189213D01*
Y186707D01*
X840759Y184285D01*
X842012Y182115D01*
X843785Y180342D01*
X845955Y179089D01*
X848377Y178440D01*
X850883D01*
X853305Y179089D01*
X855475Y180342D01*
X857248Y182115D01*
X858501Y184285D01*
X859150Y186707D01*
Y189213D01*
X858501Y191635D01*
X857248Y193805D01*
X855475Y195578D01*
X853305Y196831D01*
X850883Y197480D01*
D02*
G37*
G36*
X491048Y169636D02*
X491048Y169636D01*
X489392D01*
X488311Y169421D01*
X487972Y169194D01*
X445770D01*
X445770Y169194D01*
X444689Y168979D01*
X443773Y168367D01*
X443773Y168367D01*
X431900Y156494D01*
X421040D01*
Y160690D01*
X407000D01*
Y146650D01*
X421040D01*
Y150846D01*
X433070D01*
X433070Y150846D01*
X434151Y151061D01*
X435067Y151673D01*
X446940Y163546D01*
X488950D01*
X488950Y163546D01*
X490031Y163761D01*
X490075Y163790D01*
X505176Y148690D01*
Y116240D01*
X500980D01*
Y102200D01*
X515020D01*
Y116240D01*
X510824D01*
Y149860D01*
X510824Y149860D01*
X510609Y150941D01*
X509997Y151857D01*
X493046Y168809D01*
X492129Y169421D01*
X491048Y169636D01*
D02*
G37*
G36*
X300390Y181230D02*
X286350D01*
Y167190D01*
X300390D01*
Y181230D01*
D02*
G37*
G36*
X336481Y181840D02*
X334079D01*
X331760Y181218D01*
X329680Y180018D01*
X327982Y178320D01*
X326782Y176240D01*
X326160Y173921D01*
Y171519D01*
X326782Y169200D01*
X327982Y167120D01*
X329680Y165422D01*
X331760Y164221D01*
X334079Y163600D01*
X336481D01*
X338800Y164221D01*
X340880Y165422D01*
X342578Y167120D01*
X343778Y169200D01*
X344400Y171519D01*
Y173921D01*
X343778Y176240D01*
X342578Y178320D01*
X340880Y180018D01*
X338800Y181218D01*
X336481Y181840D01*
D02*
G37*
G36*
X876283Y172080D02*
X873777D01*
X871355Y171431D01*
X869185Y170178D01*
X867412Y168405D01*
X866159Y166235D01*
X865510Y163813D01*
Y161307D01*
X866159Y158885D01*
X867412Y156715D01*
X869185Y154942D01*
X871355Y153689D01*
X873777Y153040D01*
X876283D01*
X878705Y153689D01*
X880875Y154942D01*
X882648Y156715D01*
X883901Y158885D01*
X884129Y159736D01*
X933747D01*
X933867Y159445D01*
X935415Y157897D01*
X937436Y157060D01*
X939624D01*
X941646Y157897D01*
X943193Y159445D01*
X944030Y161466D01*
Y163654D01*
X943193Y165676D01*
X941646Y167223D01*
X939624Y168060D01*
X937436D01*
X935415Y167223D01*
X933867Y165676D01*
X933747Y165384D01*
X884129D01*
X883901Y166235D01*
X882648Y168405D01*
X880875Y170178D01*
X878705Y171431D01*
X876283Y172080D01*
D02*
G37*
G36*
X777064Y242990D02*
X774876D01*
X772855Y242153D01*
X771307Y240606D01*
X770470Y238584D01*
Y236396D01*
X771307Y234375D01*
X772855Y232827D01*
X774876Y231990D01*
X776206D01*
X841199Y166997D01*
X840759Y166235D01*
X840110Y163813D01*
Y161307D01*
X840759Y158885D01*
X842012Y156715D01*
X843785Y154942D01*
X845955Y153689D01*
X848377Y153040D01*
X850883D01*
X853305Y153689D01*
X855475Y154942D01*
X857248Y156715D01*
X858501Y158885D01*
X859150Y161307D01*
Y163813D01*
X858501Y166235D01*
X857248Y168405D01*
X855475Y170178D01*
X853305Y171431D01*
X850883Y172080D01*
X848377D01*
X845955Y171431D01*
X845193Y170991D01*
X780977Y235207D01*
X781470Y236396D01*
Y238584D01*
X780633Y240606D01*
X779085Y242153D01*
X777064Y242990D01*
D02*
G37*
G36*
X99984Y166820D02*
X98136D01*
X96350Y166342D01*
X94750Y165417D01*
X93443Y164110D01*
X92518Y162510D01*
X92040Y160724D01*
Y158876D01*
X92518Y157090D01*
X93443Y155490D01*
X94750Y154183D01*
X96350Y153258D01*
X98136Y152780D01*
X99984D01*
X101770Y153258D01*
X103370Y154183D01*
X104677Y155490D01*
X105602Y157090D01*
X106080Y158876D01*
Y160724D01*
X105602Y162510D01*
X104677Y164110D01*
X103370Y165417D01*
X101770Y166342D01*
X99984Y166820D01*
D02*
G37*
G36*
X344400Y156440D02*
X326160D01*
Y138200D01*
X344400D01*
Y156440D01*
D02*
G37*
G36*
X876283Y146680D02*
X875665D01*
Y137795D01*
X884550D01*
Y138413D01*
X883901Y140835D01*
X882648Y143005D01*
X880875Y144778D01*
X878705Y146031D01*
X876283Y146680D01*
D02*
G37*
G36*
X874395D02*
X873777D01*
X871355Y146031D01*
X869185Y144778D01*
X867412Y143005D01*
X866159Y140835D01*
X865510Y138413D01*
Y137795D01*
X874395D01*
Y146680D01*
D02*
G37*
G36*
X850883D02*
X848377D01*
X845955Y146031D01*
X843785Y144778D01*
X842012Y143005D01*
X840759Y140835D01*
X840110Y138413D01*
Y135907D01*
X840759Y133485D01*
X842012Y131315D01*
X843785Y129542D01*
X845955Y128289D01*
X848377Y127640D01*
X850883D01*
X853305Y128289D01*
X855475Y129542D01*
X857248Y131315D01*
X858501Y133485D01*
X859150Y135907D01*
Y138413D01*
X858501Y140835D01*
X857248Y143005D01*
X855475Y144778D01*
X853305Y146031D01*
X850883Y146680D01*
D02*
G37*
G36*
X187910Y382650D02*
X185470D01*
X183112Y382018D01*
X180998Y380798D01*
X179272Y379072D01*
X178052Y376958D01*
X177420Y374600D01*
Y372160D01*
X178052Y369802D01*
X179272Y367688D01*
X180998Y365962D01*
X182279Y365223D01*
Y362879D01*
X122146Y302746D01*
X121534Y301830D01*
X121319Y300749D01*
X121319Y300749D01*
Y152717D01*
X121319Y152717D01*
X121534Y151636D01*
X122146Y150719D01*
X133893Y138973D01*
X133893Y138973D01*
X134809Y138361D01*
X135890Y138146D01*
X148761D01*
X148761Y138146D01*
X149842Y138361D01*
X150758Y138973D01*
X157380Y145595D01*
X164567D01*
X169649Y140513D01*
Y138677D01*
X169649Y138677D01*
X169864Y137596D01*
X170476Y136679D01*
X181348Y125808D01*
X181058Y125305D01*
X180460Y123075D01*
Y120765D01*
X181058Y118535D01*
X182212Y116535D01*
X183845Y114902D01*
X185845Y113748D01*
X188075Y113150D01*
X190385D01*
X192615Y113748D01*
X194615Y114902D01*
X196248Y116535D01*
X197402Y118535D01*
X198000Y120765D01*
Y123075D01*
X197402Y125305D01*
X196248Y127305D01*
X194615Y128938D01*
X192615Y130092D01*
X190385Y130690D01*
X188075D01*
X185845Y130092D01*
X185342Y129802D01*
X175298Y139846D01*
Y141683D01*
X175083Y142763D01*
X174471Y143680D01*
X174470Y143680D01*
X167734Y150416D01*
X166818Y151028D01*
X165737Y151243D01*
X165737Y151243D01*
X156210D01*
X155129Y151028D01*
X154213Y150416D01*
X154213Y150416D01*
X147591Y143794D01*
X137060D01*
X126968Y153886D01*
Y299579D01*
X187100Y359712D01*
X187101Y359712D01*
X187713Y360628D01*
X187928Y361709D01*
X187928Y361709D01*
Y364115D01*
X190268Y364742D01*
X192382Y365962D01*
X194108Y367688D01*
X195328Y369802D01*
X195960Y372160D01*
Y374600D01*
X195328Y376958D01*
X194108Y379072D01*
X192382Y380798D01*
X190268Y382018D01*
X187910Y382650D01*
D02*
G37*
G36*
X164985Y130690D02*
X162675D01*
X160445Y130092D01*
X158445Y128938D01*
X156812Y127305D01*
X155658Y125305D01*
X155060Y123075D01*
Y120765D01*
X155658Y118535D01*
X156812Y116535D01*
X158445Y114902D01*
X160445Y113748D01*
X162675Y113150D01*
X164985D01*
X167215Y113748D01*
X169215Y114902D01*
X170848Y116535D01*
X172002Y118535D01*
X172600Y120765D01*
Y123075D01*
X172002Y125305D01*
X170848Y127305D01*
X169215Y128938D01*
X167215Y130092D01*
X164985Y130690D01*
D02*
G37*
G36*
X874395Y111125D02*
X865510D01*
Y102240D01*
X874395D01*
Y111125D01*
D02*
G37*
G36*
X850883Y121280D02*
X848377D01*
X845955Y120631D01*
X843785Y119378D01*
X842012Y117605D01*
X840759Y115435D01*
X840110Y113013D01*
Y110507D01*
X840759Y108085D01*
X842012Y105915D01*
X843785Y104142D01*
X845955Y102889D01*
X848377Y102240D01*
X850883D01*
X853305Y102889D01*
X855475Y104142D01*
X857248Y105915D01*
X858501Y108085D01*
X859150Y110507D01*
Y113013D01*
X858501Y115435D01*
X857248Y117605D01*
X855475Y119378D01*
X853305Y120631D01*
X850883Y121280D01*
D02*
G37*
G36*
X536610Y186090D02*
X522570D01*
Y172050D01*
X526766D01*
Y153230D01*
X526766Y153230D01*
X526981Y152149D01*
X527593Y151233D01*
X567024Y111802D01*
X566580Y110144D01*
Y108296D01*
X567058Y106510D01*
X567983Y104910D01*
X569290Y103603D01*
X570890Y102678D01*
X572676Y102200D01*
X574524D01*
X576310Y102678D01*
X577910Y103603D01*
X579217Y104910D01*
X580142Y106510D01*
X580620Y108296D01*
Y110144D01*
X580142Y111930D01*
X579217Y113530D01*
X577910Y114837D01*
X576310Y115762D01*
X574524Y116240D01*
X572676D01*
X571018Y115796D01*
X532414Y154400D01*
Y172050D01*
X536610D01*
Y186090D01*
D02*
G37*
G36*
X465744Y160690D02*
X463896D01*
X462110Y160212D01*
X460510Y159287D01*
X459203Y157980D01*
X458278Y156380D01*
X457800Y154594D01*
Y152746D01*
X458278Y150960D01*
X459203Y149360D01*
X460510Y148053D01*
X461996Y147195D01*
Y125630D01*
X437423Y101057D01*
X436811Y100141D01*
X436596Y99060D01*
X436596Y99060D01*
Y73880D01*
X436596Y73880D01*
X436811Y72799D01*
X437423Y71883D01*
X439414Y69892D01*
X438970Y68234D01*
Y66386D01*
X439448Y64600D01*
X440373Y63000D01*
X441680Y61693D01*
X443280Y60768D01*
X445066Y60290D01*
X446914D01*
X448700Y60768D01*
X450300Y61693D01*
X451607Y63000D01*
X452532Y64600D01*
X453010Y66386D01*
Y68234D01*
X452532Y70020D01*
X451607Y71620D01*
X450300Y72927D01*
X448700Y73852D01*
X446914Y74330D01*
X445066D01*
X443408Y73886D01*
X442244Y75050D01*
Y97890D01*
X466817Y122463D01*
X466817Y122463D01*
X467429Y123379D01*
X467644Y124460D01*
X467644Y124460D01*
Y147195D01*
X469130Y148053D01*
X470437Y149360D01*
X471362Y150960D01*
X471840Y152746D01*
Y154594D01*
X471362Y156380D01*
X470437Y157980D01*
X469130Y159287D01*
X467530Y160212D01*
X465744Y160690D01*
D02*
G37*
G36*
X959304Y50520D02*
X955856D01*
X952475Y49847D01*
X949291Y48528D01*
X946424Y46613D01*
X943987Y44176D01*
X942072Y41309D01*
X940752Y38125D01*
X940080Y34744D01*
Y31296D01*
X940752Y27915D01*
X942072Y24731D01*
X943987Y21864D01*
X946424Y19427D01*
X949291Y17512D01*
X952475Y16193D01*
X955856Y15520D01*
X959304D01*
X962685Y16193D01*
X965869Y17512D01*
X968736Y19427D01*
X971173Y21864D01*
X973088Y24731D01*
X974408Y27915D01*
X975080Y31296D01*
Y34744D01*
X974408Y38125D01*
X973088Y41309D01*
X971173Y44176D01*
X968736Y46613D01*
X965869Y48528D01*
X962685Y49847D01*
X959304Y50520D01*
D02*
G37*
G36*
X32204D02*
X28756D01*
X25375Y49847D01*
X22191Y48528D01*
X19324Y46613D01*
X16887Y44176D01*
X14972Y41309D01*
X13652Y38125D01*
X12980Y34744D01*
Y31296D01*
X13652Y27915D01*
X14972Y24731D01*
X16887Y21864D01*
X19324Y19427D01*
X22191Y17512D01*
X25375Y16193D01*
X28756Y15520D01*
X32204D01*
X35585Y16193D01*
X38769Y17512D01*
X41636Y19427D01*
X44073Y21864D01*
X45988Y24731D01*
X47308Y27915D01*
X47980Y31296D01*
Y34744D01*
X47308Y38125D01*
X45988Y41309D01*
X44073Y44176D01*
X41636Y46613D01*
X38769Y48528D01*
X35585Y49847D01*
X32204Y50520D01*
D02*
G37*
%LPD*%
D13*
X691515Y428625D02*
Y471805D01*
X690880Y427990D02*
X691515Y428625D01*
Y471805D02*
X692150Y472440D01*
X618490Y802640D02*
X798830D01*
Y868680D01*
Y802640D02*
X815300D01*
X664365Y902970D02*
X730250D01*
X746760Y919480D01*
X655475Y911860D02*
X664365Y902970D01*
X745490Y895350D02*
X769620Y919480D01*
X772160D01*
X584200Y895350D02*
X745490D01*
X549910Y861060D02*
X584200Y895350D01*
X618490Y911860D02*
X655475D01*
X124143Y152717D02*
Y300749D01*
X135890Y140970D02*
X148761D01*
X124143Y152717D02*
X135890Y140970D01*
X124143Y300749D02*
X185103Y361709D01*
X148761Y140970D02*
X156210Y148419D01*
X165737D01*
X580390Y151556D02*
Y179070D01*
X172473Y138677D02*
X189230Y121920D01*
X137160Y199390D02*
X214630Y121920D01*
X240030D02*
X326390Y35560D01*
X186910Y94200D02*
X214630Y121920D01*
X240030Y198120D02*
X249970Y208060D01*
Y237490D01*
X99060Y94200D02*
X186910D01*
X511590Y55660D02*
Y67310D01*
X491490Y35560D02*
X511590Y55660D01*
X326390Y35560D02*
X491490D01*
X300770Y402370D02*
X450850D01*
X137160Y238760D02*
X300770Y402370D01*
X137160Y199390D02*
Y238760D01*
X185103Y371793D02*
X186690Y373380D01*
X185103Y361709D02*
Y371793D01*
X165737Y148419D02*
X172473Y141683D01*
Y138677D02*
Y141683D01*
X378660Y506530D02*
X459740Y425450D01*
X450850Y402370D02*
X459740Y411260D01*
Y425450D01*
X334010Y506530D02*
X378660D01*
X881380Y194310D02*
X942782Y255712D01*
X949960Y156210D02*
Y181610D01*
X875517Y188447D02*
X881380Y194310D01*
X875030Y187960D02*
X881380Y194310D01*
X937260D02*
X949960Y181610D01*
X881380Y194310D02*
X937260D01*
X894080Y373380D02*
X963930Y303530D01*
X523020Y55880D02*
X938530D01*
X963930Y81280D01*
Y303530D01*
X905510Y111760D02*
X949960Y156210D01*
X816610Y670560D02*
X843280Y643890D01*
Y449580D02*
Y643890D01*
X772160Y609600D02*
Y788670D01*
Y609600D02*
X821690Y560070D01*
X137160Y566420D02*
X337820D01*
X116840Y586740D02*
Y657640D01*
Y586740D02*
X137160Y566420D01*
X242570Y746760D02*
X283210D01*
X208280Y683260D02*
X265430D01*
X283210Y746760D02*
X284700D01*
X283210Y701040D02*
Y745270D01*
X265430Y683260D02*
X283210Y701040D01*
X760730Y726440D02*
Y745490D01*
X744220Y762000D02*
Y791210D01*
Y762000D02*
X760730Y745490D01*
X743048Y742950D02*
X744220Y741778D01*
X591820Y742950D02*
X743048D01*
X744220Y701040D02*
Y741778D01*
X669290Y754380D02*
X693420Y778510D01*
X596900Y754380D02*
X669290D01*
X875030Y162560D02*
X938530D01*
X875030Y111760D02*
X905510D01*
X875030D02*
Y137160D01*
X877187Y215517D02*
Y284097D01*
X877570Y284480D01*
X875030Y213360D02*
X877187Y215517D01*
X817880Y449580D02*
Y504679D01*
X821690Y508489D01*
Y560070D01*
X756920Y476152D02*
Y542290D01*
X725390Y465870D02*
Y502920D01*
X734060Y364490D02*
X759460Y389890D01*
X725390Y465870D02*
X775970Y415290D01*
Y328930D02*
Y415290D01*
X734060Y190500D02*
Y364490D01*
X775970Y328930D02*
X849630Y255270D01*
Y213360D02*
Y255270D01*
X755650Y543560D02*
X756920Y542290D01*
X598170Y543560D02*
X755650D01*
X441960Y699770D02*
X598170Y543560D01*
X441960Y699770D02*
Y768130D01*
X487680Y813850D01*
X350300Y746760D02*
X594140Y502920D01*
X725390D01*
X511810Y307340D02*
Y368300D01*
X775970Y236220D02*
Y237490D01*
Y236220D02*
X849630Y162560D01*
X725390Y368520D02*
Y465870D01*
X817880Y355111D02*
X861060Y311931D01*
X817880Y355111D02*
Y373380D01*
X861060Y298352D02*
Y311931D01*
X902970Y297180D02*
X942782Y257368D01*
Y255712D02*
Y257368D01*
X861060Y298352D02*
X862232Y297180D01*
X902970D01*
X656590Y299720D02*
X725390Y368520D01*
X604520Y177800D02*
X681990Y255270D01*
Y299720D01*
X631190D02*
X656590D01*
X605790D02*
X681990Y375920D01*
X511810Y368300D02*
X519430Y375920D01*
X605790D01*
X265430Y138430D02*
X341630Y62230D01*
X265430Y138430D02*
Y162560D01*
X264160Y163830D02*
X265430Y162560D01*
X264160Y163830D02*
Y191770D01*
X284480Y212090D01*
X326390D01*
X414020Y153670D02*
X433070D01*
X445770Y166370D02*
X488950D01*
X433070Y153670D02*
X445770Y166370D01*
X289560Y279400D02*
X293370Y275590D01*
Y239810D02*
Y275590D01*
X441238Y185968D02*
X631190Y375920D01*
X441238Y180888D02*
Y185968D01*
X439420Y179070D02*
X441238Y180888D01*
X575310Y784860D02*
X576920Y783250D01*
Y774360D02*
Y783250D01*
Y774360D02*
X596900Y754380D01*
X815300Y778550D02*
X861060Y732790D01*
X815300Y778550D02*
Y802640D01*
X660180Y665260D02*
X703580Y708660D01*
X645160Y665260D02*
X660180D01*
X703580Y683260D02*
X726440D01*
X744220Y701040D01*
X549910Y784860D02*
X591820Y742950D01*
X567690Y708660D02*
X703580D01*
X532130Y744220D02*
X567690Y708660D01*
X532130Y744220D02*
Y792480D01*
X600710Y861060D01*
Y784860D02*
X618490Y802640D01*
X512030Y748250D02*
X518160Y754380D01*
X487680Y748250D02*
X512030D01*
X518160Y754380D02*
Y803910D01*
X575310Y861060D01*
X199390Y789940D02*
X242570Y746760D01*
X145000Y844330D02*
X199390Y789940D01*
X249970Y237490D02*
Y265210D01*
X264160Y279400D01*
X60960Y850900D02*
X76420Y866360D01*
X181610D01*
X60960Y821690D02*
Y850900D01*
X63500Y819150D02*
X104140D01*
X60960Y821690D02*
X63500Y819150D01*
X104140D02*
X106680Y816610D01*
Y701040D02*
X119380Y688340D01*
X106680Y701040D02*
Y816610D01*
X119380Y688340D02*
X173990D01*
X199390Y713740D01*
X337820Y566420D02*
X363220Y591820D01*
X66040Y708440D02*
X116840Y657640D01*
X283210Y745270D02*
X284700Y746760D01*
X151130Y626110D02*
X208280Y683260D01*
X29210Y679670D02*
Y772160D01*
Y679670D02*
X66040Y642840D01*
X29210Y772160D02*
X30480Y773430D01*
X148590Y713740D02*
Y750570D01*
X153670Y755650D02*
Y769620D01*
X148590Y750570D02*
X153670Y755650D01*
Y769620D02*
X173990Y789940D01*
X30480Y773430D02*
Y847090D01*
X115350Y931960D01*
X181610D01*
X341630Y895350D02*
X392430Y844550D01*
X262890Y895350D02*
X341630D01*
X210600D02*
X262890D01*
X181610Y866360D02*
X210600Y895350D01*
X181610Y931960D02*
X251680D01*
X262890Y920750D01*
X87630Y844330D02*
X145000D01*
X529590Y153230D02*
X573600Y109220D01*
X529590Y153230D02*
Y179070D01*
X489392Y166812D02*
X491048D01*
X508000Y149860D01*
X488950Y166370D02*
X489392Y166812D01*
X508000Y109220D02*
Y149860D01*
X439420Y73880D02*
Y99060D01*
Y73880D02*
X445990Y67310D01*
X439420Y99060D02*
X464820Y124460D01*
Y153670D01*
X511590Y67310D02*
X523020Y55880D01*
X581660Y177800D02*
X604520D01*
X580390Y179070D02*
X581660Y177800D01*
X610042Y96962D02*
Y121905D01*
X580390Y67310D02*
X610042Y96962D01*
X580390Y151556D02*
X610042Y121905D01*
X511590Y67310D02*
X580390D01*
X914360Y755690D02*
X957580Y712470D01*
X861060Y755690D02*
X914360D01*
X957580Y436880D02*
Y712470D01*
X894080Y373380D02*
X957580Y436880D01*
D17*
X293370Y239810D02*
D03*
X645160Y599660D02*
D03*
X181610Y931960D02*
D03*
X87630Y844330D02*
D03*
X350300Y746760D02*
D03*
X66040Y708440D02*
D03*
X487680Y813850D02*
D03*
X823180Y325120D02*
D03*
X485360Y340360D02*
D03*
X865090Y500380D02*
D03*
X725390Y502920D02*
D03*
X450850Y402370D02*
D03*
X184370Y237490D02*
D03*
X99060Y159800D02*
D03*
X445990Y67310D02*
D03*
X464820Y153670D02*
D03*
X439420Y179070D02*
D03*
X580390D02*
D03*
X554990Y204470D02*
D03*
X573600Y109220D02*
D03*
D18*
X293370Y174210D02*
D03*
X645160Y665260D02*
D03*
X181610Y866360D02*
D03*
X87630Y778730D02*
D03*
X66040Y642840D02*
D03*
X487680Y748250D02*
D03*
X450850Y336770D02*
D03*
X99060Y94200D02*
D03*
D24*
X703580Y708660D02*
D03*
X262890Y920750D02*
D03*
X906780Y894080D02*
D03*
X335280Y172720D02*
D03*
X264160Y279400D02*
D03*
D25*
X703580Y683260D02*
D03*
X262890Y895350D02*
D03*
X906780Y919480D02*
D03*
X335280Y147320D02*
D03*
D26*
X289560Y279400D02*
D03*
D30*
X284700Y746760D02*
D03*
X888780Y325120D02*
D03*
X550960Y340360D02*
D03*
X930690Y500380D02*
D03*
X790990Y502920D02*
D03*
X249970Y237490D02*
D03*
X511590Y67310D02*
D03*
X414020Y153670D02*
D03*
X529590Y179070D02*
D03*
X508000Y109220D02*
D03*
D37*
X883920Y942340D02*
X906780Y919480D01*
X768267Y942340D02*
X883920D01*
X746760Y920833D02*
X768267Y942340D01*
X773513Y919480D02*
X776013Y916980D01*
X776573D01*
X820582Y872971D01*
X772160Y919480D02*
X773513D01*
X820582Y869828D02*
Y872971D01*
Y869828D02*
X821730Y868680D01*
X746760Y919480D02*
Y920833D01*
D38*
X30480Y33020D02*
D03*
X957580D02*
D03*
X962660Y960120D02*
D03*
X24130Y958850D02*
D03*
D39*
X240030Y198120D02*
D03*
X626110Y861060D02*
D03*
X224790Y789940D02*
D03*
X894080Y449580D02*
D03*
X681990Y375920D02*
D03*
D40*
X214630Y198120D02*
D03*
X189230D02*
D03*
X163830D02*
D03*
X240030Y121920D02*
D03*
X214630D02*
D03*
X189230D02*
D03*
X163830D02*
D03*
X721360Y919480D02*
D03*
X746760D02*
D03*
X772160D02*
D03*
X600710Y861060D02*
D03*
X575310D02*
D03*
X549910D02*
D03*
X626110Y784860D02*
D03*
X600710D02*
D03*
X575310D02*
D03*
X549910D02*
D03*
X199390Y789940D02*
D03*
X173990D02*
D03*
X148590D02*
D03*
X224790Y713740D02*
D03*
X199390D02*
D03*
X173990D02*
D03*
X148590D02*
D03*
X868680Y449580D02*
D03*
X843280D02*
D03*
X817880D02*
D03*
X894080Y373380D02*
D03*
X868680D02*
D03*
X843280D02*
D03*
X817880D02*
D03*
X656590Y375920D02*
D03*
X631190D02*
D03*
X605790D02*
D03*
X681990Y299720D02*
D03*
X656590D02*
D03*
X631190D02*
D03*
X605790D02*
D03*
D41*
X861060Y732790D02*
D03*
Y755690D02*
D03*
X186690Y373380D02*
D03*
X161290D02*
D03*
X212090D02*
D03*
X237490D02*
D03*
X798830Y868680D02*
D03*
X821730D02*
D03*
D42*
X861060Y778590D02*
D03*
X135890Y373380D02*
D03*
D43*
X849630Y137160D02*
D03*
X875030D02*
D03*
X849630Y111760D02*
D03*
X875030Y162560D02*
D03*
X849630D02*
D03*
X875030Y187960D02*
D03*
Y213360D02*
D03*
X849630Y187960D02*
D03*
Y213360D02*
D03*
D44*
X875030Y111760D02*
D03*
D45*
X844630Y868680D02*
D03*
D46*
X417430Y844550D02*
D03*
X266700Y617220D02*
D03*
X363220Y591820D02*
D03*
X334010Y506530D02*
D03*
X251460Y508000D02*
D03*
X166370Y506730D02*
D03*
X81280Y508000D02*
D03*
D47*
X392430Y844550D02*
D03*
D48*
X266700Y592220D02*
D03*
X363220Y616820D02*
D03*
X334010Y481530D02*
D03*
X251460Y483000D02*
D03*
X166370Y481730D02*
D03*
X81280Y483000D02*
D03*
D49*
X151130Y651510D02*
D03*
D50*
Y626110D02*
D03*
Y600710D02*
D03*
D51*
X692150Y472440D02*
D03*
X816610Y670560D02*
D03*
X772160Y788670D02*
D03*
X760730Y726440D02*
D03*
X744220Y791210D02*
D03*
X693420Y778510D02*
D03*
X938530Y162560D02*
D03*
X877570Y284480D02*
D03*
X755650Y474980D02*
D03*
X690880Y427990D02*
D03*
X759460Y389890D02*
D03*
X734060Y190500D02*
D03*
X511810Y307340D02*
D03*
X775970Y237490D02*
D03*
X341630Y62230D02*
D03*
X326390Y212090D02*
D03*
X618490Y911860D02*
D03*
M02*
