G04*
G04 #@! TF.GenerationSoftware,Altium Limited,Altium Designer,23.0.1 (38)*
G04*
G04 Layer_Color=255*
%FSLAX44Y44*%
%MOMM*%
G71*
G04*
G04 #@! TF.SameCoordinates,40E8D280-AE9E-4637-9913-6930DAB067FB*
G04*
G04*
G04 #@! TF.FilePolarity,Positive*
G04*
G01*
G75*
%ADD17C,1.1500*%
%ADD18R,1.1500X1.1500*%
%ADD24C,1.5700*%
%ADD25R,1.5700X1.5700*%
%ADD26R,1.5700X1.5700*%
%ADD30R,1.1500X1.1500*%
%ADD38C,1.0000*%
%ADD39R,1.5000X1.5000*%
%ADD40C,1.5000*%
%ADD41C,1.6000*%
%ADD42R,1.6000X1.6000*%
%ADD43C,1.6500*%
%ADD44R,1.6500X1.6500*%
%ADD45R,1.6000X1.6000*%
%ADD46C,1.3000*%
%ADD47R,1.3000X1.3000*%
%ADD48R,1.3000X1.3000*%
%ADD49R,1.5500X1.5500*%
%ADD50C,1.5500*%
D17*
X293370Y239810D02*
D03*
X645160Y599660D02*
D03*
X181610Y931960D02*
D03*
X87630Y844330D02*
D03*
X350300Y746760D02*
D03*
X66040Y708440D02*
D03*
X487680Y813850D02*
D03*
X823180Y325120D02*
D03*
X485360Y340360D02*
D03*
X865090Y500380D02*
D03*
X725390Y502920D02*
D03*
X450850Y402370D02*
D03*
X184370Y237490D02*
D03*
X99060Y159800D02*
D03*
X445990Y67310D02*
D03*
X464820Y153670D02*
D03*
X439420Y179070D02*
D03*
X580390D02*
D03*
X554990Y204470D02*
D03*
X573600Y109220D02*
D03*
D18*
X293370Y174210D02*
D03*
X645160Y665260D02*
D03*
X181610Y866360D02*
D03*
X87630Y778730D02*
D03*
X66040Y642840D02*
D03*
X487680Y748250D02*
D03*
X450850Y336770D02*
D03*
X99060Y94200D02*
D03*
D24*
X703580Y708660D02*
D03*
X262890Y920750D02*
D03*
X906780Y894080D02*
D03*
X335280Y172720D02*
D03*
X264160Y279400D02*
D03*
D25*
X703580Y683260D02*
D03*
X262890Y895350D02*
D03*
X906780Y919480D02*
D03*
X335280Y147320D02*
D03*
D26*
X289560Y279400D02*
D03*
D30*
X284700Y746760D02*
D03*
X888780Y325120D02*
D03*
X550960Y340360D02*
D03*
X930690Y500380D02*
D03*
X790990Y502920D02*
D03*
X249970Y237490D02*
D03*
X511590Y67310D02*
D03*
X414020Y153670D02*
D03*
X529590Y179070D02*
D03*
X508000Y109220D02*
D03*
D38*
X30480Y33020D02*
D03*
X957580D02*
D03*
X962660Y960120D02*
D03*
X24130Y958850D02*
D03*
D39*
X240030Y198120D02*
D03*
X626110Y861060D02*
D03*
X224790Y789940D02*
D03*
X894080Y449580D02*
D03*
X681990Y375920D02*
D03*
D40*
X214630Y198120D02*
D03*
X189230D02*
D03*
X163830D02*
D03*
X240030Y121920D02*
D03*
X214630D02*
D03*
X189230D02*
D03*
X163830D02*
D03*
X721360Y919480D02*
D03*
X746760D02*
D03*
X772160D02*
D03*
X600710Y861060D02*
D03*
X575310D02*
D03*
X549910D02*
D03*
X626110Y784860D02*
D03*
X600710D02*
D03*
X575310D02*
D03*
X549910D02*
D03*
X199390Y789940D02*
D03*
X173990D02*
D03*
X148590D02*
D03*
X224790Y713740D02*
D03*
X199390D02*
D03*
X173990D02*
D03*
X148590D02*
D03*
X868680Y449580D02*
D03*
X843280D02*
D03*
X817880D02*
D03*
X894080Y373380D02*
D03*
X868680D02*
D03*
X843280D02*
D03*
X817880D02*
D03*
X656590Y375920D02*
D03*
X631190D02*
D03*
X605790D02*
D03*
X681990Y299720D02*
D03*
X656590D02*
D03*
X631190D02*
D03*
X605790D02*
D03*
D41*
X861060Y732790D02*
D03*
Y755690D02*
D03*
X186690Y373380D02*
D03*
X161290D02*
D03*
X212090D02*
D03*
X237490D02*
D03*
X798830Y868680D02*
D03*
X821730D02*
D03*
D42*
X861060Y778590D02*
D03*
X135890Y373380D02*
D03*
D43*
X849630Y137160D02*
D03*
X875030D02*
D03*
X849630Y111760D02*
D03*
X875030Y162560D02*
D03*
X849630D02*
D03*
X875030Y187960D02*
D03*
Y213360D02*
D03*
X849630Y187960D02*
D03*
Y213360D02*
D03*
D44*
X875030Y111760D02*
D03*
D45*
X844630Y868680D02*
D03*
D46*
X417430Y844550D02*
D03*
X266700Y617220D02*
D03*
X363220Y591820D02*
D03*
X334010Y506530D02*
D03*
X251460Y508000D02*
D03*
X166370Y506730D02*
D03*
X81280Y508000D02*
D03*
D47*
X392430Y844550D02*
D03*
D48*
X266700Y592220D02*
D03*
X363220Y616820D02*
D03*
X334010Y481530D02*
D03*
X251460Y483000D02*
D03*
X166370Y481730D02*
D03*
X81280Y483000D02*
D03*
D49*
X151130Y651510D02*
D03*
D50*
Y626110D02*
D03*
Y600710D02*
D03*
M02*
