G04*
G04 #@! TF.GenerationSoftware,Altium Limited,Altium Designer,23.0.1 (38)*
G04*
G04 Layer_Color=32768*
%FSLAX44Y44*%
%MOMM*%
G71*
G04*
G04 #@! TF.SameCoordinates,40E8D280-AE9E-4637-9913-6930DAB067FB*
G04*
G04*
G04 #@! TF.FilePolarity,Positive*
G04*
G01*
G75*
%ADD52C,0.1000*%
%ADD53C,0.0500*%
D52*
X201930Y155020D02*
Y165020D01*
X196930Y160020D02*
X206930D01*
X861060Y750690D02*
Y760690D01*
X856060Y755690D02*
X866060D01*
X588010Y817960D02*
Y827960D01*
X583010Y822960D02*
X593010D01*
X816730Y868680D02*
X826730D01*
X821730Y863680D02*
Y873680D01*
X186690Y746840D02*
Y756840D01*
X181690Y751840D02*
X191690D01*
X404930Y839550D02*
Y849550D01*
X399930Y844550D02*
X409930D01*
X261700Y604720D02*
X271700D01*
X266700Y599720D02*
Y609720D01*
X151130Y621110D02*
Y631110D01*
X146130Y626110D02*
X156130D01*
X358220Y604320D02*
X368220D01*
X363220Y599320D02*
Y609320D01*
X329010Y494030D02*
X339010D01*
X334010Y489030D02*
Y499030D01*
X246460Y495500D02*
X256460D01*
X251460Y490500D02*
Y500500D01*
X161370Y494230D02*
X171370D01*
X166370Y489230D02*
Y499230D01*
X76280Y495500D02*
X86280D01*
X81280Y490500D02*
Y500500D01*
X855980Y406480D02*
Y416480D01*
X850980Y411480D02*
X860980D01*
X643890Y332820D02*
Y342820D01*
X638890Y337820D02*
X648890D01*
D53*
X148430Y208520D02*
X255430D01*
X148430Y111520D02*
X255430D01*
Y208520D01*
X148430Y111520D02*
Y208520D01*
X843660Y714190D02*
X878660D01*
X843660Y797190D02*
X878660D01*
Y714190D02*
Y797190D01*
X843660Y714190D02*
Y797190D01*
X181690Y373380D02*
X191690D01*
X186690Y368380D02*
Y378380D01*
X119690Y388830D02*
X253690D01*
Y357930D02*
Y388830D01*
X119690Y357930D02*
X253690D01*
X119690D02*
Y388830D01*
X834180Y95560D02*
Y229560D01*
X890480D01*
Y95560D02*
Y229560D01*
X834180Y95560D02*
X890480D01*
X857330Y162560D02*
X867330D01*
X862330Y157560D02*
Y167560D01*
X534510Y871460D02*
X641510D01*
X534510Y774460D02*
X641510D01*
Y871460D01*
X534510Y774460D02*
Y871460D01*
X780230Y851080D02*
Y886080D01*
X863230Y851080D02*
Y886080D01*
X780230Y851080D02*
X863230D01*
X780230Y886080D02*
X863230D01*
X133190Y800340D02*
X240190D01*
X133190Y703340D02*
X240190D01*
Y800340D01*
X133190Y703340D02*
Y800340D01*
X372430Y812050D02*
Y877050D01*
X437430D01*
X372430Y812050D02*
X437430D01*
Y877050D01*
X234200Y572220D02*
X299200D01*
X234200D02*
Y637220D01*
X299200Y572220D02*
Y637220D01*
X234200D02*
X299200D01*
X164580Y587010D02*
Y665210D01*
X137680D02*
X164580D01*
X137680Y587010D02*
X164580D01*
X137680D02*
Y665210D01*
X330720Y636820D02*
X395720D01*
Y571820D02*
Y636820D01*
X330720Y571820D02*
Y636820D01*
Y571820D02*
X395720D01*
X301510Y461530D02*
X366510D01*
X301510D02*
Y526530D01*
X366510Y461530D02*
Y526530D01*
X301510D02*
X366510D01*
X218960Y463000D02*
X283960D01*
X218960D02*
Y528000D01*
X283960Y463000D02*
Y528000D01*
X218960D02*
X283960D01*
X133870Y461730D02*
X198870D01*
X133870D02*
Y526730D01*
X198870Y461730D02*
Y526730D01*
X133870D02*
X198870D01*
X48780Y463000D02*
X113780D01*
X48780D02*
Y528000D01*
X113780Y463000D02*
Y528000D01*
X48780D02*
X113780D01*
X802480Y459980D02*
X909480D01*
X802480Y362980D02*
X909480D01*
Y459980D01*
X802480Y362980D02*
Y459980D01*
X590390Y386320D02*
X697390D01*
X590390Y289320D02*
X697390D01*
Y386320D01*
X590390Y289320D02*
Y386320D01*
M02*
