G04*
G04 #@! TF.GenerationSoftware,Altium Limited,Altium Designer,23.0.1 (38)*
G04*
G04 Layer_Color=65535*
%FSLAX44Y44*%
%MOMM*%
G71*
G04*
G04 #@! TF.SameCoordinates,40E8D280-AE9E-4637-9913-6930DAB067FB*
G04*
G04*
G04 #@! TF.FilePolarity,Positive*
G04*
G01*
G75*
%ADD10C,0.2000*%
%ADD11C,0.2500*%
%ADD12C,0.6000*%
%ADD13C,0.3000*%
%ADD14C,0.2540*%
%ADD15C,0.1524*%
%ADD16C,0.1500*%
D10*
X252930Y166370D02*
G03*
X252930Y153670I0J-6350D01*
G01*
X639010Y829310D02*
G03*
X639010Y816610I0J-6350D01*
G01*
X237690Y758190D02*
G03*
X237690Y745490I0J-6350D01*
G01*
X436430Y844550D02*
G03*
X436430Y844550I-31500J0D01*
G01*
X298200Y604720D02*
G03*
X298200Y604720I-31500J0D01*
G01*
X394720Y604320D02*
G03*
X394720Y604320I-31500J0D01*
G01*
X365510Y494030D02*
G03*
X365510Y494030I-31500J0D01*
G01*
X282960Y495500D02*
G03*
X282960Y495500I-31500J0D01*
G01*
X197870Y494230D02*
G03*
X197870Y494230I-31500J0D01*
G01*
X112780Y495500D02*
G03*
X112780Y495500I-31500J0D01*
G01*
X906980Y417830D02*
G03*
X906980Y405130I0J-6350D01*
G01*
X694890Y344170D02*
G03*
X694890Y331470I0J-6350D01*
G01*
D11*
X254280Y198120D02*
G03*
X254280Y198120I-1250J0D01*
G01*
X862310Y801190D02*
G03*
X862310Y801190I-1250J0D01*
G01*
X704830Y664710D02*
G03*
X704830Y664710I-1250J0D01*
G01*
X264140Y876800D02*
G03*
X264140Y876800I-1250J0D01*
G01*
X908030Y938030D02*
G03*
X908030Y938030I-1250J0D01*
G01*
X336530Y128770D02*
G03*
X336530Y128770I-1250J0D01*
G01*
X309360Y279400D02*
G03*
X309360Y279400I-1250J0D01*
G01*
X640360Y861060D02*
G03*
X640360Y861060I-1250J0D01*
G01*
X868480Y868680D02*
G03*
X868480Y868680I-1250J0D01*
G01*
X239040Y789940D02*
G03*
X239040Y789940I-1250J0D01*
G01*
X152380Y670710D02*
G03*
X152380Y670710I-1250J0D01*
G01*
X908330Y449580D02*
G03*
X908330Y449580I-1250J0D01*
G01*
X696240Y375920D02*
G03*
X696240Y375920I-1250J0D01*
G01*
D12*
X245930Y176520D02*
G03*
X245930Y176520I-3000J0D01*
G01*
X632010Y839460D02*
G03*
X632010Y839460I-3000J0D01*
G01*
X230690Y768340D02*
G03*
X230690Y768340I-3000J0D01*
G01*
X899980Y427980D02*
G03*
X899980Y427980I-3000J0D01*
G01*
X687890Y354320D02*
G03*
X687890Y354320I-3000J0D01*
G01*
D13*
X293370Y225010D02*
Y230060D01*
Y183960D02*
Y189010D01*
X283370D02*
X303370D01*
Y225010D01*
X283370D02*
X303370D01*
X283370Y189010D02*
Y225010D01*
X150930Y186520D02*
X252930D01*
X150930Y133520D02*
X252930D01*
Y166370D02*
Y186520D01*
Y133520D02*
Y153670D01*
X150930Y133520D02*
Y186520D01*
X708660Y906780D02*
X784860D01*
Y932180D01*
X708660D02*
X784860D01*
X708660Y906780D02*
Y932180D01*
X873060Y716690D02*
Y794690D01*
X876160Y716690D02*
Y794690D01*
X846160Y716690D02*
Y794690D01*
Y716690D02*
X876160D01*
X846160Y794690D02*
X876160D01*
X690230Y668660D02*
X716930D01*
Y723260D01*
X690230D02*
X716930D01*
X690230Y668660D02*
Y723260D01*
X249540Y880750D02*
X276240D01*
Y935350D01*
X249540D02*
X276240D01*
X249540Y880750D02*
Y935350D01*
X893430Y934080D02*
X920130D01*
X893430Y879480D02*
Y934080D01*
Y879480D02*
X920130D01*
Y934080D01*
X321930Y132720D02*
X348630D01*
Y187320D01*
X321930D02*
X348630D01*
X321930Y132720D02*
Y187320D01*
X304160Y266050D02*
Y292750D01*
X249560D02*
X304160D01*
X249560Y266050D02*
Y292750D01*
Y266050D02*
X304160D01*
X251690Y359930D02*
Y386830D01*
X121690D02*
X251690D01*
X121690Y359930D02*
Y386830D01*
Y359930D02*
X251690D01*
X836180Y97560D02*
X888480D01*
Y227560D01*
X836180Y97560D02*
Y227560D01*
X888480D01*
X537010Y849460D02*
X639010D01*
X537010Y796460D02*
X639010D01*
Y829310D02*
Y849460D01*
Y796460D02*
Y816610D01*
X537010Y796460D02*
Y849460D01*
X645160Y609410D02*
Y614460D01*
Y650460D02*
Y655510D01*
X635160Y650460D02*
X655160D01*
X635160Y614460D02*
Y650460D01*
Y614460D02*
X655160D01*
Y650460D01*
X181610Y917160D02*
Y922210D01*
Y876110D02*
Y881160D01*
X171610D02*
X191610D01*
Y917160D01*
X171610D02*
X191610D01*
X171610Y881160D02*
Y917160D01*
X782730Y856680D02*
X860730D01*
X782730Y853580D02*
X860730D01*
X782730Y883580D02*
X860730D01*
X782730Y853580D02*
Y883580D01*
X860730Y853580D02*
Y883580D01*
X87630Y829530D02*
Y834580D01*
Y788480D02*
Y793530D01*
X77630D02*
X97630D01*
Y829530D01*
X77630D02*
X97630D01*
X77630Y793530D02*
Y829530D01*
X135690Y778340D02*
X237690D01*
X135690Y725340D02*
X237690D01*
Y758190D02*
Y778340D01*
Y725340D02*
Y745490D01*
X135690Y725340D02*
Y778340D01*
X335500Y746760D02*
X340550D01*
X294450D02*
X299500D01*
Y736760D02*
Y756760D01*
Y736760D02*
X335500D01*
Y756760D01*
X299500D02*
X335500D01*
X66040Y693640D02*
Y698690D01*
Y652590D02*
Y657640D01*
X56040D02*
X76040D01*
Y693640D01*
X56040D02*
X76040D01*
X56040Y657640D02*
Y693640D01*
X487680Y799050D02*
Y804100D01*
Y758000D02*
Y763050D01*
X477680D02*
X497680D01*
Y799050D01*
X477680D02*
X497680D01*
X477680Y763050D02*
Y799050D01*
X163580Y588010D02*
Y664210D01*
X138680Y588010D02*
Y664210D01*
X163580D01*
X138680Y588010D02*
X163580D01*
X832930Y325120D02*
X837980D01*
X873980D02*
X879030D01*
X873980Y315120D02*
Y335120D01*
X837980D02*
X873980D01*
X837980Y315120D02*
Y335120D01*
Y315120D02*
X873980D01*
X495110Y340360D02*
X500160D01*
X536160D02*
X541210D01*
X536160Y330360D02*
Y350360D01*
X500160D02*
X536160D01*
X500160Y330360D02*
Y350360D01*
Y330360D02*
X536160D01*
X804980Y437980D02*
X906980D01*
X804980Y384980D02*
X906980D01*
Y417830D02*
Y437980D01*
Y384980D02*
Y405130D01*
X804980Y384980D02*
Y437980D01*
X592890Y364320D02*
X694890D01*
X592890Y311320D02*
X694890D01*
Y344170D02*
Y364320D01*
Y311320D02*
Y331470D01*
X592890Y311320D02*
Y364320D01*
X874840Y500380D02*
X879890D01*
X915890D02*
X920940D01*
X915890Y490380D02*
Y510380D01*
X879890D02*
X915890D01*
X879890Y490380D02*
Y510380D01*
Y490380D02*
X915890D01*
X735140Y502920D02*
X740190D01*
X776190D02*
X781240D01*
X776190Y492920D02*
Y512920D01*
X740190D02*
X776190D01*
X740190Y492920D02*
Y512920D01*
Y492920D02*
X776190D01*
X450850Y387570D02*
Y392620D01*
Y346520D02*
Y351570D01*
X440850D02*
X460850D01*
Y387570D01*
X440850D02*
X460850D01*
X440850Y351570D02*
Y387570D01*
X194120Y237490D02*
X199170D01*
X235170D02*
X240220D01*
X235170Y227490D02*
Y247490D01*
X199170D02*
X235170D01*
X199170Y227490D02*
Y247490D01*
Y227490D02*
X235170D01*
X99060Y145000D02*
Y150050D01*
Y103950D02*
Y109000D01*
X89060D02*
X109060D01*
Y145000D01*
X89060D02*
X109060D01*
X89060Y109000D02*
Y145000D01*
X455740Y67310D02*
X460790D01*
X496790D02*
X501840D01*
X496790Y57310D02*
Y77310D01*
X460790D02*
X496790D01*
X460790Y57310D02*
Y77310D01*
Y57310D02*
X496790D01*
X405170Y163170D02*
Y189520D01*
Y117120D02*
Y144170D01*
Y117120D02*
X473670D01*
Y163170D02*
Y189520D01*
Y117120D02*
Y144170D01*
X405170Y189520D02*
X473670D01*
X520740Y188570D02*
Y214920D01*
Y142520D02*
Y169570D01*
Y142520D02*
X589240D01*
Y188570D02*
Y214920D01*
Y142520D02*
Y169570D01*
X520740Y214920D02*
X589240D01*
X558800Y109220D02*
X563850D01*
X517750D02*
X522800D01*
Y99220D02*
Y119220D01*
Y99220D02*
X558800D01*
Y119220D01*
X522800D02*
X558800D01*
D14*
X316234Y270513D02*
Y285748D01*
X323852D01*
X326391Y283208D01*
Y278130D01*
X323852Y275591D01*
X316234D01*
X321312D02*
X326391Y270513D01*
X331469Y283208D02*
X334008Y285748D01*
X339087D01*
X341626Y283208D01*
Y280669D01*
X339087Y278130D01*
X336548D01*
X339087D01*
X341626Y275591D01*
Y273052D01*
X339087Y270513D01*
X334008D01*
X331469Y273052D01*
X150622Y231643D02*
Y216408D01*
X158239D01*
X160779Y218947D01*
Y221486D01*
X158239Y224025D01*
X150622D01*
X158239D01*
X160779Y226565D01*
Y229104D01*
X158239Y231643D01*
X150622D01*
X165857Y216408D02*
X170935D01*
X168396D01*
Y231643D01*
X165857Y229104D01*
X709676Y941324D02*
Y956559D01*
X717293D01*
X719833Y954020D01*
Y948941D01*
X717293Y946402D01*
X709676D01*
X724911Y956559D02*
Y941324D01*
X729989Y946402D01*
X735068Y941324D01*
Y956559D01*
X846074Y826511D02*
X856231D01*
X851152D01*
Y811276D01*
X861309D02*
X866387D01*
X863848D01*
Y826511D01*
X861309Y823972D01*
X690880Y748025D02*
Y732790D01*
Y740407D01*
X701037D01*
Y748025D01*
Y732790D01*
X706115D02*
Y748025D01*
X713733D01*
X716272Y745486D01*
Y740407D01*
X713733Y737868D01*
X706115D01*
X711193D02*
X716272Y732790D01*
X728968D02*
Y748025D01*
X721350Y740407D01*
X731507D01*
X250190Y960115D02*
Y944880D01*
Y952497D01*
X260347D01*
Y960115D01*
Y944880D01*
X265425D02*
Y960115D01*
X273043D01*
X275582Y957576D01*
Y952497D01*
X273043Y949958D01*
X265425D01*
X270503D02*
X275582Y944880D01*
X280660Y957576D02*
X283199Y960115D01*
X288278D01*
X290817Y957576D01*
Y955037D01*
X288278Y952497D01*
X285739D01*
X288278D01*
X290817Y949958D01*
Y947419D01*
X288278Y944880D01*
X283199D01*
X280660Y947419D01*
X893572Y963417D02*
Y948182D01*
Y955799D01*
X903729D01*
Y963417D01*
Y948182D01*
X908807Y960878D02*
X911346Y963417D01*
X916425D01*
X918964Y960878D01*
Y950721D01*
X916425Y948182D01*
X911346D01*
X908807Y950721D01*
Y960878D01*
X322580Y212085D02*
Y196850D01*
Y204468D01*
X332737D01*
Y212085D01*
Y196850D01*
X337815D02*
Y212085D01*
X345433D01*
X347972Y209546D01*
Y204468D01*
X345433Y201928D01*
X337815D01*
X342893D02*
X347972Y196850D01*
X363207D02*
X353050D01*
X363207Y207007D01*
Y209546D01*
X360668Y212085D01*
X355589D01*
X353050Y209546D01*
X250190Y317495D02*
Y302260D01*
Y309877D01*
X260347D01*
Y317495D01*
Y302260D01*
X265425D02*
Y317495D01*
X273043D01*
X275582Y314956D01*
Y309877D01*
X273043Y307338D01*
X265425D01*
X270503D02*
X275582Y302260D01*
X280660D02*
X285739D01*
X283199D01*
Y317495D01*
X280660Y314956D01*
X121920Y409704D02*
X124459D01*
X126998Y412243D01*
Y424939D01*
X147312Y414782D02*
X137155D01*
X147312Y424939D01*
Y427478D01*
X144773Y430017D01*
X139694D01*
X137155Y427478D01*
X836422Y255018D02*
X838961D01*
X841500Y257557D01*
Y270253D01*
X851657Y260096D02*
X856735D01*
X854196D01*
Y275331D01*
X851657Y272792D01*
X536702Y894583D02*
Y879348D01*
X544319D01*
X546859Y881887D01*
Y884426D01*
X544319Y886965D01*
X536702D01*
X544319D01*
X546859Y889505D01*
Y892044D01*
X544319Y894583D01*
X536702D01*
X562094D02*
X551937D01*
Y886965D01*
X557015Y889505D01*
X559555D01*
X562094Y886965D01*
Y881887D01*
X559555Y879348D01*
X554476D01*
X551937Y881887D01*
X635762Y680720D02*
Y695955D01*
X643380D01*
X645919Y693416D01*
Y688337D01*
X643380Y685798D01*
X635762D01*
X640840D02*
X645919Y680720D01*
X650997D02*
X656075D01*
X653536D01*
Y695955D01*
X650997Y693416D01*
X673850Y695955D02*
X668771Y693416D01*
X663693Y688337D01*
Y683259D01*
X666232Y680720D01*
X671311D01*
X673850Y683259D01*
Y685798D01*
X671311Y688337D01*
X663693D01*
X172212Y947420D02*
Y962655D01*
X179830D01*
X182369Y960116D01*
Y955038D01*
X179830Y952498D01*
X172212D01*
X177290D02*
X182369Y947420D01*
X187447D02*
X192525D01*
X189986D01*
Y962655D01*
X187447Y960116D01*
X207761Y947420D02*
Y962655D01*
X200143Y955038D01*
X210300D01*
X782574Y909061D02*
X792731D01*
X787652D01*
Y893826D01*
X807966D02*
X797809D01*
X807966Y903983D01*
Y906522D01*
X805427Y909061D01*
X800348D01*
X797809Y906522D01*
X78232Y859790D02*
Y875025D01*
X85850D01*
X88389Y872486D01*
Y867408D01*
X85850Y864868D01*
X78232D01*
X83310D02*
X88389Y859790D01*
X93467D02*
X98545D01*
X96006D01*
Y875025D01*
X93467Y872486D01*
X116320Y859790D02*
X106163D01*
X116320Y869947D01*
Y872486D01*
X113780Y875025D01*
X108702D01*
X106163Y872486D01*
X135382Y823463D02*
Y808228D01*
X142999D01*
X145539Y810767D01*
Y813306D01*
X142999Y815845D01*
X135382D01*
X142999D01*
X145539Y818385D01*
Y820924D01*
X142999Y823463D01*
X135382D01*
X158235Y808228D02*
Y823463D01*
X150617Y815845D01*
X160774D01*
X279400Y766318D02*
Y781553D01*
X287017D01*
X289557Y779014D01*
Y773935D01*
X287017Y771396D01*
X279400D01*
X284478D02*
X289557Y766318D01*
X294635D02*
X299713D01*
X297174D01*
Y781553D01*
X294635Y779014D01*
X307331Y766318D02*
X312409D01*
X309870D01*
Y781553D01*
X307331Y779014D01*
X369059Y897632D02*
X366520Y900171D01*
X361441D01*
X358902Y897632D01*
Y887475D01*
X361441Y884936D01*
X366520D01*
X369059Y887475D01*
X374137Y900171D02*
X384294D01*
Y897632D01*
X374137Y887475D01*
Y884936D01*
X56642Y723900D02*
Y739135D01*
X64260D01*
X66799Y736596D01*
Y731517D01*
X64260Y728978D01*
X56642D01*
X61720D02*
X66799Y723900D01*
X71877D02*
X76955D01*
X74416D01*
Y739135D01*
X71877Y736596D01*
X84573D02*
X87112Y739135D01*
X92191D01*
X94730Y736596D01*
Y734057D01*
X92191Y731517D01*
X89651D01*
X92191D01*
X94730Y728978D01*
Y726439D01*
X92191Y723900D01*
X87112D01*
X84573Y726439D01*
X478282Y829310D02*
Y844545D01*
X485900D01*
X488439Y842006D01*
Y836927D01*
X485900Y834388D01*
X478282D01*
X483360D02*
X488439Y829310D01*
X493517D02*
X498595D01*
X496056D01*
Y844545D01*
X493517Y842006D01*
X516370Y844545D02*
X506213D01*
Y836927D01*
X511291Y839467D01*
X513830D01*
X516370Y836927D01*
Y831849D01*
X513830Y829310D01*
X508752D01*
X506213Y831849D01*
X246631Y657856D02*
X244091Y660395D01*
X239013D01*
X236474Y657856D01*
Y647699D01*
X239013Y645160D01*
X244091D01*
X246631Y647699D01*
X261866Y660395D02*
X251709D01*
Y652777D01*
X256787Y655317D01*
X259327D01*
X261866Y652777D01*
Y647699D01*
X259327Y645160D01*
X254248D01*
X251709Y647699D01*
X150111Y695955D02*
X145032D01*
X147571D01*
Y683259D01*
X145032Y680720D01*
X142493D01*
X139954Y683259D01*
X155189Y693416D02*
X157728Y695955D01*
X162807D01*
X165346Y693416D01*
Y690877D01*
X162807Y688337D01*
X160267D01*
X162807D01*
X165346Y685798D01*
Y683259D01*
X162807Y680720D01*
X157728D01*
X155189Y683259D01*
X343151Y673096D02*
X340611Y675635D01*
X335533D01*
X332994Y673096D01*
Y662939D01*
X335533Y660400D01*
X340611D01*
X343151Y662939D01*
X358386Y675635D02*
X353307Y673096D01*
X348229Y668018D01*
Y662939D01*
X350768Y660400D01*
X355847D01*
X358386Y662939D01*
Y665478D01*
X355847Y668018D01*
X348229D01*
X313941Y547112D02*
X311402Y549651D01*
X306323D01*
X303784Y547112D01*
Y536955D01*
X306323Y534416D01*
X311402D01*
X313941Y536955D01*
X319019Y534416D02*
X324097D01*
X321558D01*
Y549651D01*
X319019Y547112D01*
X231391Y548636D02*
X228852Y551175D01*
X223773D01*
X221234Y548636D01*
Y538479D01*
X223773Y535940D01*
X228852D01*
X231391Y538479D01*
X246626Y535940D02*
X236469D01*
X246626Y546097D01*
Y548636D01*
X244087Y551175D01*
X239008D01*
X236469Y548636D01*
X146301Y547366D02*
X143762Y549905D01*
X138683D01*
X136144Y547366D01*
Y537209D01*
X138683Y534670D01*
X143762D01*
X146301Y537209D01*
X151379Y547366D02*
X153918Y549905D01*
X158997D01*
X161536Y547366D01*
Y544827D01*
X158997Y542287D01*
X156457D01*
X158997D01*
X161536Y539748D01*
Y537209D01*
X158997Y534670D01*
X153918D01*
X151379Y537209D01*
X61211Y548636D02*
X58671Y551175D01*
X53593D01*
X51054Y548636D01*
Y538479D01*
X53593Y535940D01*
X58671D01*
X61211Y538479D01*
X73907Y535940D02*
Y551175D01*
X66289Y543558D01*
X76446D01*
X817880Y344678D02*
Y359913D01*
X825498D01*
X828037Y357374D01*
Y352295D01*
X825498Y349756D01*
X817880D01*
X822958D02*
X828037Y344678D01*
X833115D02*
X838193D01*
X835654D01*
Y359913D01*
X833115Y357374D01*
X845811D02*
X848350Y359913D01*
X853428D01*
X855968Y357374D01*
Y347217D01*
X853428Y344678D01*
X848350D01*
X845811Y347217D01*
Y357374D01*
X480060Y359918D02*
Y375153D01*
X487677D01*
X490217Y372614D01*
Y367536D01*
X487677Y364996D01*
X480060D01*
X485138D02*
X490217Y359918D01*
X495295Y375153D02*
X505452D01*
Y372614D01*
X495295Y362457D01*
Y359918D01*
X804672Y483103D02*
Y467868D01*
X812290D01*
X814829Y470407D01*
Y472946D01*
X812290Y475485D01*
X804672D01*
X812290D01*
X814829Y478025D01*
Y480564D01*
X812290Y483103D01*
X804672D01*
X819907Y480564D02*
X822446Y483103D01*
X827525D01*
X830064Y480564D01*
Y478025D01*
X827525Y475485D01*
X824985D01*
X827525D01*
X830064Y472946D01*
Y470407D01*
X827525Y467868D01*
X822446D01*
X819907Y470407D01*
X592582Y409443D02*
Y394208D01*
X600200D01*
X602739Y396747D01*
Y399286D01*
X600200Y401825D01*
X592582D01*
X600200D01*
X602739Y404365D01*
Y406904D01*
X600200Y409443D01*
X592582D01*
X617974Y394208D02*
X607817D01*
X617974Y404365D01*
Y406904D01*
X615435Y409443D01*
X610356D01*
X607817Y406904D01*
X859790Y519938D02*
Y535173D01*
X867408D01*
X869947Y532634D01*
Y527556D01*
X867408Y525016D01*
X859790D01*
X864868D02*
X869947Y519938D01*
X875025Y522477D02*
X877564Y519938D01*
X882643D01*
X885182Y522477D01*
Y532634D01*
X882643Y535173D01*
X877564D01*
X875025Y532634D01*
Y530095D01*
X877564Y527556D01*
X885182D01*
X720090Y522478D02*
Y537713D01*
X727708D01*
X730247Y535174D01*
Y530095D01*
X727708Y527556D01*
X720090D01*
X725168D02*
X730247Y522478D01*
X735325Y535174D02*
X737864Y537713D01*
X742943D01*
X745482Y535174D01*
Y532635D01*
X742943Y530095D01*
X745482Y527556D01*
Y525017D01*
X742943Y522478D01*
X737864D01*
X735325Y525017D01*
Y527556D01*
X737864Y530095D01*
X735325Y532635D01*
Y535174D01*
X737864Y530095D02*
X742943D01*
X441452Y417830D02*
Y433065D01*
X449070D01*
X451609Y430526D01*
Y425448D01*
X449070Y422908D01*
X441452D01*
X446530D02*
X451609Y417830D01*
X466844Y433065D02*
X461765Y430526D01*
X456687Y425448D01*
Y420369D01*
X459226Y417830D01*
X464305D01*
X466844Y420369D01*
Y422908D01*
X464305Y425448D01*
X456687D01*
X179070Y257048D02*
Y272283D01*
X186688D01*
X189227Y269744D01*
Y264666D01*
X186688Y262126D01*
X179070D01*
X184148D02*
X189227Y257048D01*
X204462D02*
X194305D01*
X204462Y267205D01*
Y269744D01*
X201923Y272283D01*
X196844D01*
X194305Y269744D01*
X89662Y175260D02*
Y190495D01*
X97280D01*
X99819Y187956D01*
Y182878D01*
X97280Y180338D01*
X89662D01*
X94740D02*
X99819Y175260D01*
X104897D02*
X109975D01*
X107436D01*
Y190495D01*
X104897Y187956D01*
X440690Y86868D02*
Y102103D01*
X448307D01*
X450847Y99564D01*
Y94486D01*
X448307Y91946D01*
X440690D01*
X445768D02*
X450847Y86868D01*
X466082Y102103D02*
X455925D01*
Y94486D01*
X461003Y97025D01*
X463543D01*
X466082Y94486D01*
Y89407D01*
X463543Y86868D01*
X458464D01*
X455925Y89407D01*
X405638Y199136D02*
Y214371D01*
X413256D01*
X415795Y211832D01*
Y206754D01*
X413256Y204214D01*
X405638D01*
X420873Y199136D02*
X425951D01*
X423412D01*
Y214371D01*
X420873Y211832D01*
X521208Y224536D02*
Y239771D01*
X528825D01*
X531365Y237232D01*
Y232153D01*
X528825Y229614D01*
X521208D01*
X546600Y224536D02*
X536443D01*
X546600Y234693D01*
Y237232D01*
X544061Y239771D01*
X538982D01*
X536443Y237232D01*
X502666Y128778D02*
Y144013D01*
X510284D01*
X512823Y141474D01*
Y136396D01*
X510284Y133856D01*
X502666D01*
X507744D02*
X512823Y128778D01*
X525519D02*
Y144013D01*
X517901Y136396D01*
X528058D01*
D15*
X240461Y400537D02*
X233690D01*
Y395458D01*
X237076Y397151D01*
X238768D01*
X240461Y395458D01*
Y392073D01*
X238768Y390380D01*
X235383D01*
X233690Y392073D01*
X134690Y390380D02*
X138076D01*
X136383D01*
Y400537D01*
X134690Y398844D01*
X853330Y230660D02*
Y234046D01*
Y232353D01*
X843173D01*
X844866Y230660D01*
Y239124D02*
X843173Y240817D01*
Y244202D01*
X844866Y245895D01*
X851637D01*
X853330Y244202D01*
Y240817D01*
X851637Y239124D01*
X844866D01*
X878637Y230660D02*
X880330Y232353D01*
Y235738D01*
X878637Y237431D01*
X871866D01*
X870173Y235738D01*
Y232353D01*
X871866Y230660D01*
X873559D01*
X875252Y232353D01*
Y237431D01*
X880330Y90460D02*
Y93846D01*
Y92153D01*
X870173D01*
X871866Y90460D01*
X853330Y94231D02*
Y87460D01*
X846559Y94231D01*
X844866D01*
X843173Y92538D01*
Y89153D01*
X844866Y87460D01*
D16*
X357933Y844547D02*
X367930D01*
X362931Y849545D02*
Y839548D01*
X266703Y557723D02*
Y567720D01*
X261705Y562721D02*
X271702D01*
X363217Y651317D02*
Y641320D01*
X368215Y646319D02*
X358218D01*
X334013Y447033D02*
Y457030D01*
X329015Y452031D02*
X339012D01*
X251463Y448503D02*
Y458500D01*
X246465Y453501D02*
X256462D01*
X166373Y447233D02*
Y457230D01*
X161375Y452231D02*
X171372D01*
X81283Y448503D02*
Y458500D01*
X76285Y453501D02*
X86282D01*
M02*
