M48
;Layer_Color=9474304
;FILE_FORMAT=4:4
METRIC,LZ
;TYPE=PLATED
T1F00S00C0.6000
T2F00S00C0.6500
T3F00S00C0.8000
T4F00S00C0.9000
T5F00S00C1.0000
T6F00S00C1.0200
T7F00S00C1.1000
;TYPE=NON_PLATED
T8F00S00C3.0000
%
T01
X0034163Y0006223
X0093853Y0016256
X0087757Y0028448
X0077597Y0023749
X0073406Y001905
X0075946Y0038989
X0075565Y0047498
X0069215Y0047244
X0069088Y0042799
X0051181Y0030734
X0032639Y0021209
X0069342Y0077851
X0074422Y0079121
X0077216Y0078867
X0076073Y0072644
X0081661Y0067056
X0061849Y0091186
T02
X0009906Y000942
X0044599Y0006731
X0051159
X00508Y0010922
X005736
X0058039Y0017907
X0055499Y0020447
X0055096Y0034036
X0082318Y0032512
X0088878
X0086509Y0050038
X0093069
X0079099Y0050292
X0072539
X0045085Y0040237
Y0033677
X0048536Y0034036
X0052959Y0017907
X0046482Y0015367
X0043942Y0017907
X0041402Y0015367
X0029337Y0017421
Y0023981
X0024997Y0023749
X0018437
X0009906Y001598
X0006604Y0064284
Y0070844
X0008763Y0077873
Y0084433
X0018161Y0086636
Y0093196
X002847Y0074676
X003503
X0048768Y0074825
Y0081385
X0064516Y0066526
Y0059966
T03
X0016637Y0048173
Y0050673
X0025146Y00508
Y00483
X0033401Y0048153
Y0050653
X0008128Y00508
Y00483
X002667Y0059222
Y0061722
X0036322Y0061682
Y0059182
X0039243Y0084455
X0041743
T04
X0016383Y0012192
X0018923
X0021463
X0024003
X0060579Y0029972
X0063119
X0065659
X0068199
Y0037592
X0065659
X0063119
X0060579
X0081788Y0037338
X0084328
X0086868
X0089408
Y0044958
X0086868
X0084328
X0081788
X0024003Y0019812
X0021463
X0018923
X0016383
X0017399Y0071374
X0019939
X0022479
Y0078994
X0019939
X0017399
X0014859
Y0071374
X0054991Y0078486
X0057531
X0060071
X0062611
Y0086106
X0060071
X0057531
X0054991
X0072136Y0091948
X0074676
X0077216
T05
X0086106Y0073279
Y0075569
Y0077859
X0084463Y0086868
X0082173
X0079883
T06
X0033528Y0014732
Y0017272
X0028956Y002794
X0026416
X0015113Y0060071
Y0062611
Y0065151
X0026289Y0089535
Y0092075
X0090678Y0091948
Y0089408
X0070358Y0070866
Y0068326
T07
X0084963Y0011176
Y0013716
X0087503
Y0011176
Y0016256
X0084963
Y0018796
X0087503
Y0021336
X0084963
X0023749Y0037338
X0021209
X0018669
X0016129
X0013589
T08
X0003048Y0003302
X0095758
X0096266Y0096012
X0002413Y0095885
M30
