G04*
G04 #@! TF.GenerationSoftware,Altium Limited,Altium Designer,23.0.1 (38)*
G04*
G04 Layer_Color=16711935*
%FSLAX44Y44*%
%MOMM*%
G71*
G04*
G04 #@! TF.SameCoordinates,40E8D280-AE9E-4637-9913-6930DAB067FB*
G04*
G04*
G04 #@! TF.FilePolarity,Positive*
G04*
G01*
G75*
%ADD13C,0.3000*%
G36*
X291512Y217319D02*
X291586Y217309D01*
X291669Y217291D01*
X291761Y217272D01*
X291863Y217254D01*
X292085Y217180D01*
X292205Y217125D01*
X292316Y217069D01*
X292436Y216995D01*
X292556Y216912D01*
X292677Y216819D01*
X292788Y216709D01*
X292797Y216699D01*
X292815Y216681D01*
X292843Y216644D01*
X292880Y216598D01*
X292926Y216542D01*
X292973Y216468D01*
X293028Y216385D01*
X293074Y216283D01*
X293130Y216182D01*
X293185Y216061D01*
X293231Y215941D01*
X293278Y215802D01*
X293315Y215655D01*
X293342Y215497D01*
X293361Y215340D01*
X293370Y215165D01*
Y215081D01*
X293361Y215026D01*
X293352Y214952D01*
X293342Y214869D01*
X293324Y214776D01*
X293305Y214674D01*
X293250Y214453D01*
X293157Y214221D01*
X293102Y214101D01*
X293037Y213990D01*
X292954Y213879D01*
X292871Y213768D01*
X292862Y213759D01*
X292843Y213741D01*
X292815Y213713D01*
X292778Y213685D01*
X292732Y213639D01*
X292667Y213593D01*
X292603Y213537D01*
X292519Y213482D01*
X292427Y213426D01*
X292335Y213371D01*
X292113Y213269D01*
X291854Y213186D01*
X291715Y213158D01*
X291567Y213140D01*
X291465Y213926D01*
X291475D01*
X291493Y213935D01*
X291530Y213944D01*
X291576Y213953D01*
X291632Y213963D01*
X291697Y213981D01*
X291835Y214027D01*
X292002Y214092D01*
X292159Y214175D01*
X292307Y214268D01*
X292436Y214379D01*
X292446Y214397D01*
X292482Y214434D01*
X292529Y214508D01*
X292575Y214601D01*
X292630Y214711D01*
X292677Y214850D01*
X292714Y215007D01*
X292723Y215174D01*
Y215229D01*
X292714Y215266D01*
X292704Y215368D01*
X292677Y215497D01*
X292630Y215645D01*
X292566Y215802D01*
X292473Y215960D01*
X292344Y216108D01*
X292325Y216126D01*
X292270Y216172D01*
X292187Y216228D01*
X292076Y216302D01*
X291937Y216376D01*
X291780Y216431D01*
X291595Y216477D01*
X291392Y216496D01*
X291382D01*
X291364D01*
X291336D01*
X291299Y216487D01*
X291197Y216477D01*
X291077Y216450D01*
X290929Y216413D01*
X290781Y216348D01*
X290633Y216255D01*
X290495Y216135D01*
X290476Y216117D01*
X290439Y216071D01*
X290384Y215997D01*
X290319Y215895D01*
X290254Y215765D01*
X290199Y215608D01*
X290162Y215433D01*
X290143Y215238D01*
Y215155D01*
X290153Y215091D01*
X290162Y215007D01*
X290180Y214915D01*
X290199Y214804D01*
X290227Y214684D01*
X289533Y214776D01*
Y214822D01*
X289542Y214859D01*
Y214980D01*
X289524Y215081D01*
X289505Y215201D01*
X289478Y215340D01*
X289431Y215497D01*
X289367Y215645D01*
X289284Y215802D01*
Y215812D01*
X289274Y215821D01*
X289237Y215867D01*
X289173Y215932D01*
X289089Y216006D01*
X288969Y216080D01*
X288831Y216145D01*
X288673Y216191D01*
X288581Y216209D01*
X288479D01*
X288470D01*
X288461D01*
X288405D01*
X288331Y216191D01*
X288230Y216172D01*
X288119Y216135D01*
X287998Y216089D01*
X287878Y216015D01*
X287767Y215913D01*
X287758Y215904D01*
X287721Y215858D01*
X287675Y215793D01*
X287619Y215710D01*
X287573Y215599D01*
X287527Y215470D01*
X287490Y215322D01*
X287481Y215155D01*
Y215081D01*
X287499Y214998D01*
X287518Y214887D01*
X287555Y214767D01*
X287601Y214647D01*
X287675Y214517D01*
X287767Y214397D01*
X287777Y214388D01*
X287823Y214351D01*
X287887Y214295D01*
X287980Y214231D01*
X288100Y214166D01*
X288248Y214101D01*
X288424Y214046D01*
X288627Y214009D01*
X288488Y213223D01*
X288479D01*
X288451Y213232D01*
X288414Y213241D01*
X288359Y213251D01*
X288294Y213269D01*
X288220Y213297D01*
X288045Y213352D01*
X287841Y213445D01*
X287638Y213556D01*
X287444Y213694D01*
X287268Y213870D01*
X287259Y213879D01*
X287250Y213898D01*
X287231Y213926D01*
X287203Y213963D01*
X287166Y214009D01*
X287129Y214074D01*
X287092Y214138D01*
X287046Y214221D01*
X286972Y214406D01*
X286898Y214619D01*
X286852Y214869D01*
X286833Y214998D01*
Y215229D01*
X286843Y215331D01*
X286861Y215451D01*
X286889Y215599D01*
X286935Y215765D01*
X286991Y215932D01*
X287065Y216098D01*
Y216108D01*
X287074Y216117D01*
X287102Y216172D01*
X287157Y216255D01*
X287222Y216348D01*
X287314Y216459D01*
X287416Y216570D01*
X287536Y216681D01*
X287675Y216773D01*
X287693Y216782D01*
X287740Y216810D01*
X287823Y216847D01*
X287924Y216893D01*
X288045Y216940D01*
X288183Y216977D01*
X288340Y217004D01*
X288498Y217014D01*
X288516D01*
X288572D01*
X288646Y217004D01*
X288747Y216986D01*
X288867Y216958D01*
X288997Y216912D01*
X289126Y216856D01*
X289256Y216782D01*
X289274Y216773D01*
X289311Y216745D01*
X289376Y216690D01*
X289450Y216616D01*
X289533Y216524D01*
X289626Y216413D01*
X289709Y216283D01*
X289792Y216126D01*
Y216135D01*
X289801Y216154D01*
X289811Y216182D01*
X289820Y216218D01*
X289857Y216320D01*
X289912Y216450D01*
X289986Y216598D01*
X290079Y216745D01*
X290199Y216884D01*
X290338Y217014D01*
X290356Y217023D01*
X290411Y217060D01*
X290504Y217115D01*
X290624Y217171D01*
X290772Y217226D01*
X290948Y217282D01*
X291151Y217319D01*
X291373Y217328D01*
X291382D01*
X291410D01*
X291456D01*
X291512Y217319D01*
D02*
G37*
G36*
X293259Y211577D02*
X291928Y210736D01*
X291919D01*
X291900Y210717D01*
X291872Y210699D01*
X291835Y210671D01*
X291734Y210606D01*
X291604Y210523D01*
X291465Y210422D01*
X291318Y210320D01*
X291179Y210218D01*
X291049Y210126D01*
X291040Y210116D01*
X291003Y210089D01*
X290948Y210042D01*
X290883Y209978D01*
X290744Y209839D01*
X290680Y209765D01*
X290624Y209691D01*
X290615Y209682D01*
X290606Y209663D01*
X290587Y209626D01*
X290559Y209571D01*
X290532Y209515D01*
X290504Y209451D01*
X290458Y209303D01*
Y209293D01*
X290448Y209275D01*
Y209238D01*
X290439Y209192D01*
X290430Y209127D01*
Y209053D01*
X290421Y208951D01*
Y207861D01*
X293259D01*
Y207010D01*
X286861D01*
Y209978D01*
X286870Y210052D01*
Y210135D01*
X286880Y210329D01*
X286907Y210532D01*
X286935Y210754D01*
X286981Y210958D01*
X287009Y211059D01*
X287037Y211143D01*
Y211152D01*
X287046Y211161D01*
X287074Y211217D01*
X287111Y211300D01*
X287176Y211402D01*
X287259Y211513D01*
X287370Y211633D01*
X287499Y211744D01*
X287647Y211855D01*
X287656D01*
X287666Y211864D01*
X287721Y211901D01*
X287813Y211938D01*
X287934Y211993D01*
X288072Y212040D01*
X288239Y212086D01*
X288414Y212113D01*
X288609Y212123D01*
X288618D01*
X288636D01*
X288673D01*
X288720Y212113D01*
X288784D01*
X288849Y212104D01*
X289006Y212067D01*
X289191Y212012D01*
X289385Y211938D01*
X289579Y211827D01*
X289672Y211753D01*
X289764Y211679D01*
X289774Y211670D01*
X289783Y211660D01*
X289811Y211633D01*
X289838Y211596D01*
X289875Y211549D01*
X289912Y211494D01*
X289958Y211420D01*
X290014Y211346D01*
X290060Y211254D01*
X290106Y211152D01*
X290162Y211041D01*
X290208Y210921D01*
X290245Y210782D01*
X290291Y210643D01*
X290319Y210486D01*
X290347Y210320D01*
X290356Y210338D01*
X290375Y210375D01*
X290411Y210431D01*
X290448Y210505D01*
X290550Y210671D01*
X290615Y210754D01*
X290670Y210828D01*
X290689Y210847D01*
X290735Y210893D01*
X290809Y210967D01*
X290902Y211059D01*
X291031Y211161D01*
X291170Y211281D01*
X291336Y211402D01*
X291521Y211531D01*
X293259Y212631D01*
Y211577D01*
D02*
G37*
G36*
X702045Y711816D02*
X703580D01*
Y711030D01*
X702045D01*
Y708247D01*
X701324D01*
X697182Y711178D01*
Y711816D01*
X701324D01*
Y712685D01*
X702045D01*
Y711816D01*
D02*
G37*
G36*
X703580Y706962D02*
X702249Y706121D01*
X702240D01*
X702221Y706102D01*
X702193Y706084D01*
X702156Y706056D01*
X702055Y705991D01*
X701925Y705908D01*
X701786Y705806D01*
X701638Y705705D01*
X701500Y705603D01*
X701370Y705511D01*
X701361Y705501D01*
X701324Y705474D01*
X701269Y705427D01*
X701204Y705363D01*
X701065Y705224D01*
X701001Y705150D01*
X700945Y705076D01*
X700936Y705067D01*
X700927Y705048D01*
X700908Y705011D01*
X700880Y704956D01*
X700853Y704900D01*
X700825Y704836D01*
X700779Y704688D01*
Y704678D01*
X700769Y704660D01*
Y704623D01*
X700760Y704577D01*
X700751Y704512D01*
Y704438D01*
X700742Y704336D01*
Y703245D01*
X703580D01*
Y702395D01*
X697182D01*
Y705363D01*
X697191Y705437D01*
Y705520D01*
X697201Y705714D01*
X697228Y705917D01*
X697256Y706139D01*
X697302Y706343D01*
X697330Y706444D01*
X697358Y706528D01*
Y706537D01*
X697367Y706546D01*
X697395Y706602D01*
X697432Y706685D01*
X697496Y706786D01*
X697580Y706897D01*
X697691Y707018D01*
X697820Y707129D01*
X697968Y707240D01*
X697977D01*
X697987Y707249D01*
X698042Y707286D01*
X698134Y707323D01*
X698255Y707378D01*
X698393Y707424D01*
X698560Y707471D01*
X698735Y707498D01*
X698930Y707508D01*
X698939D01*
X698957D01*
X698994D01*
X699041Y707498D01*
X699105D01*
X699170Y707489D01*
X699327Y707452D01*
X699512Y707397D01*
X699706Y707323D01*
X699900Y707212D01*
X699993Y707138D01*
X700085Y707064D01*
X700095Y707055D01*
X700104Y707045D01*
X700132Y707018D01*
X700159Y706981D01*
X700196Y706934D01*
X700233Y706879D01*
X700279Y706805D01*
X700335Y706731D01*
X700381Y706638D01*
X700427Y706537D01*
X700483Y706426D01*
X700529Y706306D01*
X700566Y706167D01*
X700612Y706028D01*
X700640Y705871D01*
X700668Y705705D01*
X700677Y705723D01*
X700695Y705760D01*
X700732Y705816D01*
X700769Y705890D01*
X700871Y706056D01*
X700936Y706139D01*
X700991Y706213D01*
X701010Y706232D01*
X701056Y706278D01*
X701130Y706352D01*
X701222Y706444D01*
X701352Y706546D01*
X701491Y706666D01*
X701657Y706786D01*
X701842Y706916D01*
X703580Y708016D01*
Y706962D01*
D02*
G37*
G36*
Y700120D02*
X700566D01*
Y696811D01*
X703580D01*
Y695960D01*
X697182D01*
Y696811D01*
X699808D01*
Y700120D01*
X697182D01*
Y700971D01*
X703580D01*
Y700120D01*
D02*
G37*
G36*
X261032Y924794D02*
X261106Y924784D01*
X261189Y924766D01*
X261281Y924747D01*
X261383Y924729D01*
X261605Y924655D01*
X261725Y924600D01*
X261836Y924544D01*
X261956Y924470D01*
X262076Y924387D01*
X262197Y924294D01*
X262308Y924183D01*
X262317Y924174D01*
X262335Y924156D01*
X262363Y924119D01*
X262400Y924072D01*
X262446Y924017D01*
X262493Y923943D01*
X262548Y923860D01*
X262594Y923758D01*
X262650Y923656D01*
X262705Y923536D01*
X262751Y923416D01*
X262798Y923277D01*
X262835Y923129D01*
X262862Y922972D01*
X262881Y922815D01*
X262890Y922639D01*
Y922556D01*
X262881Y922501D01*
X262872Y922427D01*
X262862Y922344D01*
X262844Y922251D01*
X262825Y922149D01*
X262770Y921927D01*
X262677Y921696D01*
X262622Y921576D01*
X262557Y921465D01*
X262474Y921354D01*
X262391Y921243D01*
X262382Y921234D01*
X262363Y921216D01*
X262335Y921188D01*
X262298Y921160D01*
X262252Y921114D01*
X262187Y921068D01*
X262123Y921012D01*
X262040Y920957D01*
X261947Y920901D01*
X261855Y920846D01*
X261633Y920744D01*
X261374Y920661D01*
X261235Y920633D01*
X261087Y920615D01*
X260986Y921401D01*
X260995D01*
X261013Y921410D01*
X261050Y921419D01*
X261096Y921428D01*
X261152Y921438D01*
X261217Y921456D01*
X261355Y921502D01*
X261522Y921567D01*
X261679Y921650D01*
X261827Y921743D01*
X261956Y921854D01*
X261966Y921872D01*
X262003Y921909D01*
X262049Y921983D01*
X262095Y922075D01*
X262150Y922186D01*
X262197Y922325D01*
X262234Y922482D01*
X262243Y922649D01*
Y922704D01*
X262234Y922741D01*
X262224Y922843D01*
X262197Y922972D01*
X262150Y923120D01*
X262086Y923277D01*
X261993Y923435D01*
X261864Y923583D01*
X261845Y923601D01*
X261790Y923647D01*
X261707Y923703D01*
X261596Y923777D01*
X261457Y923851D01*
X261300Y923906D01*
X261115Y923952D01*
X260912Y923971D01*
X260902D01*
X260884D01*
X260856D01*
X260819Y923962D01*
X260717Y923952D01*
X260597Y923925D01*
X260449Y923888D01*
X260301Y923823D01*
X260153Y923730D01*
X260015Y923610D01*
X259996Y923592D01*
X259959Y923546D01*
X259904Y923472D01*
X259839Y923370D01*
X259774Y923240D01*
X259719Y923083D01*
X259682Y922908D01*
X259663Y922713D01*
Y922630D01*
X259673Y922566D01*
X259682Y922482D01*
X259700Y922390D01*
X259719Y922279D01*
X259747Y922159D01*
X259053Y922251D01*
Y922297D01*
X259062Y922334D01*
Y922455D01*
X259044Y922556D01*
X259025Y922676D01*
X258998Y922815D01*
X258951Y922972D01*
X258887Y923120D01*
X258804Y923277D01*
Y923287D01*
X258794Y923296D01*
X258757Y923342D01*
X258693Y923407D01*
X258609Y923481D01*
X258489Y923555D01*
X258351Y923620D01*
X258193Y923666D01*
X258101Y923684D01*
X257999D01*
X257990D01*
X257981D01*
X257925D01*
X257851Y923666D01*
X257750Y923647D01*
X257639Y923610D01*
X257518Y923564D01*
X257398Y923490D01*
X257287Y923388D01*
X257278Y923379D01*
X257241Y923333D01*
X257195Y923268D01*
X257139Y923185D01*
X257093Y923074D01*
X257047Y922944D01*
X257010Y922797D01*
X257001Y922630D01*
Y922556D01*
X257019Y922473D01*
X257038Y922362D01*
X257075Y922242D01*
X257121Y922122D01*
X257195Y921992D01*
X257287Y921872D01*
X257297Y921863D01*
X257343Y921826D01*
X257407Y921770D01*
X257500Y921706D01*
X257620Y921641D01*
X257768Y921576D01*
X257944Y921521D01*
X258147Y921484D01*
X258008Y920698D01*
X257999D01*
X257971Y920707D01*
X257934Y920716D01*
X257879Y920726D01*
X257814Y920744D01*
X257740Y920772D01*
X257565Y920827D01*
X257361Y920920D01*
X257158Y921031D01*
X256964Y921169D01*
X256788Y921345D01*
X256779Y921354D01*
X256770Y921373D01*
X256751Y921401D01*
X256723Y921438D01*
X256686Y921484D01*
X256649Y921548D01*
X256612Y921613D01*
X256566Y921696D01*
X256492Y921881D01*
X256418Y922094D01*
X256372Y922344D01*
X256353Y922473D01*
Y922704D01*
X256363Y922806D01*
X256381Y922926D01*
X256409Y923074D01*
X256455Y923240D01*
X256511Y923407D01*
X256585Y923573D01*
Y923583D01*
X256594Y923592D01*
X256622Y923647D01*
X256677Y923730D01*
X256742Y923823D01*
X256834Y923934D01*
X256936Y924045D01*
X257056Y924156D01*
X257195Y924248D01*
X257213Y924257D01*
X257260Y924285D01*
X257343Y924322D01*
X257444Y924368D01*
X257565Y924415D01*
X257703Y924452D01*
X257861Y924479D01*
X258018Y924489D01*
X258036D01*
X258092D01*
X258166Y924479D01*
X258267Y924461D01*
X258388Y924433D01*
X258517Y924387D01*
X258646Y924331D01*
X258776Y924257D01*
X258794Y924248D01*
X258831Y924220D01*
X258896Y924165D01*
X258970Y924091D01*
X259053Y923998D01*
X259146Y923888D01*
X259229Y923758D01*
X259312Y923601D01*
Y923610D01*
X259321Y923629D01*
X259331Y923656D01*
X259340Y923693D01*
X259377Y923795D01*
X259432Y923925D01*
X259506Y924072D01*
X259599Y924220D01*
X259719Y924359D01*
X259858Y924489D01*
X259876Y924498D01*
X259932Y924535D01*
X260024Y924590D01*
X260144Y924646D01*
X260292Y924701D01*
X260468Y924757D01*
X260671Y924794D01*
X260893Y924803D01*
X260902D01*
X260930D01*
X260976D01*
X261032Y924794D01*
D02*
G37*
G36*
X262779Y919052D02*
X261448Y918211D01*
X261439D01*
X261420Y918192D01*
X261392Y918174D01*
X261355Y918146D01*
X261254Y918081D01*
X261124Y917998D01*
X260986Y917896D01*
X260838Y917795D01*
X260699Y917693D01*
X260569Y917601D01*
X260560Y917591D01*
X260523Y917564D01*
X260468Y917517D01*
X260403Y917453D01*
X260264Y917314D01*
X260200Y917240D01*
X260144Y917166D01*
X260135Y917157D01*
X260126Y917138D01*
X260107Y917101D01*
X260079Y917046D01*
X260052Y916990D01*
X260024Y916926D01*
X259978Y916778D01*
Y916768D01*
X259968Y916750D01*
Y916713D01*
X259959Y916667D01*
X259950Y916602D01*
Y916528D01*
X259941Y916426D01*
Y915335D01*
X262779D01*
Y914485D01*
X256381D01*
Y917453D01*
X256390Y917527D01*
Y917610D01*
X256400Y917804D01*
X256427Y918007D01*
X256455Y918229D01*
X256501Y918433D01*
X256529Y918534D01*
X256557Y918618D01*
Y918627D01*
X256566Y918636D01*
X256594Y918692D01*
X256631Y918775D01*
X256695Y918876D01*
X256779Y918987D01*
X256890Y919108D01*
X257019Y919219D01*
X257167Y919330D01*
X257176D01*
X257185Y919339D01*
X257241Y919376D01*
X257334Y919413D01*
X257454Y919468D01*
X257592Y919514D01*
X257759Y919561D01*
X257934Y919588D01*
X258129Y919598D01*
X258138D01*
X258156D01*
X258193D01*
X258239Y919588D01*
X258304D01*
X258369Y919579D01*
X258526Y919542D01*
X258711Y919487D01*
X258905Y919413D01*
X259099Y919302D01*
X259192Y919228D01*
X259284Y919154D01*
X259293Y919145D01*
X259303Y919135D01*
X259331Y919108D01*
X259358Y919071D01*
X259395Y919024D01*
X259432Y918969D01*
X259478Y918895D01*
X259534Y918821D01*
X259580Y918728D01*
X259626Y918627D01*
X259682Y918516D01*
X259728Y918396D01*
X259765Y918257D01*
X259811Y918118D01*
X259839Y917961D01*
X259867Y917795D01*
X259876Y917813D01*
X259895Y917850D01*
X259932Y917906D01*
X259968Y917980D01*
X260070Y918146D01*
X260135Y918229D01*
X260190Y918303D01*
X260209Y918322D01*
X260255Y918368D01*
X260329Y918442D01*
X260422Y918534D01*
X260551Y918636D01*
X260690Y918756D01*
X260856Y918876D01*
X261041Y919006D01*
X262779Y920106D01*
Y919052D01*
D02*
G37*
G36*
Y912210D02*
X259765D01*
Y908901D01*
X262779D01*
Y908050D01*
X256381D01*
Y908901D01*
X259007D01*
Y912210D01*
X256381D01*
Y913061D01*
X262779D01*
Y912210D01*
D02*
G37*
G36*
X913289Y905929D02*
X910663D01*
Y902620D01*
X913289D01*
Y901769D01*
X906891D01*
Y902620D01*
X909905D01*
Y905929D01*
X906891D01*
Y906780D01*
X913289D01*
Y905929D01*
D02*
G37*
G36*
X910330Y900669D02*
X910441D01*
X910561Y900659D01*
X910700Y900650D01*
X910987Y900622D01*
X911292Y900576D01*
X911597Y900521D01*
X911736Y900484D01*
X911874Y900447D01*
X911883D01*
X911902Y900438D01*
X911939Y900419D01*
X911985Y900401D01*
X912050Y900382D01*
X912115Y900345D01*
X912272Y900271D01*
X912438Y900179D01*
X912614Y900059D01*
X912790Y899920D01*
X912937Y899753D01*
Y899744D01*
X912956Y899735D01*
X912974Y899707D01*
X912993Y899670D01*
X913030Y899624D01*
X913058Y899568D01*
X913132Y899430D01*
X913196Y899263D01*
X913261Y899069D01*
X913298Y898838D01*
X913316Y898588D01*
Y898505D01*
X913307Y898404D01*
X913289Y898283D01*
X913261Y898145D01*
X913224Y897997D01*
X913178Y897840D01*
X913104Y897692D01*
Y897682D01*
X913095Y897673D01*
X913067Y897627D01*
X913021Y897553D01*
X912956Y897460D01*
X912863Y897359D01*
X912762Y897248D01*
X912642Y897146D01*
X912503Y897045D01*
X912484Y897035D01*
X912438Y896998D01*
X912355Y896961D01*
X912235Y896897D01*
X912096Y896841D01*
X911939Y896767D01*
X911754Y896702D01*
X911551Y896647D01*
X911541D01*
X911523Y896638D01*
X911495Y896628D01*
X911449Y896619D01*
X911393Y896610D01*
X911329Y896601D01*
X911245Y896582D01*
X911153Y896573D01*
X911051Y896554D01*
X910940Y896545D01*
X910811Y896536D01*
X910682Y896517D01*
X910534Y896508D01*
X910386D01*
X910219Y896499D01*
X910044D01*
X910034D01*
X909997D01*
X909933D01*
X909859D01*
X909757Y896508D01*
X909646D01*
X909526Y896517D01*
X909396Y896527D01*
X909100Y896554D01*
X908795Y896601D01*
X908500Y896656D01*
X908361Y896693D01*
X908222Y896739D01*
X908213D01*
X908194Y896749D01*
X908158Y896767D01*
X908111Y896786D01*
X908046Y896804D01*
X907982Y896841D01*
X907825Y896915D01*
X907658Y897008D01*
X907473Y897128D01*
X907307Y897266D01*
X907150Y897433D01*
Y897442D01*
X907131Y897451D01*
X907113Y897479D01*
X907094Y897516D01*
X907066Y897562D01*
X907029Y897608D01*
X906965Y897747D01*
X906900Y897914D01*
X906835Y898108D01*
X906798Y898339D01*
X906780Y898588D01*
Y898681D01*
X906789Y898746D01*
X906798Y898820D01*
X906817Y898912D01*
X906835Y899014D01*
X906863Y899125D01*
X906900Y899236D01*
X906937Y899356D01*
X906992Y899476D01*
X907057Y899596D01*
X907131Y899716D01*
X907224Y899837D01*
X907325Y899948D01*
X907436Y900049D01*
X907446Y900059D01*
X907473Y900077D01*
X907520Y900105D01*
X907594Y900151D01*
X907677Y900197D01*
X907788Y900243D01*
X907917Y900308D01*
X908065Y900364D01*
X908231Y900419D01*
X908426Y900475D01*
X908638Y900530D01*
X908879Y900576D01*
X909137Y900622D01*
X909415Y900650D01*
X909720Y900669D01*
X910044Y900678D01*
X910053D01*
X910090D01*
X910154D01*
X910229D01*
X910330Y900669D01*
D02*
G37*
G36*
X335280Y172465D02*
X335271D01*
X335234D01*
X335178D01*
X335104Y172474D01*
X335021Y172483D01*
X334929Y172501D01*
X334836Y172520D01*
X334735Y172557D01*
X334725D01*
X334716Y172566D01*
X334661Y172585D01*
X334577Y172622D01*
X334467Y172677D01*
X334337Y172751D01*
X334189Y172843D01*
X334041Y172945D01*
X333884Y173075D01*
X333875D01*
X333866Y173093D01*
X333810Y173139D01*
X333727Y173223D01*
X333607Y173343D01*
X333468Y173482D01*
X333302Y173657D01*
X333117Y173870D01*
X332922Y174101D01*
X332913Y174110D01*
X332886Y174147D01*
X332839Y174203D01*
X332784Y174267D01*
X332710Y174351D01*
X332627Y174452D01*
X332534Y174554D01*
X332432Y174674D01*
X332211Y174905D01*
X331989Y175136D01*
X331878Y175247D01*
X331767Y175349D01*
X331665Y175441D01*
X331563Y175515D01*
X331554D01*
X331545Y175534D01*
X331517Y175553D01*
X331480Y175571D01*
X331378Y175636D01*
X331258Y175710D01*
X331110Y175774D01*
X330953Y175839D01*
X330778Y175876D01*
X330611Y175895D01*
X330602D01*
X330593D01*
X330537Y175885D01*
X330445Y175876D01*
X330343Y175848D01*
X330214Y175811D01*
X330084Y175747D01*
X329955Y175663D01*
X329825Y175553D01*
X329807Y175534D01*
X329770Y175488D01*
X329724Y175423D01*
X329659Y175321D01*
X329603Y175192D01*
X329548Y175044D01*
X329511Y174868D01*
X329502Y174674D01*
Y174619D01*
X329511Y174582D01*
X329520Y174471D01*
X329548Y174341D01*
X329585Y174203D01*
X329650Y174045D01*
X329733Y173897D01*
X329844Y173759D01*
X329862Y173740D01*
X329908Y173703D01*
X329982Y173648D01*
X330093Y173592D01*
X330223Y173528D01*
X330389Y173472D01*
X330574Y173435D01*
X330787Y173417D01*
X330704Y172612D01*
X330694D01*
X330667Y172622D01*
X330620D01*
X330556Y172631D01*
X330482Y172649D01*
X330398Y172668D01*
X330297Y172696D01*
X330195Y172723D01*
X329973Y172797D01*
X329751Y172908D01*
X329640Y172973D01*
X329529Y173056D01*
X329428Y173139D01*
X329335Y173232D01*
X329326Y173241D01*
X329317Y173260D01*
X329289Y173287D01*
X329261Y173333D01*
X329224Y173389D01*
X329187Y173454D01*
X329141Y173528D01*
X329095Y173620D01*
X329049Y173722D01*
X329002Y173833D01*
X328965Y173953D01*
X328928Y174082D01*
X328901Y174221D01*
X328873Y174369D01*
X328864Y174526D01*
X328854Y174693D01*
Y174785D01*
X328864Y174850D01*
X328873Y174924D01*
X328882Y175016D01*
X328901Y175118D01*
X328919Y175220D01*
X328984Y175460D01*
X329076Y175700D01*
X329132Y175821D01*
X329197Y175941D01*
X329280Y176052D01*
X329372Y176153D01*
X329381Y176163D01*
X329391Y176181D01*
X329428Y176200D01*
X329465Y176237D01*
X329511Y176283D01*
X329576Y176329D01*
X329640Y176375D01*
X329724Y176431D01*
X329899Y176523D01*
X330121Y176616D01*
X330232Y176653D01*
X330361Y176671D01*
X330491Y176690D01*
X330630Y176699D01*
X330648D01*
X330694D01*
X330768Y176690D01*
X330870Y176680D01*
X330981Y176662D01*
X331110Y176625D01*
X331249Y176588D01*
X331388Y176532D01*
X331406Y176523D01*
X331452Y176505D01*
X331526Y176468D01*
X331628Y176412D01*
X331739Y176338D01*
X331878Y176246D01*
X332016Y176135D01*
X332174Y176005D01*
X332192Y175987D01*
X332248Y175941D01*
X332294Y175895D01*
X332340Y175848D01*
X332395Y175793D01*
X332469Y175719D01*
X332543Y175645D01*
X332627Y175553D01*
X332719Y175460D01*
X332821Y175349D01*
X332922Y175229D01*
X333043Y175099D01*
X333163Y174951D01*
X333292Y174804D01*
X333302Y174794D01*
X333320Y174776D01*
X333348Y174739D01*
X333385Y174693D01*
X333440Y174637D01*
X333496Y174572D01*
X333616Y174424D01*
X333755Y174267D01*
X333893Y174119D01*
X334013Y173990D01*
X334060Y173934D01*
X334106Y173888D01*
X334115Y173879D01*
X334143Y173851D01*
X334180Y173814D01*
X334235Y173768D01*
X334300Y173722D01*
X334365Y173666D01*
X334522Y173555D01*
Y176708D01*
X335280D01*
Y172465D01*
D02*
G37*
G36*
Y171022D02*
X333949Y170181D01*
X333940D01*
X333921Y170162D01*
X333893Y170144D01*
X333856Y170116D01*
X333755Y170051D01*
X333625Y169968D01*
X333486Y169866D01*
X333339Y169765D01*
X333200Y169663D01*
X333070Y169571D01*
X333061Y169561D01*
X333024Y169534D01*
X332969Y169487D01*
X332904Y169423D01*
X332765Y169284D01*
X332701Y169210D01*
X332645Y169136D01*
X332636Y169127D01*
X332627Y169108D01*
X332608Y169071D01*
X332580Y169016D01*
X332553Y168960D01*
X332525Y168896D01*
X332479Y168748D01*
Y168738D01*
X332469Y168720D01*
Y168683D01*
X332460Y168637D01*
X332451Y168572D01*
Y168498D01*
X332442Y168396D01*
Y167305D01*
X335280D01*
Y166455D01*
X328882D01*
Y169423D01*
X328891Y169497D01*
Y169580D01*
X328901Y169774D01*
X328928Y169977D01*
X328956Y170199D01*
X329002Y170403D01*
X329030Y170504D01*
X329058Y170588D01*
Y170597D01*
X329067Y170606D01*
X329095Y170662D01*
X329132Y170745D01*
X329197Y170847D01*
X329280Y170957D01*
X329391Y171078D01*
X329520Y171189D01*
X329668Y171299D01*
X329677D01*
X329687Y171309D01*
X329742Y171346D01*
X329834Y171383D01*
X329955Y171438D01*
X330093Y171484D01*
X330260Y171531D01*
X330435Y171558D01*
X330630Y171568D01*
X330639D01*
X330657D01*
X330694D01*
X330741Y171558D01*
X330805D01*
X330870Y171549D01*
X331027Y171512D01*
X331212Y171457D01*
X331406Y171383D01*
X331600Y171272D01*
X331693Y171198D01*
X331785Y171124D01*
X331795Y171115D01*
X331804Y171105D01*
X331832Y171078D01*
X331859Y171041D01*
X331896Y170994D01*
X331933Y170939D01*
X331979Y170865D01*
X332035Y170791D01*
X332081Y170699D01*
X332127Y170597D01*
X332183Y170486D01*
X332229Y170366D01*
X332266Y170227D01*
X332312Y170088D01*
X332340Y169931D01*
X332368Y169765D01*
X332377Y169783D01*
X332395Y169820D01*
X332432Y169876D01*
X332469Y169950D01*
X332571Y170116D01*
X332636Y170199D01*
X332691Y170273D01*
X332710Y170292D01*
X332756Y170338D01*
X332830Y170412D01*
X332922Y170504D01*
X333052Y170606D01*
X333191Y170726D01*
X333357Y170847D01*
X333542Y170976D01*
X335280Y172076D01*
Y171022D01*
D02*
G37*
G36*
Y164180D02*
X332266D01*
Y160870D01*
X335280D01*
Y160020D01*
X328882D01*
Y160870D01*
X331508D01*
Y164180D01*
X328882D01*
Y165031D01*
X335280D01*
Y164180D01*
D02*
G37*
G36*
X270425Y273002D02*
X267457D01*
X267383Y273011D01*
X267300D01*
X267106Y273021D01*
X266903Y273048D01*
X266681Y273076D01*
X266477Y273122D01*
X266376Y273150D01*
X266292Y273178D01*
X266283D01*
X266274Y273187D01*
X266218Y273215D01*
X266135Y273252D01*
X266033Y273316D01*
X265923Y273400D01*
X265802Y273511D01*
X265691Y273640D01*
X265580Y273788D01*
Y273797D01*
X265571Y273806D01*
X265534Y273862D01*
X265497Y273954D01*
X265442Y274075D01*
X265396Y274213D01*
X265349Y274380D01*
X265322Y274555D01*
X265312Y274750D01*
Y274759D01*
Y274777D01*
Y274814D01*
X265322Y274860D01*
Y274925D01*
X265331Y274990D01*
X265368Y275147D01*
X265423Y275332D01*
X265497Y275526D01*
X265608Y275720D01*
X265682Y275813D01*
X265756Y275905D01*
X265765Y275914D01*
X265775Y275924D01*
X265802Y275951D01*
X265839Y275979D01*
X265886Y276016D01*
X265941Y276053D01*
X266015Y276099D01*
X266089Y276155D01*
X266181Y276201D01*
X266283Y276247D01*
X266394Y276303D01*
X266514Y276349D01*
X266653Y276386D01*
X266792Y276432D01*
X266949Y276460D01*
X267115Y276488D01*
X267097Y276497D01*
X267060Y276515D01*
X267004Y276552D01*
X266930Y276589D01*
X266764Y276691D01*
X266681Y276756D01*
X266607Y276811D01*
X266588Y276830D01*
X266542Y276876D01*
X266468Y276950D01*
X266376Y277042D01*
X266274Y277172D01*
X266154Y277311D01*
X266033Y277477D01*
X265904Y277662D01*
X264804Y279400D01*
X265858D01*
X266699Y278069D01*
Y278060D01*
X266718Y278041D01*
X266736Y278013D01*
X266764Y277976D01*
X266829Y277875D01*
X266912Y277745D01*
X267013Y277606D01*
X267115Y277458D01*
X267217Y277320D01*
X267309Y277190D01*
X267319Y277181D01*
X267346Y277144D01*
X267393Y277089D01*
X267457Y277024D01*
X267596Y276885D01*
X267670Y276821D01*
X267744Y276765D01*
X267753Y276756D01*
X267772Y276747D01*
X267809Y276728D01*
X267864Y276700D01*
X267920Y276673D01*
X267984Y276645D01*
X268132Y276599D01*
X268141D01*
X268160Y276589D01*
X268197D01*
X268243Y276580D01*
X268308Y276571D01*
X268382D01*
X268484Y276562D01*
X269575D01*
Y279400D01*
X270425D01*
Y273002D01*
D02*
G37*
G36*
X276860D02*
X276010D01*
Y275628D01*
X272700D01*
Y273002D01*
X271849D01*
Y279400D01*
X272700D01*
Y276386D01*
X276010D01*
Y279400D01*
X276860D01*
Y273002D01*
D02*
G37*
G36*
X262132Y274398D02*
X262141Y274408D01*
X262187Y274444D01*
X262243Y274500D01*
X262335Y274565D01*
X262437Y274648D01*
X262566Y274740D01*
X262714Y274842D01*
X262881Y274944D01*
X262890D01*
X262899Y274953D01*
X262955Y274990D01*
X263047Y275036D01*
X263158Y275092D01*
X263288Y275156D01*
X263426Y275221D01*
X263565Y275286D01*
X263704Y275341D01*
Y274583D01*
X263694D01*
X263676Y274565D01*
X263639Y274555D01*
X263593Y274528D01*
X263537Y274500D01*
X263472Y274463D01*
X263315Y274370D01*
X263130Y274269D01*
X262945Y274139D01*
X262751Y273991D01*
X262557Y273834D01*
X262548Y273825D01*
X262539Y273816D01*
X262511Y273788D01*
X262474Y273760D01*
X262391Y273668D01*
X262280Y273557D01*
X262169Y273427D01*
X262049Y273279D01*
X261947Y273132D01*
X261854Y272974D01*
X261346D01*
Y279400D01*
X262132D01*
Y274398D01*
D02*
G37*
G36*
X651669Y629492D02*
X651659Y629418D01*
Y629335D01*
X651650Y629141D01*
X651622Y628937D01*
X651595Y628716D01*
X651549Y628512D01*
X651521Y628410D01*
X651493Y628327D01*
Y628318D01*
X651484Y628309D01*
X651456Y628253D01*
X651419Y628170D01*
X651354Y628068D01*
X651271Y627957D01*
X651160Y627837D01*
X651031Y627726D01*
X650883Y627615D01*
X650874D01*
X650864Y627606D01*
X650809Y627569D01*
X650716Y627532D01*
X650596Y627477D01*
X650458Y627430D01*
X650291Y627384D01*
X650116Y627356D01*
X649921Y627347D01*
X649912D01*
X649894D01*
X649857D01*
X649810Y627356D01*
X649746D01*
X649681Y627366D01*
X649524Y627403D01*
X649339Y627458D01*
X649145Y627532D01*
X648951Y627643D01*
X648858Y627717D01*
X648766Y627791D01*
X648756Y627800D01*
X648747Y627809D01*
X648719Y627837D01*
X648692Y627874D01*
X648655Y627920D01*
X648618Y627976D01*
X648571Y628050D01*
X648516Y628124D01*
X648470Y628216D01*
X648424Y628318D01*
X648368Y628429D01*
X648322Y628549D01*
X648285Y628688D01*
X648239Y628827D01*
X648211Y628984D01*
X648183Y629150D01*
X648174Y629132D01*
X648155Y629095D01*
X648119Y629039D01*
X648082Y628965D01*
X647980Y628799D01*
X647915Y628716D01*
X647860Y628642D01*
X647841Y628623D01*
X647795Y628577D01*
X647721Y628503D01*
X647628Y628410D01*
X647499Y628309D01*
X647360Y628189D01*
X647194Y628068D01*
X647009Y627939D01*
X645271Y626839D01*
Y627893D01*
X646602Y628734D01*
X646611D01*
X646630Y628753D01*
X646658Y628771D01*
X646695Y628799D01*
X646796Y628863D01*
X646926Y628947D01*
X647065Y629048D01*
X647212Y629150D01*
X647351Y629252D01*
X647480Y629344D01*
X647490Y629354D01*
X647527Y629381D01*
X647582Y629427D01*
X647647Y629492D01*
X647786Y629631D01*
X647850Y629705D01*
X647906Y629779D01*
X647915Y629788D01*
X647924Y629807D01*
X647943Y629844D01*
X647971Y629899D01*
X647998Y629954D01*
X648026Y630019D01*
X648072Y630167D01*
Y630176D01*
X648082Y630195D01*
Y630232D01*
X648091Y630278D01*
X648100Y630343D01*
Y630417D01*
X648109Y630518D01*
Y631609D01*
X645271D01*
Y632460D01*
X651669D01*
Y629492D01*
D02*
G37*
G36*
X650088Y625729D02*
X650106Y625711D01*
X650116Y625674D01*
X650143Y625628D01*
X650171Y625572D01*
X650208Y625507D01*
X650300Y625350D01*
X650402Y625165D01*
X650532Y624980D01*
X650679Y624786D01*
X650837Y624592D01*
X650846Y624583D01*
X650855Y624574D01*
X650883Y624546D01*
X650911Y624509D01*
X651003Y624426D01*
X651114Y624315D01*
X651244Y624204D01*
X651391Y624084D01*
X651539Y623982D01*
X651696Y623889D01*
Y623381D01*
X645271D01*
Y624167D01*
X650273D01*
X650263Y624176D01*
X650227Y624222D01*
X650171Y624278D01*
X650106Y624370D01*
X650023Y624472D01*
X649931Y624601D01*
X649829Y624749D01*
X649727Y624916D01*
Y624925D01*
X649718Y624934D01*
X649681Y624990D01*
X649635Y625082D01*
X649579Y625193D01*
X649515Y625322D01*
X649450Y625461D01*
X649385Y625600D01*
X649330Y625738D01*
X650088D01*
Y625729D01*
D02*
G37*
G36*
X648433Y621393D02*
X648562D01*
X648710Y621384D01*
X648886Y621365D01*
X649080Y621347D01*
X649293Y621319D01*
X649505Y621282D01*
X649736Y621236D01*
X649958Y621180D01*
X650180Y621116D01*
X650393Y621032D01*
X650596Y620940D01*
X650790Y620838D01*
X650957Y620718D01*
X650966Y620709D01*
X650985Y620690D01*
X651022Y620653D01*
X651077Y620607D01*
X651133Y620552D01*
X651188Y620478D01*
X651262Y620385D01*
X651327Y620293D01*
X651391Y620182D01*
X651465Y620062D01*
X651521Y619923D01*
X651586Y619784D01*
X651632Y619627D01*
X651669Y619461D01*
X651687Y619285D01*
X651696Y619100D01*
Y619026D01*
X651687Y618971D01*
Y618906D01*
X651678Y618832D01*
X651641Y618656D01*
X651595Y618462D01*
X651521Y618259D01*
X651410Y618055D01*
X651345Y617954D01*
X651271Y617861D01*
X651262Y617852D01*
X651253Y617843D01*
X651225Y617815D01*
X651197Y617787D01*
X651151Y617741D01*
X651096Y617704D01*
X650966Y617602D01*
X650800Y617501D01*
X650596Y617408D01*
X650365Y617325D01*
X650106Y617270D01*
X650042Y618055D01*
X650051D01*
X650060Y618065D01*
X650116Y618074D01*
X650199Y618102D01*
X650300Y618139D01*
X650411Y618176D01*
X650522Y618231D01*
X650624Y618296D01*
X650707Y618360D01*
X650726Y618379D01*
X650763Y618416D01*
X650818Y618481D01*
X650883Y618573D01*
X650938Y618693D01*
X650994Y618823D01*
X651031Y618980D01*
X651049Y619146D01*
Y619211D01*
X651040Y619285D01*
X651022Y619368D01*
X650994Y619479D01*
X650957Y619590D01*
X650911Y619701D01*
X650837Y619812D01*
X650827Y619831D01*
X650790Y619877D01*
X650726Y619941D01*
X650633Y620025D01*
X650522Y620117D01*
X650393Y620219D01*
X650227Y620311D01*
X650042Y620404D01*
X650032D01*
X650014Y620413D01*
X649986Y620422D01*
X649949Y620441D01*
X649894Y620450D01*
X649829Y620468D01*
X649755Y620487D01*
X649662Y620505D01*
X649561Y620533D01*
X649450Y620552D01*
X649330Y620570D01*
X649200Y620579D01*
X649052Y620598D01*
X648904Y620607D01*
X648738Y620616D01*
X648571D01*
X648581Y620607D01*
X648636Y620570D01*
X648710Y620505D01*
X648803Y620422D01*
X648914Y620330D01*
X649015Y620210D01*
X649117Y620080D01*
X649209Y619932D01*
Y619923D01*
X649219Y619914D01*
X649246Y619858D01*
X649274Y619775D01*
X649320Y619664D01*
X649357Y619535D01*
X649385Y619387D01*
X649413Y619230D01*
X649422Y619063D01*
Y618989D01*
X649413Y618934D01*
X649404Y618860D01*
X649394Y618786D01*
X649376Y618693D01*
X649348Y618601D01*
X649283Y618388D01*
X649237Y618277D01*
X649173Y618166D01*
X649108Y618055D01*
X649034Y617935D01*
X648941Y617824D01*
X648840Y617723D01*
X648830Y617713D01*
X648812Y617695D01*
X648784Y617667D01*
X648738Y617639D01*
X648673Y617593D01*
X648608Y617547D01*
X648525Y617501D01*
X648433Y617445D01*
X648331Y617390D01*
X648220Y617343D01*
X648091Y617297D01*
X647961Y617251D01*
X647823Y617223D01*
X647665Y617196D01*
X647508Y617177D01*
X647342Y617168D01*
X647333D01*
X647314D01*
X647286D01*
X647240D01*
X647185Y617177D01*
X647129D01*
X646981Y617205D01*
X646806Y617233D01*
X646621Y617279D01*
X646417Y617343D01*
X646223Y617436D01*
X646214D01*
X646205Y617445D01*
X646177Y617464D01*
X646140Y617482D01*
X646048Y617538D01*
X645927Y617621D01*
X645798Y617723D01*
X645668Y617843D01*
X645539Y617991D01*
X645428Y618148D01*
Y618157D01*
X645419Y618166D01*
X645400Y618194D01*
X645391Y618231D01*
X645345Y618324D01*
X645299Y618444D01*
X645243Y618601D01*
X645206Y618777D01*
X645169Y618971D01*
X645160Y619183D01*
Y619230D01*
X645169Y619276D01*
Y619350D01*
X645178Y619433D01*
X645197Y619525D01*
X645225Y619636D01*
X645252Y619747D01*
X645289Y619877D01*
X645335Y620006D01*
X645391Y620136D01*
X645465Y620274D01*
X645548Y620404D01*
X645641Y620533D01*
X645752Y620663D01*
X645881Y620783D01*
X645890Y620792D01*
X645918Y620811D01*
X645955Y620838D01*
X646020Y620875D01*
X646103Y620931D01*
X646195Y620977D01*
X646316Y621032D01*
X646445Y621088D01*
X646602Y621153D01*
X646778Y621208D01*
X646972Y621254D01*
X647185Y621301D01*
X647425Y621347D01*
X647684Y621375D01*
X647961Y621393D01*
X648257Y621402D01*
X648266D01*
X648276D01*
X648303D01*
X648340D01*
X648433Y621393D01*
D02*
G37*
G36*
X180075Y913555D02*
X181610D01*
Y912769D01*
X180075D01*
Y909986D01*
X179354D01*
X175212Y912917D01*
Y913555D01*
X179354D01*
Y914424D01*
X180075D01*
Y913555D01*
D02*
G37*
G36*
X181610Y907453D02*
X176608D01*
X176618Y907444D01*
X176654Y907398D01*
X176710Y907342D01*
X176775Y907250D01*
X176858Y907148D01*
X176950Y907019D01*
X177052Y906871D01*
X177154Y906704D01*
Y906695D01*
X177163Y906686D01*
X177200Y906630D01*
X177246Y906538D01*
X177302Y906427D01*
X177366Y906298D01*
X177431Y906159D01*
X177496Y906020D01*
X177551Y905881D01*
X176793D01*
Y905891D01*
X176775Y905909D01*
X176765Y905946D01*
X176738Y905992D01*
X176710Y906048D01*
X176673Y906113D01*
X176581Y906270D01*
X176479Y906455D01*
X176349Y906640D01*
X176201Y906834D01*
X176044Y907028D01*
X176035Y907037D01*
X176026Y907046D01*
X175998Y907074D01*
X175970Y907111D01*
X175878Y907194D01*
X175767Y907305D01*
X175637Y907416D01*
X175490Y907536D01*
X175342Y907638D01*
X175184Y907730D01*
Y908239D01*
X181610D01*
Y907453D01*
D02*
G37*
G36*
Y903727D02*
X180279Y902886D01*
X180270D01*
X180251Y902867D01*
X180223Y902849D01*
X180186Y902821D01*
X180085Y902756D01*
X179955Y902673D01*
X179816Y902571D01*
X179669Y902470D01*
X179530Y902368D01*
X179400Y902276D01*
X179391Y902266D01*
X179354Y902239D01*
X179299Y902192D01*
X179234Y902128D01*
X179095Y901989D01*
X179031Y901915D01*
X178975Y901841D01*
X178966Y901832D01*
X178957Y901813D01*
X178938Y901776D01*
X178910Y901721D01*
X178883Y901665D01*
X178855Y901601D01*
X178809Y901453D01*
Y901443D01*
X178799Y901425D01*
Y901388D01*
X178790Y901342D01*
X178781Y901277D01*
Y901203D01*
X178772Y901101D01*
Y900011D01*
X181610D01*
Y899160D01*
X175212D01*
Y902128D01*
X175221Y902202D01*
Y902285D01*
X175231Y902479D01*
X175258Y902682D01*
X175286Y902904D01*
X175332Y903108D01*
X175360Y903209D01*
X175388Y903293D01*
Y903302D01*
X175397Y903311D01*
X175425Y903367D01*
X175462Y903450D01*
X175527Y903551D01*
X175610Y903662D01*
X175721Y903783D01*
X175850Y903894D01*
X175998Y904005D01*
X176007D01*
X176017Y904014D01*
X176072Y904051D01*
X176164Y904088D01*
X176285Y904143D01*
X176423Y904190D01*
X176590Y904236D01*
X176765Y904263D01*
X176959Y904273D01*
X176969D01*
X176987D01*
X177024D01*
X177071Y904263D01*
X177135D01*
X177200Y904254D01*
X177357Y904217D01*
X177542Y904162D01*
X177736Y904088D01*
X177930Y903977D01*
X178023Y903903D01*
X178115Y903829D01*
X178125Y903820D01*
X178134Y903810D01*
X178162Y903783D01*
X178189Y903746D01*
X178226Y903699D01*
X178263Y903644D01*
X178309Y903570D01*
X178365Y903496D01*
X178411Y903404D01*
X178457Y903302D01*
X178513Y903191D01*
X178559Y903071D01*
X178596Y902932D01*
X178642Y902793D01*
X178670Y902636D01*
X178698Y902470D01*
X178707Y902488D01*
X178725Y902525D01*
X178762Y902581D01*
X178799Y902655D01*
X178901Y902821D01*
X178966Y902904D01*
X179021Y902978D01*
X179040Y902997D01*
X179086Y903043D01*
X179160Y903117D01*
X179252Y903209D01*
X179382Y903311D01*
X179521Y903431D01*
X179687Y903551D01*
X179872Y903681D01*
X181610Y904781D01*
Y903727D01*
D02*
G37*
G36*
X87630Y822514D02*
X87621D01*
X87584D01*
X87528D01*
X87454Y822523D01*
X87371Y822532D01*
X87279Y822551D01*
X87186Y822569D01*
X87085Y822606D01*
X87075D01*
X87066Y822615D01*
X87011Y822634D01*
X86927Y822671D01*
X86817Y822726D01*
X86687Y822800D01*
X86539Y822893D01*
X86391Y822994D01*
X86234Y823124D01*
X86225D01*
X86215Y823142D01*
X86160Y823189D01*
X86077Y823272D01*
X85957Y823392D01*
X85818Y823531D01*
X85652Y823706D01*
X85467Y823919D01*
X85272Y824150D01*
X85263Y824159D01*
X85236Y824196D01*
X85189Y824252D01*
X85134Y824316D01*
X85060Y824400D01*
X84977Y824501D01*
X84884Y824603D01*
X84782Y824723D01*
X84560Y824955D01*
X84339Y825186D01*
X84228Y825297D01*
X84117Y825398D01*
X84015Y825491D01*
X83913Y825565D01*
X83904D01*
X83895Y825583D01*
X83867Y825602D01*
X83830Y825620D01*
X83728Y825685D01*
X83608Y825759D01*
X83460Y825824D01*
X83303Y825888D01*
X83127Y825925D01*
X82961Y825944D01*
X82952D01*
X82943D01*
X82887Y825935D01*
X82795Y825925D01*
X82693Y825898D01*
X82563Y825861D01*
X82434Y825796D01*
X82305Y825713D01*
X82175Y825602D01*
X82157Y825583D01*
X82120Y825537D01*
X82073Y825472D01*
X82009Y825370D01*
X81953Y825241D01*
X81898Y825093D01*
X81861Y824918D01*
X81852Y824723D01*
Y824668D01*
X81861Y824631D01*
X81870Y824520D01*
X81898Y824390D01*
X81935Y824252D01*
X82000Y824095D01*
X82083Y823947D01*
X82194Y823808D01*
X82212Y823790D01*
X82258Y823753D01*
X82332Y823697D01*
X82443Y823642D01*
X82573Y823577D01*
X82739Y823521D01*
X82924Y823484D01*
X83137Y823466D01*
X83054Y822662D01*
X83044D01*
X83017Y822671D01*
X82970D01*
X82906Y822680D01*
X82832Y822699D01*
X82748Y822717D01*
X82647Y822745D01*
X82545Y822773D01*
X82323Y822847D01*
X82101Y822957D01*
X81990Y823022D01*
X81879Y823105D01*
X81778Y823189D01*
X81685Y823281D01*
X81676Y823290D01*
X81667Y823309D01*
X81639Y823336D01*
X81611Y823383D01*
X81574Y823438D01*
X81537Y823503D01*
X81491Y823577D01*
X81445Y823669D01*
X81398Y823771D01*
X81352Y823882D01*
X81315Y824002D01*
X81278Y824132D01*
X81251Y824270D01*
X81223Y824418D01*
X81214Y824575D01*
X81204Y824742D01*
Y824834D01*
X81214Y824899D01*
X81223Y824973D01*
X81232Y825065D01*
X81251Y825167D01*
X81269Y825269D01*
X81334Y825509D01*
X81426Y825750D01*
X81482Y825870D01*
X81546Y825990D01*
X81630Y826101D01*
X81722Y826203D01*
X81731Y826212D01*
X81741Y826230D01*
X81778Y826249D01*
X81815Y826286D01*
X81861Y826332D01*
X81925Y826378D01*
X81990Y826424D01*
X82073Y826480D01*
X82249Y826572D01*
X82471Y826665D01*
X82582Y826702D01*
X82711Y826720D01*
X82841Y826739D01*
X82979Y826748D01*
X82998D01*
X83044D01*
X83118Y826739D01*
X83220Y826730D01*
X83331Y826711D01*
X83460Y826674D01*
X83599Y826637D01*
X83738Y826582D01*
X83756Y826572D01*
X83802Y826554D01*
X83876Y826517D01*
X83978Y826461D01*
X84089Y826388D01*
X84228Y826295D01*
X84366Y826184D01*
X84524Y826055D01*
X84542Y826036D01*
X84598Y825990D01*
X84644Y825944D01*
X84690Y825898D01*
X84745Y825842D01*
X84819Y825768D01*
X84893Y825694D01*
X84977Y825602D01*
X85069Y825509D01*
X85171Y825398D01*
X85272Y825278D01*
X85393Y825149D01*
X85513Y825001D01*
X85642Y824853D01*
X85652Y824844D01*
X85670Y824825D01*
X85698Y824788D01*
X85735Y824742D01*
X85790Y824686D01*
X85846Y824622D01*
X85966Y824474D01*
X86105Y824316D01*
X86243Y824169D01*
X86363Y824039D01*
X86410Y823984D01*
X86456Y823938D01*
X86465Y823928D01*
X86493Y823901D01*
X86530Y823864D01*
X86585Y823817D01*
X86650Y823771D01*
X86715Y823716D01*
X86872Y823605D01*
Y826757D01*
X87630D01*
Y822514D01*
D02*
G37*
G36*
Y819823D02*
X82628D01*
X82638Y819814D01*
X82674Y819768D01*
X82730Y819712D01*
X82795Y819620D01*
X82878Y819518D01*
X82970Y819389D01*
X83072Y819241D01*
X83174Y819074D01*
Y819065D01*
X83183Y819056D01*
X83220Y819000D01*
X83266Y818908D01*
X83322Y818797D01*
X83386Y818668D01*
X83451Y818529D01*
X83516Y818390D01*
X83571Y818251D01*
X82813D01*
Y818261D01*
X82795Y818279D01*
X82785Y818316D01*
X82758Y818362D01*
X82730Y818418D01*
X82693Y818483D01*
X82600Y818640D01*
X82499Y818825D01*
X82369Y819010D01*
X82221Y819204D01*
X82064Y819398D01*
X82055Y819407D01*
X82046Y819416D01*
X82018Y819444D01*
X81990Y819481D01*
X81898Y819564D01*
X81787Y819675D01*
X81657Y819786D01*
X81510Y819906D01*
X81362Y820008D01*
X81204Y820100D01*
Y820609D01*
X87630D01*
Y819823D01*
D02*
G37*
G36*
Y816097D02*
X86299Y815256D01*
X86290D01*
X86271Y815237D01*
X86243Y815219D01*
X86206Y815191D01*
X86105Y815126D01*
X85975Y815043D01*
X85836Y814941D01*
X85688Y814840D01*
X85550Y814738D01*
X85420Y814646D01*
X85411Y814636D01*
X85374Y814609D01*
X85319Y814562D01*
X85254Y814498D01*
X85115Y814359D01*
X85051Y814285D01*
X84995Y814211D01*
X84986Y814202D01*
X84977Y814183D01*
X84958Y814146D01*
X84930Y814091D01*
X84903Y814035D01*
X84875Y813971D01*
X84829Y813823D01*
Y813813D01*
X84819Y813795D01*
Y813758D01*
X84810Y813712D01*
X84801Y813647D01*
Y813573D01*
X84792Y813471D01*
Y812381D01*
X87630D01*
Y811530D01*
X81232D01*
Y814498D01*
X81241Y814572D01*
Y814655D01*
X81251Y814849D01*
X81278Y815052D01*
X81306Y815274D01*
X81352Y815478D01*
X81380Y815579D01*
X81408Y815663D01*
Y815672D01*
X81417Y815681D01*
X81445Y815737D01*
X81482Y815820D01*
X81546Y815921D01*
X81630Y816032D01*
X81741Y816153D01*
X81870Y816264D01*
X82018Y816375D01*
X82027D01*
X82037Y816384D01*
X82092Y816421D01*
X82184Y816458D01*
X82305Y816513D01*
X82443Y816560D01*
X82610Y816606D01*
X82785Y816633D01*
X82979Y816643D01*
X82989D01*
X83007D01*
X83044D01*
X83090Y816633D01*
X83155D01*
X83220Y816624D01*
X83377Y816587D01*
X83562Y816532D01*
X83756Y816458D01*
X83950Y816347D01*
X84043Y816273D01*
X84135Y816199D01*
X84144Y816190D01*
X84154Y816180D01*
X84181Y816153D01*
X84209Y816116D01*
X84246Y816069D01*
X84283Y816014D01*
X84329Y815940D01*
X84385Y815866D01*
X84431Y815774D01*
X84477Y815672D01*
X84533Y815561D01*
X84579Y815441D01*
X84616Y815302D01*
X84662Y815163D01*
X84690Y815006D01*
X84718Y814840D01*
X84727Y814858D01*
X84745Y814895D01*
X84782Y814951D01*
X84819Y815025D01*
X84921Y815191D01*
X84986Y815274D01*
X85041Y815348D01*
X85060Y815367D01*
X85106Y815413D01*
X85180Y815487D01*
X85272Y815579D01*
X85402Y815681D01*
X85541Y815801D01*
X85707Y815921D01*
X85892Y816051D01*
X87630Y817151D01*
Y816097D01*
D02*
G37*
G36*
X331553Y746760D02*
X330767D01*
Y751762D01*
X330758Y751752D01*
X330712Y751715D01*
X330656Y751660D01*
X330564Y751595D01*
X330462Y751512D01*
X330333Y751420D01*
X330185Y751318D01*
X330018Y751216D01*
X330009D01*
X330000Y751207D01*
X329944Y751170D01*
X329852Y751124D01*
X329741Y751068D01*
X329612Y751004D01*
X329473Y750939D01*
X329334Y750874D01*
X329196Y750819D01*
Y751577D01*
X329205D01*
X329223Y751595D01*
X329260Y751605D01*
X329306Y751632D01*
X329362Y751660D01*
X329427Y751697D01*
X329584Y751789D01*
X329769Y751891D01*
X329954Y752021D01*
X330148Y752169D01*
X330342Y752326D01*
X330351Y752335D01*
X330360Y752344D01*
X330388Y752372D01*
X330425Y752400D01*
X330508Y752492D01*
X330619Y752603D01*
X330730Y752732D01*
X330850Y752880D01*
X330952Y753028D01*
X331045Y753186D01*
X331553D01*
Y746760D01*
D02*
G37*
G36*
X326579D02*
X325793D01*
Y751762D01*
X325784Y751752D01*
X325738Y751715D01*
X325682Y751660D01*
X325590Y751595D01*
X325488Y751512D01*
X325359Y751420D01*
X325211Y751318D01*
X325044Y751216D01*
X325035D01*
X325026Y751207D01*
X324970Y751170D01*
X324878Y751124D01*
X324767Y751068D01*
X324637Y751004D01*
X324499Y750939D01*
X324360Y750874D01*
X324221Y750819D01*
Y751577D01*
X324231D01*
X324249Y751595D01*
X324286Y751605D01*
X324332Y751632D01*
X324388Y751660D01*
X324453Y751697D01*
X324610Y751789D01*
X324795Y751891D01*
X324980Y752021D01*
X325174Y752169D01*
X325368Y752326D01*
X325377Y752335D01*
X325386Y752344D01*
X325414Y752372D01*
X325451Y752400D01*
X325534Y752492D01*
X325645Y752603D01*
X325756Y752732D01*
X325876Y752880D01*
X325978Y753028D01*
X326071Y753186D01*
X326579D01*
Y746760D01*
D02*
G37*
G36*
X320542Y753149D02*
X320625D01*
X320819Y753139D01*
X321022Y753112D01*
X321244Y753084D01*
X321448Y753038D01*
X321549Y753010D01*
X321633Y752982D01*
X321642D01*
X321651Y752973D01*
X321707Y752945D01*
X321790Y752908D01*
X321892Y752843D01*
X322002Y752760D01*
X322123Y752649D01*
X322234Y752520D01*
X322345Y752372D01*
Y752363D01*
X322354Y752354D01*
X322391Y752298D01*
X322428Y752206D01*
X322483Y752085D01*
X322529Y751947D01*
X322576Y751780D01*
X322603Y751605D01*
X322613Y751410D01*
Y751401D01*
Y751383D01*
Y751346D01*
X322603Y751300D01*
Y751235D01*
X322594Y751170D01*
X322557Y751013D01*
X322502Y750828D01*
X322428Y750634D01*
X322317Y750440D01*
X322243Y750347D01*
X322169Y750255D01*
X322160Y750246D01*
X322150Y750236D01*
X322123Y750209D01*
X322086Y750181D01*
X322039Y750144D01*
X321984Y750107D01*
X321910Y750061D01*
X321836Y750005D01*
X321744Y749959D01*
X321642Y749913D01*
X321531Y749857D01*
X321411Y749811D01*
X321272Y749774D01*
X321133Y749728D01*
X320976Y749700D01*
X320810Y749672D01*
X320828Y749663D01*
X320865Y749644D01*
X320921Y749607D01*
X320995Y749570D01*
X321161Y749469D01*
X321244Y749404D01*
X321318Y749349D01*
X321337Y749330D01*
X321383Y749284D01*
X321457Y749210D01*
X321549Y749118D01*
X321651Y748988D01*
X321771Y748849D01*
X321892Y748683D01*
X322021Y748498D01*
X323121Y746760D01*
X322067D01*
X321226Y748091D01*
Y748101D01*
X321207Y748119D01*
X321189Y748147D01*
X321161Y748184D01*
X321096Y748285D01*
X321013Y748415D01*
X320911Y748553D01*
X320810Y748701D01*
X320708Y748840D01*
X320616Y748970D01*
X320606Y748979D01*
X320579Y749016D01*
X320532Y749071D01*
X320468Y749136D01*
X320329Y749275D01*
X320255Y749339D01*
X320181Y749395D01*
X320172Y749404D01*
X320153Y749413D01*
X320116Y749432D01*
X320061Y749460D01*
X320005Y749487D01*
X319941Y749515D01*
X319793Y749561D01*
X319783D01*
X319765Y749570D01*
X319728D01*
X319682Y749580D01*
X319617Y749589D01*
X319543D01*
X319441Y749598D01*
X318351D01*
Y746760D01*
X317500D01*
Y753158D01*
X320468D01*
X320542Y753149D01*
D02*
G37*
G36*
X64182Y690923D02*
X64256Y690914D01*
X64339Y690895D01*
X64431Y690877D01*
X64533Y690858D01*
X64755Y690784D01*
X64875Y690729D01*
X64986Y690673D01*
X65106Y690599D01*
X65226Y690516D01*
X65347Y690424D01*
X65458Y690313D01*
X65467Y690303D01*
X65485Y690285D01*
X65513Y690248D01*
X65550Y690202D01*
X65596Y690146D01*
X65642Y690072D01*
X65698Y689989D01*
X65744Y689887D01*
X65800Y689786D01*
X65855Y689665D01*
X65901Y689545D01*
X65948Y689407D01*
X65985Y689259D01*
X66012Y689101D01*
X66031Y688944D01*
X66040Y688769D01*
Y688685D01*
X66031Y688630D01*
X66022Y688556D01*
X66012Y688473D01*
X65994Y688380D01*
X65975Y688279D01*
X65920Y688057D01*
X65827Y687826D01*
X65772Y687705D01*
X65707Y687594D01*
X65624Y687484D01*
X65541Y687373D01*
X65532Y687363D01*
X65513Y687345D01*
X65485Y687317D01*
X65448Y687289D01*
X65402Y687243D01*
X65337Y687197D01*
X65273Y687141D01*
X65189Y687086D01*
X65097Y687030D01*
X65005Y686975D01*
X64783Y686873D01*
X64524Y686790D01*
X64385Y686762D01*
X64237Y686744D01*
X64135Y687530D01*
X64145D01*
X64163Y687539D01*
X64200Y687548D01*
X64246Y687558D01*
X64302Y687567D01*
X64367Y687585D01*
X64505Y687631D01*
X64672Y687696D01*
X64829Y687779D01*
X64977Y687872D01*
X65106Y687983D01*
X65115Y688001D01*
X65153Y688038D01*
X65199Y688112D01*
X65245Y688205D01*
X65300Y688316D01*
X65347Y688454D01*
X65384Y688611D01*
X65393Y688778D01*
Y688833D01*
X65384Y688870D01*
X65374Y688972D01*
X65347Y689101D01*
X65300Y689249D01*
X65236Y689407D01*
X65143Y689564D01*
X65014Y689712D01*
X64995Y689730D01*
X64940Y689776D01*
X64857Y689832D01*
X64746Y689906D01*
X64607Y689980D01*
X64450Y690035D01*
X64265Y690081D01*
X64061Y690100D01*
X64052D01*
X64034D01*
X64006D01*
X63969Y690091D01*
X63867Y690081D01*
X63747Y690054D01*
X63599Y690017D01*
X63451Y689952D01*
X63303Y689860D01*
X63165Y689739D01*
X63146Y689721D01*
X63109Y689675D01*
X63054Y689601D01*
X62989Y689499D01*
X62924Y689370D01*
X62869Y689212D01*
X62832Y689037D01*
X62813Y688843D01*
Y688759D01*
X62823Y688695D01*
X62832Y688611D01*
X62850Y688519D01*
X62869Y688408D01*
X62897Y688288D01*
X62203Y688380D01*
Y688427D01*
X62212Y688464D01*
Y688584D01*
X62194Y688685D01*
X62175Y688806D01*
X62148Y688944D01*
X62101Y689101D01*
X62037Y689249D01*
X61954Y689407D01*
Y689416D01*
X61944Y689425D01*
X61907Y689471D01*
X61843Y689536D01*
X61759Y689610D01*
X61639Y689684D01*
X61501Y689749D01*
X61343Y689795D01*
X61251Y689813D01*
X61149D01*
X61140D01*
X61131D01*
X61075D01*
X61001Y689795D01*
X60900Y689776D01*
X60789Y689739D01*
X60668Y689693D01*
X60548Y689619D01*
X60437Y689518D01*
X60428Y689508D01*
X60391Y689462D01*
X60345Y689397D01*
X60289Y689314D01*
X60243Y689203D01*
X60197Y689074D01*
X60160Y688926D01*
X60151Y688759D01*
Y688685D01*
X60169Y688602D01*
X60188Y688491D01*
X60225Y688371D01*
X60271Y688251D01*
X60345Y688121D01*
X60437Y688001D01*
X60447Y687992D01*
X60493Y687955D01*
X60557Y687899D01*
X60650Y687835D01*
X60770Y687770D01*
X60918Y687705D01*
X61094Y687650D01*
X61297Y687613D01*
X61158Y686827D01*
X61149D01*
X61121Y686836D01*
X61084Y686845D01*
X61029Y686855D01*
X60964Y686873D01*
X60890Y686901D01*
X60715Y686956D01*
X60511Y687049D01*
X60308Y687160D01*
X60114Y687299D01*
X59938Y687474D01*
X59929Y687484D01*
X59920Y687502D01*
X59901Y687530D01*
X59873Y687567D01*
X59836Y687613D01*
X59799Y687678D01*
X59762Y687742D01*
X59716Y687826D01*
X59642Y688010D01*
X59568Y688223D01*
X59522Y688473D01*
X59503Y688602D01*
Y688833D01*
X59513Y688935D01*
X59531Y689055D01*
X59559Y689203D01*
X59605Y689370D01*
X59661Y689536D01*
X59735Y689702D01*
Y689712D01*
X59744Y689721D01*
X59772Y689776D01*
X59827Y689860D01*
X59892Y689952D01*
X59984Y690063D01*
X60086Y690174D01*
X60206Y690285D01*
X60345Y690377D01*
X60363Y690387D01*
X60409Y690414D01*
X60493Y690451D01*
X60594Y690498D01*
X60715Y690544D01*
X60853Y690581D01*
X61010Y690609D01*
X61168Y690618D01*
X61186D01*
X61242D01*
X61316Y690609D01*
X61417Y690590D01*
X61537Y690562D01*
X61667Y690516D01*
X61796Y690461D01*
X61926Y690387D01*
X61944Y690377D01*
X61981Y690350D01*
X62046Y690294D01*
X62120Y690220D01*
X62203Y690128D01*
X62296Y690017D01*
X62379Y689887D01*
X62462Y689730D01*
Y689739D01*
X62471Y689758D01*
X62481Y689786D01*
X62490Y689823D01*
X62527Y689924D01*
X62582Y690054D01*
X62656Y690202D01*
X62749Y690350D01*
X62869Y690488D01*
X63007Y690618D01*
X63026Y690627D01*
X63081Y690664D01*
X63174Y690719D01*
X63294Y690775D01*
X63442Y690830D01*
X63618Y690886D01*
X63821Y690923D01*
X64043Y690932D01*
X64052D01*
X64080D01*
X64126D01*
X64182Y690923D01*
D02*
G37*
G36*
X65929Y683933D02*
X60927D01*
X60936Y683924D01*
X60974Y683878D01*
X61029Y683822D01*
X61094Y683730D01*
X61177Y683628D01*
X61269Y683499D01*
X61371Y683351D01*
X61473Y683184D01*
Y683175D01*
X61482Y683166D01*
X61519Y683110D01*
X61565Y683018D01*
X61621Y682907D01*
X61685Y682777D01*
X61750Y682639D01*
X61815Y682500D01*
X61870Y682361D01*
X61112D01*
Y682371D01*
X61094Y682389D01*
X61084Y682426D01*
X61057Y682472D01*
X61029Y682528D01*
X60992Y682593D01*
X60900Y682750D01*
X60798Y682935D01*
X60668Y683120D01*
X60521Y683314D01*
X60363Y683508D01*
X60354Y683517D01*
X60345Y683526D01*
X60317Y683554D01*
X60289Y683591D01*
X60197Y683674D01*
X60086Y683785D01*
X59956Y683896D01*
X59809Y684016D01*
X59661Y684118D01*
X59503Y684211D01*
Y684719D01*
X65929D01*
Y683933D01*
D02*
G37*
G36*
Y680207D02*
X64598Y679366D01*
X64588D01*
X64570Y679347D01*
X64542Y679329D01*
X64505Y679301D01*
X64404Y679236D01*
X64274Y679153D01*
X64135Y679052D01*
X63988Y678950D01*
X63849Y678848D01*
X63719Y678756D01*
X63710Y678746D01*
X63673Y678719D01*
X63618Y678672D01*
X63553Y678608D01*
X63414Y678469D01*
X63350Y678395D01*
X63294Y678321D01*
X63285Y678312D01*
X63276Y678293D01*
X63257Y678256D01*
X63229Y678201D01*
X63202Y678145D01*
X63174Y678081D01*
X63128Y677933D01*
Y677924D01*
X63119Y677905D01*
Y677868D01*
X63109Y677822D01*
X63100Y677757D01*
Y677683D01*
X63091Y677581D01*
Y676490D01*
X65929D01*
Y675640D01*
X59531D01*
Y678608D01*
X59540Y678682D01*
Y678765D01*
X59550Y678959D01*
X59577Y679162D01*
X59605Y679384D01*
X59651Y679588D01*
X59679Y679689D01*
X59707Y679773D01*
Y679782D01*
X59716Y679791D01*
X59744Y679847D01*
X59781Y679930D01*
X59845Y680032D01*
X59929Y680143D01*
X60040Y680263D01*
X60169Y680374D01*
X60317Y680485D01*
X60326D01*
X60335Y680494D01*
X60391Y680531D01*
X60483Y680568D01*
X60604Y680623D01*
X60742Y680669D01*
X60909Y680716D01*
X61084Y680743D01*
X61279Y680753D01*
X61288D01*
X61306D01*
X61343D01*
X61389Y680743D01*
X61454D01*
X61519Y680734D01*
X61676Y680697D01*
X61861Y680642D01*
X62055Y680568D01*
X62249Y680457D01*
X62342Y680383D01*
X62434Y680309D01*
X62443Y680300D01*
X62453Y680290D01*
X62481Y680263D01*
X62508Y680226D01*
X62545Y680180D01*
X62582Y680124D01*
X62628Y680050D01*
X62684Y679976D01*
X62730Y679884D01*
X62776Y679782D01*
X62832Y679671D01*
X62878Y679551D01*
X62915Y679412D01*
X62961Y679273D01*
X62989Y679116D01*
X63017Y678950D01*
X63026Y678968D01*
X63045Y679005D01*
X63081Y679061D01*
X63119Y679135D01*
X63220Y679301D01*
X63285Y679384D01*
X63340Y679458D01*
X63359Y679477D01*
X63405Y679523D01*
X63479Y679597D01*
X63572Y679689D01*
X63701Y679791D01*
X63840Y679911D01*
X64006Y680032D01*
X64191Y680161D01*
X65929Y681261D01*
Y680207D01*
D02*
G37*
G36*
X485554Y796379D02*
X485628Y796370D01*
X485711Y796361D01*
X485812Y796342D01*
X485914Y796324D01*
X486155Y796268D01*
X486404Y796176D01*
X486534Y796120D01*
X486654Y796046D01*
X486783Y795972D01*
X486903Y795880D01*
X486913Y795871D01*
X486940Y795852D01*
X486977Y795815D01*
X487024Y795769D01*
X487079Y795704D01*
X487153Y795630D01*
X487218Y795538D01*
X487292Y795436D01*
X487366Y795325D01*
X487430Y795196D01*
X487495Y795057D01*
X487560Y794909D01*
X487606Y794752D01*
X487643Y794576D01*
X487671Y794391D01*
X487680Y794197D01*
Y794114D01*
X487671Y794049D01*
X487662Y793975D01*
X487652Y793892D01*
X487643Y793790D01*
X487615Y793689D01*
X487560Y793457D01*
X487477Y793226D01*
X487421Y793106D01*
X487356Y792986D01*
X487282Y792875D01*
X487199Y792764D01*
X487190Y792755D01*
X487181Y792736D01*
X487144Y792718D01*
X487107Y792681D01*
X487061Y792635D01*
X487005Y792588D01*
X486931Y792533D01*
X486848Y792487D01*
X486765Y792431D01*
X486663Y792376D01*
X486441Y792274D01*
X486182Y792191D01*
X486044Y792163D01*
X485896Y792145D01*
X485831Y792968D01*
X485840D01*
X485859D01*
X485886Y792977D01*
X485933Y792986D01*
X486034Y793014D01*
X486173Y793051D01*
X486312Y793106D01*
X486469Y793180D01*
X486608Y793273D01*
X486737Y793383D01*
X486746Y793402D01*
X486783Y793439D01*
X486829Y793513D01*
X486885Y793615D01*
X486940Y793726D01*
X486987Y793864D01*
X487024Y794021D01*
X487033Y794197D01*
Y794253D01*
X487024Y794290D01*
X487014Y794400D01*
X486977Y794530D01*
X486931Y794687D01*
X486857Y794844D01*
X486746Y795011D01*
X486682Y795085D01*
X486608Y795159D01*
X486598Y795168D01*
X486589Y795177D01*
X486561Y795196D01*
X486534Y795223D01*
X486432Y795288D01*
X486302Y795362D01*
X486145Y795427D01*
X485951Y795491D01*
X485720Y795538D01*
X485600Y795556D01*
X485470D01*
X485461D01*
X485443D01*
X485406D01*
X485359Y795547D01*
X485304D01*
X485239Y795538D01*
X485091Y795510D01*
X484916Y795464D01*
X484740Y795399D01*
X484574Y795307D01*
X484416Y795177D01*
X484407D01*
X484398Y795159D01*
X484352Y795112D01*
X484287Y795029D01*
X484213Y794918D01*
X484148Y794770D01*
X484084Y794604D01*
X484037Y794410D01*
X484019Y794299D01*
Y794123D01*
X484028Y794049D01*
X484037Y793957D01*
X484065Y793846D01*
X484093Y793735D01*
X484139Y793615D01*
X484194Y793494D01*
X484204Y793485D01*
X484222Y793448D01*
X484268Y793393D01*
X484315Y793319D01*
X484379Y793245D01*
X484463Y793171D01*
X484546Y793088D01*
X484647Y793023D01*
X484546Y792283D01*
X481254Y792903D01*
Y796083D01*
X482003D01*
Y793522D01*
X483732Y793180D01*
X483723Y793189D01*
X483714Y793208D01*
X483695Y793236D01*
X483667Y793282D01*
X483640Y793337D01*
X483603Y793402D01*
X483529Y793550D01*
X483455Y793735D01*
X483390Y793938D01*
X483344Y794160D01*
X483325Y794271D01*
Y794474D01*
X483335Y794530D01*
X483344Y794604D01*
X483353Y794687D01*
X483372Y794780D01*
X483399Y794881D01*
X483464Y795103D01*
X483510Y795223D01*
X483575Y795344D01*
X483640Y795464D01*
X483714Y795584D01*
X483806Y795695D01*
X483908Y795806D01*
X483917Y795815D01*
X483936Y795834D01*
X483963Y795861D01*
X484010Y795898D01*
X484074Y795945D01*
X484139Y795991D01*
X484222Y796046D01*
X484315Y796102D01*
X484416Y796148D01*
X484527Y796203D01*
X484657Y796250D01*
X484786Y796296D01*
X484925Y796333D01*
X485082Y796361D01*
X485239Y796379D01*
X485406Y796388D01*
X485415D01*
X485443D01*
X485489D01*
X485554Y796379D01*
D02*
G37*
G36*
X487569Y789343D02*
X482567D01*
X482576Y789334D01*
X482613Y789288D01*
X482669Y789232D01*
X482734Y789140D01*
X482817Y789038D01*
X482909Y788909D01*
X483011Y788761D01*
X483113Y788594D01*
Y788585D01*
X483122Y788576D01*
X483159Y788520D01*
X483205Y788428D01*
X483261Y788317D01*
X483325Y788187D01*
X483390Y788049D01*
X483455Y787910D01*
X483510Y787771D01*
X482752D01*
Y787781D01*
X482734Y787799D01*
X482724Y787836D01*
X482697Y787882D01*
X482669Y787938D01*
X482632Y788003D01*
X482539Y788160D01*
X482438Y788345D01*
X482308Y788530D01*
X482160Y788724D01*
X482003Y788918D01*
X481994Y788927D01*
X481985Y788936D01*
X481957Y788964D01*
X481929Y789001D01*
X481837Y789084D01*
X481726Y789195D01*
X481596Y789306D01*
X481449Y789426D01*
X481301Y789528D01*
X481143Y789621D01*
Y790129D01*
X487569D01*
Y789343D01*
D02*
G37*
G36*
Y785617D02*
X486238Y784776D01*
X486228D01*
X486210Y784757D01*
X486182Y784739D01*
X486145Y784711D01*
X486044Y784646D01*
X485914Y784563D01*
X485775Y784462D01*
X485628Y784360D01*
X485489Y784258D01*
X485359Y784166D01*
X485350Y784156D01*
X485313Y784129D01*
X485258Y784082D01*
X485193Y784018D01*
X485054Y783879D01*
X484990Y783805D01*
X484934Y783731D01*
X484925Y783722D01*
X484916Y783703D01*
X484897Y783666D01*
X484869Y783611D01*
X484842Y783555D01*
X484814Y783491D01*
X484768Y783343D01*
Y783334D01*
X484758Y783315D01*
Y783278D01*
X484749Y783232D01*
X484740Y783167D01*
Y783093D01*
X484731Y782991D01*
Y781900D01*
X487569D01*
Y781050D01*
X481171D01*
Y784018D01*
X481180Y784092D01*
Y784175D01*
X481190Y784369D01*
X481217Y784572D01*
X481245Y784794D01*
X481291Y784998D01*
X481319Y785099D01*
X481347Y785183D01*
Y785192D01*
X481356Y785201D01*
X481384Y785257D01*
X481421Y785340D01*
X481485Y785442D01*
X481569Y785553D01*
X481680Y785673D01*
X481809Y785784D01*
X481957Y785895D01*
X481966D01*
X481976Y785904D01*
X482031Y785941D01*
X482123Y785978D01*
X482244Y786033D01*
X482382Y786079D01*
X482549Y786126D01*
X482724Y786153D01*
X482919Y786163D01*
X482928D01*
X482946D01*
X482983D01*
X483030Y786153D01*
X483094D01*
X483159Y786144D01*
X483316Y786107D01*
X483501Y786052D01*
X483695Y785978D01*
X483889Y785867D01*
X483982Y785793D01*
X484074Y785719D01*
X484084Y785710D01*
X484093Y785700D01*
X484120Y785673D01*
X484148Y785636D01*
X484185Y785590D01*
X484222Y785534D01*
X484268Y785460D01*
X484324Y785386D01*
X484370Y785294D01*
X484416Y785192D01*
X484472Y785081D01*
X484518Y784961D01*
X484555Y784822D01*
X484601Y784683D01*
X484629Y784526D01*
X484657Y784360D01*
X484666Y784378D01*
X484684Y784415D01*
X484721Y784471D01*
X484758Y784545D01*
X484860Y784711D01*
X484925Y784794D01*
X484980Y784868D01*
X484999Y784887D01*
X485045Y784933D01*
X485119Y785007D01*
X485211Y785099D01*
X485341Y785201D01*
X485480Y785321D01*
X485646Y785442D01*
X485831Y785571D01*
X487569Y786671D01*
Y785617D01*
D02*
G37*
G36*
X855980Y318611D02*
X853012D01*
X852938Y318620D01*
X852855D01*
X852661Y318630D01*
X852458Y318657D01*
X852236Y318685D01*
X852032Y318731D01*
X851930Y318759D01*
X851847Y318787D01*
X851838D01*
X851829Y318796D01*
X851773Y318824D01*
X851690Y318861D01*
X851588Y318925D01*
X851478Y319009D01*
X851357Y319120D01*
X851246Y319249D01*
X851135Y319397D01*
Y319406D01*
X851126Y319415D01*
X851089Y319471D01*
X851052Y319564D01*
X850997Y319684D01*
X850950Y319822D01*
X850904Y319989D01*
X850876Y320164D01*
X850867Y320359D01*
Y320368D01*
Y320386D01*
Y320423D01*
X850876Y320470D01*
Y320534D01*
X850886Y320599D01*
X850923Y320756D01*
X850978Y320941D01*
X851052Y321135D01*
X851163Y321329D01*
X851237Y321422D01*
X851311Y321514D01*
X851320Y321524D01*
X851329Y321533D01*
X851357Y321561D01*
X851394Y321588D01*
X851441Y321625D01*
X851496Y321662D01*
X851570Y321708D01*
X851644Y321764D01*
X851736Y321810D01*
X851838Y321856D01*
X851949Y321912D01*
X852069Y321958D01*
X852208Y321995D01*
X852347Y322041D01*
X852504Y322069D01*
X852670Y322097D01*
X852652Y322106D01*
X852615Y322124D01*
X852559Y322161D01*
X852485Y322198D01*
X852319Y322300D01*
X852236Y322365D01*
X852162Y322420D01*
X852143Y322439D01*
X852097Y322485D01*
X852023Y322559D01*
X851930Y322651D01*
X851829Y322781D01*
X851709Y322920D01*
X851588Y323086D01*
X851459Y323271D01*
X850359Y325009D01*
X851413D01*
X852254Y323678D01*
Y323669D01*
X852273Y323650D01*
X852291Y323622D01*
X852319Y323585D01*
X852383Y323484D01*
X852467Y323354D01*
X852568Y323215D01*
X852670Y323068D01*
X852772Y322929D01*
X852864Y322799D01*
X852874Y322790D01*
X852901Y322753D01*
X852947Y322698D01*
X853012Y322633D01*
X853151Y322494D01*
X853225Y322430D01*
X853299Y322374D01*
X853308Y322365D01*
X853327Y322356D01*
X853364Y322337D01*
X853419Y322309D01*
X853475Y322282D01*
X853539Y322254D01*
X853687Y322208D01*
X853696D01*
X853715Y322198D01*
X853752D01*
X853798Y322189D01*
X853863Y322180D01*
X853937D01*
X854038Y322171D01*
X855129D01*
Y325009D01*
X855980D01*
Y318611D01*
D02*
G37*
G36*
X847687Y320007D02*
X847696Y320017D01*
X847742Y320053D01*
X847798Y320109D01*
X847890Y320174D01*
X847992Y320257D01*
X848121Y320349D01*
X848269Y320451D01*
X848436Y320553D01*
X848445D01*
X848454Y320562D01*
X848510Y320599D01*
X848602Y320645D01*
X848713Y320701D01*
X848842Y320765D01*
X848981Y320830D01*
X849120Y320895D01*
X849258Y320950D01*
Y320192D01*
X849249D01*
X849231Y320174D01*
X849194Y320164D01*
X849148Y320137D01*
X849092Y320109D01*
X849027Y320072D01*
X848870Y319979D01*
X848685Y319878D01*
X848500Y319748D01*
X848306Y319601D01*
X848112Y319443D01*
X848103Y319434D01*
X848094Y319425D01*
X848066Y319397D01*
X848029Y319369D01*
X847946Y319277D01*
X847835Y319166D01*
X847724Y319037D01*
X847604Y318888D01*
X847502Y318741D01*
X847409Y318583D01*
X846901D01*
Y325009D01*
X847687D01*
Y320007D01*
D02*
G37*
G36*
X842953Y325111D02*
X843027Y325102D01*
X843119Y325083D01*
X843221Y325065D01*
X843332Y325037D01*
X843443Y325000D01*
X843563Y324963D01*
X843683Y324907D01*
X843804Y324843D01*
X843924Y324769D01*
X844044Y324676D01*
X844155Y324575D01*
X844257Y324464D01*
X844266Y324454D01*
X844284Y324427D01*
X844312Y324380D01*
X844358Y324306D01*
X844405Y324223D01*
X844451Y324112D01*
X844516Y323983D01*
X844571Y323835D01*
X844626Y323669D01*
X844682Y323474D01*
X844737Y323262D01*
X844784Y323021D01*
X844830Y322762D01*
X844858Y322485D01*
X844876Y322180D01*
X844885Y321856D01*
Y321847D01*
Y321810D01*
Y321745D01*
Y321671D01*
X844876Y321570D01*
Y321459D01*
X844867Y321339D01*
X844858Y321200D01*
X844830Y320913D01*
X844784Y320608D01*
X844728Y320303D01*
X844691Y320164D01*
X844654Y320026D01*
Y320017D01*
X844645Y319998D01*
X844626Y319961D01*
X844608Y319915D01*
X844589Y319850D01*
X844553Y319785D01*
X844479Y319628D01*
X844386Y319462D01*
X844266Y319286D01*
X844127Y319110D01*
X843961Y318962D01*
X843952D01*
X843942Y318944D01*
X843915Y318925D01*
X843878Y318907D01*
X843831Y318870D01*
X843776Y318842D01*
X843637Y318768D01*
X843471Y318704D01*
X843277Y318639D01*
X843046Y318602D01*
X842796Y318583D01*
X842713D01*
X842611Y318593D01*
X842491Y318611D01*
X842352Y318639D01*
X842204Y318676D01*
X842047Y318722D01*
X841899Y318796D01*
X841890D01*
X841880Y318805D01*
X841834Y318833D01*
X841760Y318879D01*
X841668Y318944D01*
X841566Y319037D01*
X841455Y319138D01*
X841354Y319258D01*
X841252Y319397D01*
X841243Y319415D01*
X841206Y319462D01*
X841169Y319545D01*
X841104Y319665D01*
X841048Y319804D01*
X840975Y319961D01*
X840910Y320146D01*
X840854Y320349D01*
Y320359D01*
X840845Y320377D01*
X840836Y320405D01*
X840826Y320451D01*
X840817Y320507D01*
X840808Y320571D01*
X840790Y320654D01*
X840780Y320747D01*
X840762Y320849D01*
X840753Y320960D01*
X840743Y321089D01*
X840725Y321218D01*
X840716Y321366D01*
Y321514D01*
X840706Y321681D01*
Y321856D01*
Y321866D01*
Y321903D01*
Y321967D01*
Y322041D01*
X840716Y322143D01*
Y322254D01*
X840725Y322374D01*
X840734Y322504D01*
X840762Y322799D01*
X840808Y323105D01*
X840863Y323400D01*
X840900Y323539D01*
X840947Y323678D01*
Y323687D01*
X840956Y323705D01*
X840975Y323742D01*
X840993Y323789D01*
X841011Y323853D01*
X841048Y323918D01*
X841122Y324075D01*
X841215Y324242D01*
X841335Y324427D01*
X841474Y324593D01*
X841640Y324750D01*
X841649D01*
X841659Y324769D01*
X841686Y324787D01*
X841723Y324806D01*
X841770Y324833D01*
X841816Y324870D01*
X841954Y324935D01*
X842121Y325000D01*
X842315Y325065D01*
X842546Y325102D01*
X842796Y325120D01*
X842888D01*
X842953Y325111D01*
D02*
G37*
G36*
X518160Y333962D02*
X515192D01*
X515118Y333971D01*
X515035D01*
X514841Y333981D01*
X514637Y334008D01*
X514416Y334036D01*
X514212Y334082D01*
X514110Y334110D01*
X514027Y334138D01*
X514018D01*
X514009Y334147D01*
X513953Y334175D01*
X513870Y334212D01*
X513768Y334277D01*
X513657Y334360D01*
X513537Y334471D01*
X513426Y334600D01*
X513315Y334748D01*
Y334757D01*
X513306Y334767D01*
X513269Y334822D01*
X513232Y334914D01*
X513177Y335035D01*
X513130Y335173D01*
X513084Y335340D01*
X513056Y335515D01*
X513047Y335709D01*
Y335719D01*
Y335737D01*
Y335774D01*
X513056Y335821D01*
Y335885D01*
X513066Y335950D01*
X513103Y336107D01*
X513158Y336292D01*
X513232Y336486D01*
X513343Y336680D01*
X513417Y336773D01*
X513491Y336865D01*
X513500Y336875D01*
X513509Y336884D01*
X513537Y336912D01*
X513574Y336939D01*
X513620Y336976D01*
X513676Y337013D01*
X513750Y337059D01*
X513824Y337115D01*
X513916Y337161D01*
X514018Y337207D01*
X514129Y337263D01*
X514249Y337309D01*
X514388Y337346D01*
X514527Y337392D01*
X514684Y337420D01*
X514850Y337448D01*
X514832Y337457D01*
X514795Y337475D01*
X514739Y337512D01*
X514665Y337549D01*
X514499Y337651D01*
X514416Y337716D01*
X514342Y337771D01*
X514323Y337790D01*
X514277Y337836D01*
X514203Y337910D01*
X514110Y338002D01*
X514009Y338132D01*
X513889Y338271D01*
X513768Y338437D01*
X513639Y338622D01*
X512539Y340360D01*
X513593D01*
X514434Y339029D01*
Y339020D01*
X514453Y339001D01*
X514471Y338973D01*
X514499Y338936D01*
X514563Y338835D01*
X514647Y338705D01*
X514748Y338566D01*
X514850Y338419D01*
X514952Y338280D01*
X515044Y338150D01*
X515054Y338141D01*
X515081Y338104D01*
X515127Y338049D01*
X515192Y337984D01*
X515331Y337845D01*
X515405Y337781D01*
X515479Y337725D01*
X515488Y337716D01*
X515507Y337707D01*
X515544Y337688D01*
X515599Y337660D01*
X515654Y337633D01*
X515719Y337605D01*
X515867Y337559D01*
X515876D01*
X515895Y337549D01*
X515932D01*
X515978Y337540D01*
X516043Y337531D01*
X516117D01*
X516218Y337522D01*
X517309D01*
Y340360D01*
X518160D01*
Y333962D01*
D02*
G37*
G36*
X511087Y340351D02*
Y340323D01*
Y340286D01*
X511078Y340231D01*
Y340157D01*
X511069Y340064D01*
X511059Y339963D01*
X511050Y339852D01*
X511032Y339722D01*
X511013Y339593D01*
X510985Y339436D01*
X510958Y339278D01*
X510930Y339112D01*
X510893Y338927D01*
X510801Y338548D01*
Y338539D01*
X510791Y338502D01*
X510773Y338446D01*
X510745Y338363D01*
X510717Y338271D01*
X510680Y338160D01*
X510643Y338030D01*
X510588Y337892D01*
X510532Y337734D01*
X510477Y337577D01*
X510338Y337226D01*
X510172Y336856D01*
X509987Y336486D01*
X509978Y336477D01*
X509959Y336440D01*
X509931Y336394D01*
X509894Y336320D01*
X509848Y336236D01*
X509784Y336135D01*
X509719Y336024D01*
X509645Y335904D01*
X509469Y335636D01*
X509284Y335358D01*
X509072Y335072D01*
X508850Y334804D01*
X511984D01*
Y334045D01*
X507842D01*
Y334665D01*
X507851Y334674D01*
X507870Y334692D01*
X507907Y334729D01*
X507944Y334785D01*
X507999Y334850D01*
X508073Y334924D01*
X508147Y335016D01*
X508230Y335127D01*
X508313Y335238D01*
X508415Y335368D01*
X508517Y335515D01*
X508619Y335663D01*
X508730Y335830D01*
X508840Y336005D01*
X508951Y336200D01*
X509062Y336394D01*
X509072Y336403D01*
X509090Y336440D01*
X509118Y336495D01*
X509164Y336579D01*
X509210Y336680D01*
X509266Y336791D01*
X509330Y336921D01*
X509395Y337069D01*
X509469Y337235D01*
X509552Y337402D01*
X509626Y337586D01*
X509700Y337781D01*
X509848Y338178D01*
X509987Y338603D01*
Y338613D01*
X509996Y338640D01*
X510005Y338687D01*
X510024Y338742D01*
X510042Y338816D01*
X510061Y338909D01*
X510089Y339010D01*
X510107Y339121D01*
X510135Y339251D01*
X510163Y339389D01*
X510209Y339685D01*
X510255Y340009D01*
X510283Y340360D01*
X511087D01*
Y340351D01*
D02*
G37*
G36*
X889976Y500371D02*
X890041D01*
X890115Y500362D01*
X890290Y500325D01*
X890484Y500278D01*
X890688Y500204D01*
X890891Y500103D01*
X890993Y500038D01*
X891085Y499964D01*
X891095Y499955D01*
X891104Y499945D01*
X891132Y499918D01*
X891159Y499890D01*
X891196Y499844D01*
X891243Y499788D01*
X891335Y499659D01*
X891427Y499492D01*
X891520Y499289D01*
X891594Y499058D01*
X891649Y498790D01*
X890891Y498725D01*
Y498734D01*
X890882Y498753D01*
Y498771D01*
X890873Y498808D01*
X890845Y498910D01*
X890808Y499021D01*
X890762Y499150D01*
X890697Y499280D01*
X890623Y499400D01*
X890531Y499502D01*
X890521Y499511D01*
X890484Y499539D01*
X890420Y499576D01*
X890346Y499613D01*
X890244Y499659D01*
X890124Y499696D01*
X889985Y499724D01*
X889837Y499733D01*
X889772D01*
X889708Y499724D01*
X889624Y499714D01*
X889523Y499696D01*
X889421Y499668D01*
X889310Y499631D01*
X889209Y499576D01*
X889199Y499566D01*
X889162Y499548D01*
X889107Y499511D01*
X889051Y499455D01*
X888977Y499391D01*
X888903Y499317D01*
X888829Y499234D01*
X888755Y499132D01*
X888746Y499123D01*
X888728Y499076D01*
X888691Y499012D01*
X888654Y498928D01*
X888607Y498818D01*
X888561Y498688D01*
X888515Y498540D01*
X888469Y498374D01*
Y498364D01*
X888460Y498355D01*
Y498328D01*
X888450Y498291D01*
X888432Y498198D01*
X888404Y498078D01*
X888386Y497930D01*
X888367Y497773D01*
X888358Y497597D01*
X888349Y497412D01*
Y497403D01*
Y497375D01*
Y497329D01*
Y497255D01*
X888358Y497274D01*
X888395Y497320D01*
X888450Y497384D01*
X888515Y497477D01*
X888607Y497569D01*
X888718Y497671D01*
X888848Y497773D01*
X888996Y497865D01*
X889014Y497874D01*
X889070Y497902D01*
X889153Y497939D01*
X889255Y497976D01*
X889393Y498022D01*
X889541Y498059D01*
X889708Y498087D01*
X889883Y498096D01*
X889957D01*
X890013Y498087D01*
X890087Y498078D01*
X890161Y498069D01*
X890253Y498050D01*
X890346Y498022D01*
X890558Y497958D01*
X890669Y497911D01*
X890780Y497856D01*
X890900Y497791D01*
X891011Y497708D01*
X891122Y497625D01*
X891224Y497523D01*
X891233Y497514D01*
X891252Y497495D01*
X891270Y497468D01*
X891307Y497421D01*
X891353Y497357D01*
X891400Y497292D01*
X891446Y497209D01*
X891492Y497116D01*
X891548Y497015D01*
X891594Y496904D01*
X891640Y496774D01*
X891686Y496645D01*
X891723Y496497D01*
X891742Y496340D01*
X891760Y496183D01*
X891769Y496007D01*
Y495998D01*
Y495961D01*
Y495914D01*
X891760Y495850D01*
X891751Y495766D01*
X891742Y495665D01*
X891723Y495563D01*
X891695Y495443D01*
X891631Y495202D01*
X891585Y495073D01*
X891529Y494934D01*
X891464Y494805D01*
X891381Y494685D01*
X891298Y494555D01*
X891196Y494444D01*
X891187Y494435D01*
X891169Y494417D01*
X891141Y494389D01*
X891095Y494352D01*
X891039Y494306D01*
X890965Y494250D01*
X890891Y494204D01*
X890799Y494139D01*
X890706Y494084D01*
X890595Y494038D01*
X890346Y493936D01*
X890216Y493899D01*
X890068Y493871D01*
X889920Y493853D01*
X889763Y493843D01*
X889698D01*
X889652Y493853D01*
X889606D01*
X889541Y493862D01*
X889384Y493890D01*
X889209Y493927D01*
X889014Y493991D01*
X888820Y494075D01*
X888626Y494185D01*
X888617D01*
X888607Y494204D01*
X888580Y494222D01*
X888543Y494250D01*
X888450Y494324D01*
X888330Y494426D01*
X888210Y494565D01*
X888071Y494731D01*
X887951Y494925D01*
X887840Y495147D01*
Y495156D01*
X887831Y495175D01*
X887812Y495212D01*
X887794Y495258D01*
X887775Y495323D01*
X887748Y495406D01*
X887729Y495498D01*
X887701Y495600D01*
X887674Y495720D01*
X887646Y495859D01*
X887627Y496007D01*
X887609Y496164D01*
X887590Y496340D01*
X887572Y496525D01*
X887563Y496728D01*
Y496941D01*
Y496950D01*
Y496996D01*
Y497061D01*
Y497144D01*
X887572Y497246D01*
Y497366D01*
X887581Y497505D01*
X887600Y497643D01*
X887627Y497958D01*
X887674Y498291D01*
X887738Y498605D01*
X887785Y498762D01*
X887831Y498901D01*
Y498910D01*
X887840Y498928D01*
X887859Y498965D01*
X887877Y499021D01*
X887905Y499076D01*
X887942Y499150D01*
X888034Y499308D01*
X888145Y499483D01*
X888275Y499668D01*
X888441Y499844D01*
X888626Y500001D01*
X888635D01*
X888654Y500019D01*
X888681Y500038D01*
X888718Y500056D01*
X888774Y500084D01*
X888829Y500121D01*
X888903Y500158D01*
X888977Y500186D01*
X889153Y500260D01*
X889366Y500325D01*
X889597Y500362D01*
X889856Y500380D01*
X889930D01*
X889976Y500371D01*
D02*
G37*
G36*
X897890Y493871D02*
X894922D01*
X894848Y493880D01*
X894765D01*
X894571Y493890D01*
X894368Y493917D01*
X894146Y493945D01*
X893942Y493991D01*
X893840Y494019D01*
X893757Y494047D01*
X893748D01*
X893739Y494056D01*
X893683Y494084D01*
X893600Y494121D01*
X893498Y494185D01*
X893388Y494269D01*
X893267Y494380D01*
X893156Y494509D01*
X893045Y494657D01*
Y494666D01*
X893036Y494675D01*
X892999Y494731D01*
X892962Y494823D01*
X892907Y494944D01*
X892860Y495082D01*
X892814Y495249D01*
X892786Y495424D01*
X892777Y495619D01*
Y495628D01*
Y495646D01*
Y495683D01*
X892786Y495729D01*
Y495794D01*
X892796Y495859D01*
X892833Y496016D01*
X892888Y496201D01*
X892962Y496395D01*
X893073Y496589D01*
X893147Y496682D01*
X893221Y496774D01*
X893230Y496783D01*
X893240Y496793D01*
X893267Y496820D01*
X893304Y496848D01*
X893351Y496885D01*
X893406Y496922D01*
X893480Y496968D01*
X893554Y497024D01*
X893646Y497070D01*
X893748Y497116D01*
X893859Y497172D01*
X893979Y497218D01*
X894118Y497255D01*
X894257Y497301D01*
X894414Y497329D01*
X894580Y497357D01*
X894562Y497366D01*
X894525Y497384D01*
X894469Y497421D01*
X894395Y497458D01*
X894229Y497560D01*
X894146Y497625D01*
X894072Y497680D01*
X894053Y497699D01*
X894007Y497745D01*
X893933Y497819D01*
X893840Y497911D01*
X893739Y498041D01*
X893619Y498180D01*
X893498Y498346D01*
X893369Y498531D01*
X892269Y500269D01*
X893323D01*
X894164Y498938D01*
Y498928D01*
X894183Y498910D01*
X894201Y498882D01*
X894229Y498845D01*
X894294Y498744D01*
X894377Y498614D01*
X894478Y498475D01*
X894580Y498328D01*
X894682Y498189D01*
X894774Y498059D01*
X894784Y498050D01*
X894811Y498013D01*
X894857Y497958D01*
X894922Y497893D01*
X895061Y497754D01*
X895135Y497690D01*
X895209Y497634D01*
X895218Y497625D01*
X895237Y497616D01*
X895274Y497597D01*
X895329Y497569D01*
X895385Y497542D01*
X895449Y497514D01*
X895597Y497468D01*
X895606D01*
X895625Y497458D01*
X895662D01*
X895708Y497449D01*
X895773Y497440D01*
X895847D01*
X895948Y497431D01*
X897039D01*
Y500269D01*
X897890D01*
Y493871D01*
D02*
G37*
G36*
X758190Y496411D02*
X755222D01*
X755148Y496420D01*
X755065D01*
X754871Y496430D01*
X754668Y496457D01*
X754446Y496485D01*
X754242Y496531D01*
X754140Y496559D01*
X754057Y496587D01*
X754048D01*
X754039Y496596D01*
X753983Y496624D01*
X753900Y496661D01*
X753798Y496726D01*
X753688Y496809D01*
X753567Y496920D01*
X753456Y497049D01*
X753345Y497197D01*
Y497206D01*
X753336Y497215D01*
X753299Y497271D01*
X753262Y497364D01*
X753207Y497484D01*
X753160Y497622D01*
X753114Y497789D01*
X753086Y497964D01*
X753077Y498159D01*
Y498168D01*
Y498186D01*
Y498223D01*
X753086Y498270D01*
Y498334D01*
X753096Y498399D01*
X753133Y498556D01*
X753188Y498741D01*
X753262Y498935D01*
X753373Y499129D01*
X753447Y499222D01*
X753521Y499314D01*
X753530Y499324D01*
X753540Y499333D01*
X753567Y499361D01*
X753604Y499388D01*
X753651Y499425D01*
X753706Y499462D01*
X753780Y499508D01*
X753854Y499564D01*
X753946Y499610D01*
X754048Y499656D01*
X754159Y499712D01*
X754279Y499758D01*
X754418Y499795D01*
X754557Y499841D01*
X754714Y499869D01*
X754880Y499897D01*
X754862Y499906D01*
X754825Y499925D01*
X754769Y499962D01*
X754695Y499999D01*
X754529Y500100D01*
X754446Y500165D01*
X754372Y500220D01*
X754353Y500239D01*
X754307Y500285D01*
X754233Y500359D01*
X754140Y500452D01*
X754039Y500581D01*
X753919Y500720D01*
X753798Y500886D01*
X753669Y501071D01*
X752569Y502809D01*
X753623D01*
X754464Y501478D01*
Y501469D01*
X754483Y501450D01*
X754501Y501422D01*
X754529Y501385D01*
X754594Y501284D01*
X754677Y501154D01*
X754778Y501016D01*
X754880Y500868D01*
X754982Y500729D01*
X755074Y500599D01*
X755084Y500590D01*
X755111Y500553D01*
X755157Y500498D01*
X755222Y500433D01*
X755361Y500294D01*
X755435Y500230D01*
X755509Y500174D01*
X755518Y500165D01*
X755537Y500156D01*
X755574Y500137D01*
X755629Y500109D01*
X755685Y500082D01*
X755749Y500054D01*
X755897Y500008D01*
X755906D01*
X755925Y499999D01*
X755962D01*
X756008Y499989D01*
X756073Y499980D01*
X756147D01*
X756248Y499971D01*
X757339D01*
Y502809D01*
X758190D01*
Y496411D01*
D02*
G37*
G36*
X750128Y502911D02*
X750211Y502902D01*
X750304Y502892D01*
X750405Y502874D01*
X750516Y502846D01*
X750766Y502781D01*
X750895Y502735D01*
X751015Y502689D01*
X751145Y502624D01*
X751274Y502550D01*
X751395Y502467D01*
X751506Y502365D01*
X751515Y502356D01*
X751533Y502338D01*
X751561Y502310D01*
X751598Y502264D01*
X751635Y502208D01*
X751690Y502143D01*
X751737Y502070D01*
X751792Y501977D01*
X751848Y501885D01*
X751894Y501774D01*
X751986Y501543D01*
X752023Y501404D01*
X752051Y501265D01*
X752069Y501117D01*
X752079Y500969D01*
Y500960D01*
Y500942D01*
Y500905D01*
X752069Y500868D01*
Y500812D01*
X752060Y500747D01*
X752042Y500599D01*
X752005Y500433D01*
X751949Y500267D01*
X751866Y500091D01*
X751764Y499925D01*
Y499915D01*
X751746Y499906D01*
X751709Y499860D01*
X751635Y499786D01*
X751533Y499693D01*
X751404Y499601D01*
X751247Y499499D01*
X751071Y499416D01*
X750858Y499351D01*
X750868D01*
X750877Y499342D01*
X750904Y499333D01*
X750941Y499314D01*
X751025Y499277D01*
X751136Y499222D01*
X751256Y499148D01*
X751376Y499055D01*
X751487Y498954D01*
X751589Y498843D01*
X751598Y498824D01*
X751626Y498787D01*
X751663Y498713D01*
X751700Y498621D01*
X751746Y498501D01*
X751783Y498362D01*
X751811Y498205D01*
X751820Y498038D01*
Y498029D01*
Y498011D01*
Y497974D01*
X751811Y497918D01*
X751801Y497863D01*
X751792Y497789D01*
X751755Y497632D01*
X751700Y497447D01*
X751607Y497253D01*
X751552Y497151D01*
X751487Y497049D01*
X751404Y496957D01*
X751321Y496864D01*
X751311Y496855D01*
X751293Y496846D01*
X751265Y496818D01*
X751228Y496790D01*
X751182Y496753D01*
X751117Y496716D01*
X751043Y496670D01*
X750969Y496624D01*
X750877Y496578D01*
X750775Y496531D01*
X750664Y496494D01*
X750544Y496457D01*
X750285Y496402D01*
X750137Y496393D01*
X749989Y496383D01*
X749906D01*
X749850Y496393D01*
X749777Y496402D01*
X749693Y496411D01*
X749601Y496420D01*
X749509Y496448D01*
X749287Y496504D01*
X749065Y496587D01*
X748954Y496642D01*
X748843Y496707D01*
X748741Y496790D01*
X748639Y496874D01*
X748630Y496883D01*
X748621Y496892D01*
X748593Y496920D01*
X748556Y496957D01*
X748519Y497012D01*
X748473Y497068D01*
X748381Y497206D01*
X748288Y497382D01*
X748205Y497585D01*
X748140Y497817D01*
X748131Y497937D01*
X748122Y498066D01*
Y498075D01*
Y498085D01*
Y498140D01*
X748131Y498223D01*
X748149Y498325D01*
X748177Y498455D01*
X748223Y498584D01*
X748279Y498713D01*
X748362Y498843D01*
X748371Y498861D01*
X748408Y498898D01*
X748464Y498954D01*
X748538Y499028D01*
X748639Y499111D01*
X748760Y499194D01*
X748898Y499277D01*
X749065Y499351D01*
X749055D01*
X749037Y499361D01*
X749009Y499370D01*
X748972Y499388D01*
X748861Y499435D01*
X748732Y499499D01*
X748593Y499592D01*
X748445Y499693D01*
X748307Y499823D01*
X748177Y499971D01*
Y499980D01*
X748168Y499989D01*
X748131Y500045D01*
X748075Y500137D01*
X748020Y500257D01*
X747964Y500405D01*
X747909Y500581D01*
X747872Y500775D01*
X747863Y500988D01*
Y500997D01*
Y501025D01*
Y501071D01*
X747872Y501126D01*
X747881Y501191D01*
X747890Y501274D01*
X747909Y501367D01*
X747937Y501469D01*
X748001Y501681D01*
X748048Y501801D01*
X748112Y501912D01*
X748177Y502033D01*
X748251Y502143D01*
X748344Y502254D01*
X748445Y502365D01*
X748455Y502375D01*
X748473Y502393D01*
X748501Y502421D01*
X748547Y502449D01*
X748612Y502495D01*
X748676Y502541D01*
X748760Y502587D01*
X748852Y502643D01*
X748954Y502698D01*
X749074Y502744D01*
X749203Y502791D01*
X749333Y502837D01*
X749481Y502865D01*
X749638Y502892D01*
X749795Y502911D01*
X749971Y502920D01*
X750063D01*
X750128Y502911D01*
D02*
G37*
G36*
X448825Y379879D02*
X448881D01*
X449029Y379851D01*
X449204Y379823D01*
X449389Y379777D01*
X449593Y379712D01*
X449787Y379620D01*
X449796D01*
X449805Y379611D01*
X449833Y379592D01*
X449870Y379574D01*
X449963Y379518D01*
X450083Y379435D01*
X450212Y379333D01*
X450342Y379213D01*
X450471Y379065D01*
X450582Y378908D01*
Y378899D01*
X450591Y378889D01*
X450610Y378862D01*
X450619Y378825D01*
X450665Y378732D01*
X450711Y378612D01*
X450767Y378455D01*
X450804Y378279D01*
X450841Y378085D01*
X450850Y377872D01*
Y377826D01*
X450841Y377780D01*
Y377706D01*
X450832Y377623D01*
X450813Y377530D01*
X450785Y377419D01*
X450758Y377308D01*
X450721Y377179D01*
X450674Y377050D01*
X450619Y376920D01*
X450545Y376781D01*
X450462Y376652D01*
X450369Y376523D01*
X450258Y376393D01*
X450129Y376273D01*
X450120Y376264D01*
X450092Y376245D01*
X450055Y376217D01*
X449990Y376180D01*
X449907Y376125D01*
X449815Y376079D01*
X449694Y376023D01*
X449565Y375968D01*
X449408Y375903D01*
X449232Y375848D01*
X449038Y375801D01*
X448825Y375755D01*
X448585Y375709D01*
X448326Y375681D01*
X448049Y375663D01*
X447753Y375653D01*
X447744D01*
X447734D01*
X447707D01*
X447670D01*
X447577Y375663D01*
X447448D01*
X447300Y375672D01*
X447124Y375690D01*
X446930Y375709D01*
X446717Y375737D01*
X446505Y375774D01*
X446273Y375820D01*
X446052Y375875D01*
X445830Y375940D01*
X445617Y376023D01*
X445414Y376116D01*
X445219Y376217D01*
X445053Y376338D01*
X445044Y376347D01*
X445025Y376365D01*
X444988Y376402D01*
X444933Y376449D01*
X444877Y376504D01*
X444822Y376578D01*
X444748Y376670D01*
X444683Y376763D01*
X444618Y376874D01*
X444545Y376994D01*
X444489Y377133D01*
X444424Y377271D01*
X444378Y377429D01*
X444341Y377595D01*
X444323Y377771D01*
X444313Y377956D01*
Y378030D01*
X444323Y378085D01*
Y378150D01*
X444332Y378224D01*
X444369Y378399D01*
X444415Y378594D01*
X444489Y378797D01*
X444600Y379000D01*
X444665Y379102D01*
X444739Y379194D01*
X444748Y379204D01*
X444757Y379213D01*
X444785Y379241D01*
X444813Y379268D01*
X444859Y379315D01*
X444914Y379352D01*
X445044Y379453D01*
X445210Y379555D01*
X445414Y379648D01*
X445645Y379731D01*
X445904Y379786D01*
X445968Y379000D01*
X445959D01*
X445950Y378991D01*
X445894Y378982D01*
X445811Y378954D01*
X445709Y378917D01*
X445599Y378880D01*
X445488Y378825D01*
X445386Y378760D01*
X445303Y378695D01*
X445284Y378677D01*
X445247Y378640D01*
X445192Y378575D01*
X445127Y378483D01*
X445072Y378362D01*
X445016Y378233D01*
X444979Y378076D01*
X444961Y377909D01*
Y377845D01*
X444970Y377771D01*
X444988Y377687D01*
X445016Y377577D01*
X445053Y377466D01*
X445099Y377355D01*
X445173Y377244D01*
X445182Y377225D01*
X445219Y377179D01*
X445284Y377114D01*
X445377Y377031D01*
X445488Y376939D01*
X445617Y376837D01*
X445784Y376744D01*
X445968Y376652D01*
X445978D01*
X445996Y376643D01*
X446024Y376633D01*
X446061Y376615D01*
X446116Y376606D01*
X446181Y376587D01*
X446255Y376569D01*
X446348Y376550D01*
X446449Y376523D01*
X446560Y376504D01*
X446680Y376486D01*
X446810Y376476D01*
X446958Y376458D01*
X447106Y376449D01*
X447272Y376439D01*
X447438D01*
X447429Y376449D01*
X447374Y376486D01*
X447300Y376550D01*
X447207Y376633D01*
X447096Y376726D01*
X446995Y376846D01*
X446893Y376976D01*
X446800Y377123D01*
Y377133D01*
X446791Y377142D01*
X446763Y377197D01*
X446736Y377281D01*
X446690Y377392D01*
X446653Y377521D01*
X446625Y377669D01*
X446597Y377826D01*
X446588Y377993D01*
Y378067D01*
X446597Y378122D01*
X446606Y378196D01*
X446616Y378270D01*
X446634Y378362D01*
X446662Y378455D01*
X446726Y378667D01*
X446773Y378778D01*
X446838Y378889D01*
X446902Y379000D01*
X446976Y379121D01*
X447069Y379231D01*
X447170Y379333D01*
X447180Y379342D01*
X447198Y379361D01*
X447226Y379389D01*
X447272Y379416D01*
X447337Y379463D01*
X447402Y379509D01*
X447485Y379555D01*
X447577Y379611D01*
X447679Y379666D01*
X447790Y379712D01*
X447919Y379758D01*
X448049Y379805D01*
X448187Y379832D01*
X448344Y379860D01*
X448502Y379879D01*
X448668Y379888D01*
X448677D01*
X448696D01*
X448724D01*
X448770D01*
X448825Y379879D01*
D02*
G37*
G36*
X450739Y374137D02*
X449408Y373296D01*
X449398D01*
X449380Y373277D01*
X449352Y373259D01*
X449315Y373231D01*
X449214Y373166D01*
X449084Y373083D01*
X448946Y372981D01*
X448798Y372880D01*
X448659Y372778D01*
X448529Y372686D01*
X448520Y372676D01*
X448483Y372649D01*
X448428Y372602D01*
X448363Y372538D01*
X448224Y372399D01*
X448160Y372325D01*
X448104Y372251D01*
X448095Y372242D01*
X448086Y372223D01*
X448067Y372186D01*
X448039Y372131D01*
X448012Y372075D01*
X447984Y372011D01*
X447938Y371863D01*
Y371853D01*
X447929Y371835D01*
Y371798D01*
X447919Y371752D01*
X447910Y371687D01*
Y371613D01*
X447901Y371511D01*
Y370420D01*
X450739D01*
Y369570D01*
X444341D01*
Y372538D01*
X444350Y372612D01*
Y372695D01*
X444360Y372889D01*
X444387Y373092D01*
X444415Y373314D01*
X444461Y373518D01*
X444489Y373619D01*
X444517Y373703D01*
Y373712D01*
X444526Y373721D01*
X444554Y373777D01*
X444591Y373860D01*
X444655Y373961D01*
X444739Y374072D01*
X444850Y374193D01*
X444979Y374304D01*
X445127Y374415D01*
X445136D01*
X445145Y374424D01*
X445201Y374461D01*
X445294Y374498D01*
X445414Y374553D01*
X445552Y374599D01*
X445719Y374646D01*
X445894Y374673D01*
X446089Y374683D01*
X446098D01*
X446116D01*
X446153D01*
X446199Y374673D01*
X446264D01*
X446329Y374664D01*
X446486Y374627D01*
X446671Y374572D01*
X446865Y374498D01*
X447059Y374387D01*
X447152Y374313D01*
X447244Y374239D01*
X447253Y374230D01*
X447263Y374220D01*
X447290Y374193D01*
X447318Y374156D01*
X447355Y374109D01*
X447392Y374054D01*
X447438Y373980D01*
X447494Y373906D01*
X447540Y373814D01*
X447586Y373712D01*
X447642Y373601D01*
X447688Y373481D01*
X447725Y373342D01*
X447771Y373203D01*
X447799Y373046D01*
X447827Y372880D01*
X447836Y372898D01*
X447854Y372935D01*
X447892Y372991D01*
X447929Y373065D01*
X448030Y373231D01*
X448095Y373314D01*
X448150Y373388D01*
X448169Y373407D01*
X448215Y373453D01*
X448289Y373527D01*
X448382Y373619D01*
X448511Y373721D01*
X448650Y373841D01*
X448816Y373961D01*
X449001Y374091D01*
X450739Y375191D01*
Y374137D01*
D02*
G37*
G36*
X217170Y231092D02*
X214202D01*
X214128Y231101D01*
X214045D01*
X213851Y231111D01*
X213647Y231138D01*
X213426Y231166D01*
X213222Y231212D01*
X213120Y231240D01*
X213037Y231268D01*
X213028D01*
X213019Y231277D01*
X212963Y231305D01*
X212880Y231342D01*
X212778Y231406D01*
X212668Y231490D01*
X212547Y231601D01*
X212436Y231730D01*
X212325Y231878D01*
Y231887D01*
X212316Y231896D01*
X212279Y231952D01*
X212242Y232044D01*
X212187Y232165D01*
X212141Y232303D01*
X212094Y232470D01*
X212066Y232645D01*
X212057Y232840D01*
Y232849D01*
Y232867D01*
Y232904D01*
X212066Y232950D01*
Y233015D01*
X212076Y233080D01*
X212113Y233237D01*
X212168Y233422D01*
X212242Y233616D01*
X212353Y233810D01*
X212427Y233903D01*
X212501Y233995D01*
X212510Y234004D01*
X212519Y234014D01*
X212547Y234042D01*
X212584Y234069D01*
X212631Y234106D01*
X212686Y234143D01*
X212760Y234189D01*
X212834Y234245D01*
X212926Y234291D01*
X213028Y234337D01*
X213139Y234393D01*
X213259Y234439D01*
X213398Y234476D01*
X213537Y234522D01*
X213694Y234550D01*
X213860Y234578D01*
X213842Y234587D01*
X213805Y234605D01*
X213749Y234642D01*
X213675Y234679D01*
X213509Y234781D01*
X213426Y234846D01*
X213352Y234901D01*
X213333Y234920D01*
X213287Y234966D01*
X213213Y235040D01*
X213120Y235132D01*
X213019Y235262D01*
X212899Y235401D01*
X212778Y235567D01*
X212649Y235752D01*
X211549Y237490D01*
X212603D01*
X213444Y236159D01*
Y236150D01*
X213463Y236131D01*
X213481Y236103D01*
X213509Y236066D01*
X213573Y235965D01*
X213657Y235835D01*
X213758Y235696D01*
X213860Y235548D01*
X213962Y235410D01*
X214054Y235280D01*
X214064Y235271D01*
X214091Y235234D01*
X214137Y235179D01*
X214202Y235114D01*
X214341Y234975D01*
X214415Y234911D01*
X214489Y234855D01*
X214498Y234846D01*
X214517Y234837D01*
X214554Y234818D01*
X214609Y234790D01*
X214664Y234763D01*
X214729Y234735D01*
X214877Y234689D01*
X214886D01*
X214905Y234679D01*
X214942D01*
X214988Y234670D01*
X215053Y234661D01*
X215127D01*
X215229Y234652D01*
X216320D01*
Y237490D01*
X217170D01*
Y231092D01*
D02*
G37*
G36*
X211160Y237481D02*
Y237444D01*
Y237388D01*
X211151Y237314D01*
X211142Y237231D01*
X211124Y237139D01*
X211105Y237046D01*
X211068Y236945D01*
Y236935D01*
X211059Y236926D01*
X211040Y236871D01*
X211003Y236787D01*
X210948Y236677D01*
X210874Y236547D01*
X210781Y236399D01*
X210680Y236251D01*
X210550Y236094D01*
Y236085D01*
X210532Y236075D01*
X210485Y236020D01*
X210402Y235937D01*
X210282Y235817D01*
X210143Y235678D01*
X209968Y235511D01*
X209755Y235327D01*
X209524Y235132D01*
X209515Y235123D01*
X209478Y235096D01*
X209422Y235049D01*
X209357Y234994D01*
X209274Y234920D01*
X209173Y234837D01*
X209071Y234744D01*
X208951Y234642D01*
X208720Y234421D01*
X208489Y234199D01*
X208377Y234088D01*
X208276Y233977D01*
X208183Y233875D01*
X208109Y233773D01*
Y233764D01*
X208091Y233755D01*
X208072Y233727D01*
X208054Y233690D01*
X207989Y233588D01*
X207915Y233468D01*
X207850Y233320D01*
X207786Y233163D01*
X207749Y232987D01*
X207730Y232821D01*
Y232812D01*
Y232803D01*
X207740Y232747D01*
X207749Y232655D01*
X207777Y232553D01*
X207813Y232423D01*
X207878Y232294D01*
X207962Y232165D01*
X208072Y232035D01*
X208091Y232017D01*
X208137Y231980D01*
X208202Y231933D01*
X208304Y231869D01*
X208433Y231813D01*
X208581Y231758D01*
X208757Y231721D01*
X208951Y231712D01*
X209006D01*
X209043Y231721D01*
X209154Y231730D01*
X209284Y231758D01*
X209422Y231795D01*
X209579Y231859D01*
X209727Y231943D01*
X209866Y232054D01*
X209884Y232072D01*
X209921Y232118D01*
X209977Y232192D01*
X210033Y232303D01*
X210097Y232433D01*
X210153Y232599D01*
X210190Y232784D01*
X210208Y232997D01*
X211012Y232913D01*
Y232904D01*
X211003Y232876D01*
Y232830D01*
X210994Y232766D01*
X210975Y232692D01*
X210957Y232608D01*
X210929Y232507D01*
X210902Y232405D01*
X210828Y232183D01*
X210717Y231961D01*
X210652Y231850D01*
X210569Y231739D01*
X210485Y231638D01*
X210393Y231545D01*
X210384Y231536D01*
X210365Y231527D01*
X210338Y231499D01*
X210291Y231471D01*
X210236Y231434D01*
X210171Y231397D01*
X210097Y231351D01*
X210005Y231305D01*
X209903Y231259D01*
X209792Y231212D01*
X209672Y231175D01*
X209543Y231138D01*
X209404Y231111D01*
X209256Y231083D01*
X209099Y231074D01*
X208932Y231064D01*
X208840D01*
X208775Y231074D01*
X208701Y231083D01*
X208609Y231092D01*
X208507Y231111D01*
X208405Y231129D01*
X208165Y231194D01*
X207924Y231286D01*
X207804Y231342D01*
X207684Y231406D01*
X207573Y231490D01*
X207471Y231582D01*
X207462Y231591D01*
X207444Y231601D01*
X207425Y231638D01*
X207388Y231675D01*
X207342Y231721D01*
X207296Y231786D01*
X207250Y231850D01*
X207194Y231933D01*
X207102Y232109D01*
X207009Y232331D01*
X206972Y232442D01*
X206954Y232571D01*
X206935Y232701D01*
X206926Y232840D01*
Y232858D01*
Y232904D01*
X206935Y232978D01*
X206944Y233080D01*
X206963Y233191D01*
X207000Y233320D01*
X207037Y233459D01*
X207092Y233598D01*
X207102Y233616D01*
X207120Y233662D01*
X207157Y233736D01*
X207213Y233838D01*
X207286Y233949D01*
X207379Y234088D01*
X207490Y234226D01*
X207619Y234384D01*
X207638Y234402D01*
X207684Y234457D01*
X207730Y234504D01*
X207777Y234550D01*
X207832Y234605D01*
X207906Y234679D01*
X207980Y234753D01*
X208072Y234837D01*
X208165Y234929D01*
X208276Y235031D01*
X208396Y235132D01*
X208525Y235253D01*
X208673Y235373D01*
X208821Y235502D01*
X208831Y235511D01*
X208849Y235530D01*
X208886Y235558D01*
X208932Y235595D01*
X208988Y235650D01*
X209052Y235706D01*
X209200Y235826D01*
X209357Y235965D01*
X209506Y236103D01*
X209635Y236223D01*
X209690Y236270D01*
X209737Y236316D01*
X209746Y236325D01*
X209774Y236353D01*
X209811Y236390D01*
X209857Y236445D01*
X209903Y236510D01*
X209958Y236575D01*
X210070Y236732D01*
X206917D01*
Y237490D01*
X211160D01*
Y237481D01*
D02*
G37*
G36*
X99060Y135293D02*
X94058D01*
X94067Y135284D01*
X94104Y135238D01*
X94160Y135182D01*
X94225Y135090D01*
X94308Y134988D01*
X94400Y134859D01*
X94502Y134711D01*
X94604Y134544D01*
Y134535D01*
X94613Y134526D01*
X94650Y134470D01*
X94696Y134378D01*
X94752Y134267D01*
X94816Y134137D01*
X94881Y133999D01*
X94946Y133860D01*
X95001Y133721D01*
X94243D01*
Y133731D01*
X94225Y133749D01*
X94215Y133786D01*
X94188Y133832D01*
X94160Y133888D01*
X94123Y133953D01*
X94031Y134110D01*
X93929Y134295D01*
X93799Y134480D01*
X93651Y134674D01*
X93494Y134868D01*
X93485Y134877D01*
X93476Y134886D01*
X93448Y134914D01*
X93420Y134951D01*
X93328Y135034D01*
X93217Y135145D01*
X93087Y135256D01*
X92940Y135376D01*
X92792Y135478D01*
X92634Y135570D01*
Y136079D01*
X99060D01*
Y135293D01*
D02*
G37*
G36*
Y131567D02*
X97729Y130726D01*
X97719D01*
X97701Y130707D01*
X97673Y130689D01*
X97636Y130661D01*
X97535Y130596D01*
X97405Y130513D01*
X97266Y130412D01*
X97119Y130310D01*
X96980Y130208D01*
X96850Y130116D01*
X96841Y130106D01*
X96804Y130079D01*
X96749Y130032D01*
X96684Y129968D01*
X96545Y129829D01*
X96481Y129755D01*
X96425Y129681D01*
X96416Y129672D01*
X96407Y129653D01*
X96388Y129616D01*
X96360Y129561D01*
X96333Y129505D01*
X96305Y129441D01*
X96259Y129293D01*
Y129284D01*
X96249Y129265D01*
Y129228D01*
X96240Y129182D01*
X96231Y129117D01*
Y129043D01*
X96222Y128941D01*
Y127851D01*
X99060D01*
Y127000D01*
X92662D01*
Y129968D01*
X92671Y130042D01*
Y130125D01*
X92681Y130319D01*
X92708Y130522D01*
X92736Y130744D01*
X92782Y130948D01*
X92810Y131049D01*
X92838Y131133D01*
Y131142D01*
X92847Y131151D01*
X92875Y131207D01*
X92912Y131290D01*
X92977Y131391D01*
X93060Y131503D01*
X93171Y131623D01*
X93300Y131734D01*
X93448Y131845D01*
X93457D01*
X93467Y131854D01*
X93522Y131891D01*
X93614Y131928D01*
X93735Y131983D01*
X93873Y132029D01*
X94040Y132076D01*
X94215Y132103D01*
X94410Y132113D01*
X94419D01*
X94437D01*
X94474D01*
X94521Y132103D01*
X94585D01*
X94650Y132094D01*
X94807Y132057D01*
X94992Y132002D01*
X95186Y131928D01*
X95380Y131817D01*
X95473Y131743D01*
X95565Y131669D01*
X95575Y131660D01*
X95584Y131650D01*
X95611Y131623D01*
X95639Y131586D01*
X95676Y131539D01*
X95713Y131484D01*
X95759Y131410D01*
X95815Y131336D01*
X95861Y131244D01*
X95907Y131142D01*
X95963Y131031D01*
X96009Y130911D01*
X96046Y130772D01*
X96092Y130633D01*
X96120Y130476D01*
X96148Y130310D01*
X96157Y130328D01*
X96175Y130365D01*
X96212Y130421D01*
X96249Y130495D01*
X96351Y130661D01*
X96416Y130744D01*
X96471Y130818D01*
X96490Y130837D01*
X96536Y130883D01*
X96610Y130957D01*
X96702Y131049D01*
X96832Y131151D01*
X96971Y131271D01*
X97137Y131391D01*
X97322Y131521D01*
X99060Y132621D01*
Y131567D01*
D02*
G37*
G36*
X470765Y67301D02*
X470839Y67292D01*
X470922Y67282D01*
X471024Y67273D01*
X471125Y67245D01*
X471357Y67190D01*
X471588Y67107D01*
X471708Y67051D01*
X471828Y66986D01*
X471939Y66912D01*
X472050Y66829D01*
X472059Y66820D01*
X472078Y66811D01*
X472096Y66774D01*
X472133Y66737D01*
X472179Y66691D01*
X472226Y66635D01*
X472281Y66561D01*
X472327Y66478D01*
X472383Y66395D01*
X472438Y66293D01*
X472540Y66071D01*
X472623Y65812D01*
X472651Y65674D01*
X472669Y65526D01*
X471847Y65461D01*
Y65470D01*
Y65489D01*
X471837Y65516D01*
X471828Y65563D01*
X471800Y65664D01*
X471763Y65803D01*
X471708Y65942D01*
X471634Y66099D01*
X471541Y66238D01*
X471431Y66367D01*
X471412Y66376D01*
X471375Y66413D01*
X471301Y66459D01*
X471199Y66515D01*
X471088Y66570D01*
X470950Y66617D01*
X470793Y66654D01*
X470617Y66663D01*
X470561D01*
X470524Y66654D01*
X470414Y66644D01*
X470284Y66607D01*
X470127Y66561D01*
X469970Y66487D01*
X469803Y66376D01*
X469729Y66312D01*
X469655Y66238D01*
X469646Y66228D01*
X469637Y66219D01*
X469618Y66191D01*
X469591Y66164D01*
X469526Y66062D01*
X469452Y65932D01*
X469387Y65775D01*
X469323Y65581D01*
X469276Y65350D01*
X469258Y65230D01*
Y65100D01*
Y65091D01*
Y65073D01*
Y65036D01*
X469267Y64989D01*
Y64934D01*
X469276Y64869D01*
X469304Y64721D01*
X469350Y64546D01*
X469415Y64370D01*
X469507Y64204D01*
X469637Y64046D01*
Y64037D01*
X469655Y64028D01*
X469702Y63982D01*
X469785Y63917D01*
X469896Y63843D01*
X470044Y63778D01*
X470210Y63713D01*
X470404Y63667D01*
X470515Y63649D01*
X470691D01*
X470765Y63658D01*
X470857Y63667D01*
X470968Y63695D01*
X471079Y63723D01*
X471199Y63769D01*
X471320Y63825D01*
X471329Y63834D01*
X471366Y63852D01*
X471421Y63898D01*
X471495Y63945D01*
X471569Y64009D01*
X471643Y64093D01*
X471726Y64176D01*
X471791Y64278D01*
X472531Y64176D01*
X471911Y60884D01*
X468731D01*
Y61633D01*
X471292D01*
X471634Y63362D01*
X471625Y63353D01*
X471606Y63344D01*
X471578Y63325D01*
X471532Y63298D01*
X471477Y63270D01*
X471412Y63233D01*
X471264Y63159D01*
X471079Y63085D01*
X470876Y63020D01*
X470654Y62974D01*
X470543Y62955D01*
X470340D01*
X470284Y62965D01*
X470210Y62974D01*
X470127Y62983D01*
X470034Y63002D01*
X469933Y63029D01*
X469711Y63094D01*
X469591Y63140D01*
X469470Y63205D01*
X469350Y63270D01*
X469230Y63344D01*
X469119Y63436D01*
X469008Y63538D01*
X468999Y63547D01*
X468980Y63566D01*
X468953Y63593D01*
X468916Y63640D01*
X468870Y63704D01*
X468823Y63769D01*
X468768Y63852D01*
X468712Y63945D01*
X468666Y64046D01*
X468611Y64157D01*
X468564Y64287D01*
X468518Y64416D01*
X468481Y64555D01*
X468453Y64712D01*
X468435Y64869D01*
X468426Y65036D01*
Y65045D01*
Y65073D01*
Y65119D01*
X468435Y65184D01*
X468444Y65258D01*
X468453Y65341D01*
X468472Y65443D01*
X468490Y65544D01*
X468546Y65785D01*
X468638Y66034D01*
X468694Y66164D01*
X468768Y66284D01*
X468842Y66413D01*
X468934Y66533D01*
X468943Y66543D01*
X468962Y66570D01*
X468999Y66607D01*
X469045Y66654D01*
X469110Y66709D01*
X469184Y66783D01*
X469276Y66848D01*
X469378Y66922D01*
X469489Y66996D01*
X469618Y67060D01*
X469757Y67125D01*
X469905Y67190D01*
X470062Y67236D01*
X470238Y67273D01*
X470423Y67301D01*
X470617Y67310D01*
X470700D01*
X470765Y67301D01*
D02*
G37*
G36*
X478790Y60801D02*
X475822D01*
X475748Y60810D01*
X475665D01*
X475471Y60820D01*
X475267Y60847D01*
X475046Y60875D01*
X474842Y60921D01*
X474740Y60949D01*
X474657Y60977D01*
X474648D01*
X474639Y60986D01*
X474583Y61014D01*
X474500Y61051D01*
X474398Y61115D01*
X474287Y61199D01*
X474167Y61310D01*
X474056Y61439D01*
X473945Y61587D01*
Y61596D01*
X473936Y61606D01*
X473899Y61661D01*
X473862Y61754D01*
X473807Y61874D01*
X473760Y62012D01*
X473714Y62179D01*
X473686Y62354D01*
X473677Y62549D01*
Y62558D01*
Y62576D01*
Y62613D01*
X473686Y62660D01*
Y62724D01*
X473696Y62789D01*
X473733Y62946D01*
X473788Y63131D01*
X473862Y63325D01*
X473973Y63519D01*
X474047Y63612D01*
X474121Y63704D01*
X474130Y63713D01*
X474140Y63723D01*
X474167Y63751D01*
X474204Y63778D01*
X474250Y63815D01*
X474306Y63852D01*
X474380Y63898D01*
X474454Y63954D01*
X474546Y64000D01*
X474648Y64046D01*
X474759Y64102D01*
X474879Y64148D01*
X475018Y64185D01*
X475157Y64231D01*
X475314Y64259D01*
X475480Y64287D01*
X475462Y64296D01*
X475425Y64314D01*
X475369Y64352D01*
X475295Y64388D01*
X475129Y64490D01*
X475046Y64555D01*
X474972Y64610D01*
X474953Y64629D01*
X474907Y64675D01*
X474833Y64749D01*
X474740Y64841D01*
X474639Y64971D01*
X474519Y65110D01*
X474398Y65276D01*
X474269Y65461D01*
X473169Y67199D01*
X474223D01*
X475064Y65868D01*
Y65858D01*
X475083Y65840D01*
X475101Y65812D01*
X475129Y65775D01*
X475193Y65674D01*
X475277Y65544D01*
X475378Y65406D01*
X475480Y65258D01*
X475582Y65119D01*
X475674Y64989D01*
X475684Y64980D01*
X475711Y64943D01*
X475757Y64888D01*
X475822Y64823D01*
X475961Y64684D01*
X476035Y64620D01*
X476109Y64564D01*
X476118Y64555D01*
X476137Y64546D01*
X476174Y64527D01*
X476229Y64499D01*
X476284Y64472D01*
X476349Y64444D01*
X476497Y64398D01*
X476506D01*
X476525Y64388D01*
X476562D01*
X476608Y64379D01*
X476673Y64370D01*
X476747D01*
X476848Y64361D01*
X477939D01*
Y67199D01*
X478790D01*
Y60801D01*
D02*
G37*
G36*
X448018Y153320D02*
X447232D01*
Y158322D01*
X447223Y158313D01*
X447177Y158275D01*
X447122Y158220D01*
X447029Y158155D01*
X446927Y158072D01*
X446798Y157980D01*
X446650Y157878D01*
X446483Y157776D01*
X446474D01*
X446465Y157767D01*
X446409Y157730D01*
X446317Y157684D01*
X446206Y157628D01*
X446077Y157564D01*
X445938Y157499D01*
X445799Y157434D01*
X445661Y157379D01*
Y158137D01*
X445670D01*
X445688Y158155D01*
X445725Y158165D01*
X445772Y158192D01*
X445827Y158220D01*
X445892Y158257D01*
X446049Y158350D01*
X446234Y158451D01*
X446419Y158581D01*
X446613Y158729D01*
X446807Y158886D01*
X446816Y158895D01*
X446826Y158904D01*
X446853Y158932D01*
X446890Y158960D01*
X446973Y159052D01*
X447085Y159163D01*
X447195Y159292D01*
X447316Y159440D01*
X447417Y159588D01*
X447510Y159746D01*
X448018D01*
Y153320D01*
D02*
G37*
G36*
X442184Y159709D02*
X442341Y159699D01*
X442508Y159690D01*
X442665Y159672D01*
X442804Y159653D01*
X442822D01*
X442887Y159635D01*
X442970Y159616D01*
X443081Y159588D01*
X443201Y159542D01*
X443331Y159487D01*
X443469Y159422D01*
X443590Y159348D01*
X443608Y159339D01*
X443645Y159311D01*
X443701Y159256D01*
X443775Y159191D01*
X443858Y159108D01*
X443941Y158997D01*
X444033Y158876D01*
X444107Y158738D01*
X444117Y158719D01*
X444135Y158673D01*
X444172Y158590D01*
X444209Y158479D01*
X444237Y158350D01*
X444274Y158202D01*
X444292Y158035D01*
X444301Y157859D01*
Y157850D01*
Y157823D01*
Y157786D01*
X444292Y157721D01*
X444283Y157656D01*
X444274Y157573D01*
X444255Y157480D01*
X444237Y157379D01*
X444172Y157166D01*
X444135Y157055D01*
X444080Y156935D01*
X444015Y156815D01*
X443950Y156704D01*
X443867Y156593D01*
X443775Y156482D01*
X443765Y156473D01*
X443747Y156454D01*
X443719Y156426D01*
X443673Y156399D01*
X443617Y156352D01*
X443543Y156306D01*
X443451Y156251D01*
X443349Y156205D01*
X443229Y156149D01*
X443090Y156094D01*
X442942Y156047D01*
X442767Y156010D01*
X442582Y155973D01*
X442379Y155946D01*
X442147Y155927D01*
X441907Y155918D01*
X440271D01*
Y153320D01*
X439420D01*
Y159718D01*
X442046D01*
X442184Y159709D01*
D02*
G37*
G36*
X562904Y185136D02*
X562978Y185127D01*
X563070Y185118D01*
X563172Y185099D01*
X563274Y185081D01*
X563514Y185016D01*
X563755Y184924D01*
X563875Y184868D01*
X563995Y184804D01*
X564106Y184720D01*
X564208Y184628D01*
X564217Y184619D01*
X564235Y184609D01*
X564254Y184572D01*
X564291Y184535D01*
X564337Y184489D01*
X564383Y184424D01*
X564430Y184360D01*
X564485Y184277D01*
X564578Y184101D01*
X564670Y183879D01*
X564707Y183768D01*
X564725Y183638D01*
X564744Y183509D01*
X564753Y183370D01*
Y183352D01*
Y183306D01*
X564744Y183232D01*
X564735Y183130D01*
X564716Y183019D01*
X564679Y182890D01*
X564642Y182751D01*
X564587Y182612D01*
X564578Y182594D01*
X564559Y182547D01*
X564522Y182474D01*
X564467Y182372D01*
X564393Y182261D01*
X564300Y182122D01*
X564189Y181984D01*
X564060Y181826D01*
X564041Y181808D01*
X563995Y181752D01*
X563949Y181706D01*
X563903Y181660D01*
X563847Y181604D01*
X563773Y181530D01*
X563699Y181457D01*
X563607Y181373D01*
X563514Y181281D01*
X563403Y181179D01*
X563283Y181077D01*
X563154Y180957D01*
X563006Y180837D01*
X562858Y180708D01*
X562849Y180698D01*
X562830Y180680D01*
X562793Y180652D01*
X562747Y180615D01*
X562691Y180560D01*
X562627Y180504D01*
X562479Y180384D01*
X562322Y180245D01*
X562174Y180107D01*
X562044Y179986D01*
X561989Y179940D01*
X561943Y179894D01*
X561933Y179885D01*
X561906Y179857D01*
X561869Y179820D01*
X561822Y179765D01*
X561776Y179700D01*
X561721Y179635D01*
X561610Y179478D01*
X564762D01*
Y178720D01*
X560519D01*
Y178729D01*
Y178766D01*
Y178822D01*
X560528Y178895D01*
X560537Y178979D01*
X560556Y179071D01*
X560574Y179164D01*
X560611Y179265D01*
Y179275D01*
X560620Y179284D01*
X560639Y179339D01*
X560676Y179422D01*
X560731Y179534D01*
X560805Y179663D01*
X560898Y179811D01*
X560999Y179959D01*
X561129Y180116D01*
Y180125D01*
X561147Y180134D01*
X561194Y180190D01*
X561277Y180273D01*
X561397Y180393D01*
X561536Y180532D01*
X561711Y180698D01*
X561924Y180883D01*
X562155Y181077D01*
X562164Y181087D01*
X562201Y181115D01*
X562257Y181161D01*
X562322Y181216D01*
X562405Y181290D01*
X562506Y181373D01*
X562608Y181466D01*
X562728Y181567D01*
X562960Y181789D01*
X563191Y182011D01*
X563302Y182122D01*
X563403Y182233D01*
X563496Y182335D01*
X563570Y182437D01*
Y182446D01*
X563588Y182455D01*
X563607Y182483D01*
X563625Y182520D01*
X563690Y182621D01*
X563764Y182742D01*
X563829Y182890D01*
X563893Y183047D01*
X563930Y183223D01*
X563949Y183389D01*
Y183398D01*
Y183407D01*
X563940Y183463D01*
X563930Y183555D01*
X563903Y183657D01*
X563866Y183786D01*
X563801Y183916D01*
X563718Y184045D01*
X563607Y184175D01*
X563588Y184193D01*
X563542Y184230D01*
X563477Y184277D01*
X563376Y184341D01*
X563246Y184397D01*
X563098Y184452D01*
X562923Y184489D01*
X562728Y184498D01*
X562673D01*
X562636Y184489D01*
X562525Y184480D01*
X562396Y184452D01*
X562257Y184415D01*
X562100Y184350D01*
X561952Y184267D01*
X561813Y184156D01*
X561795Y184138D01*
X561758Y184092D01*
X561702Y184018D01*
X561647Y183907D01*
X561582Y183777D01*
X561526Y183611D01*
X561489Y183426D01*
X561471Y183213D01*
X560667Y183296D01*
Y183306D01*
X560676Y183333D01*
Y183380D01*
X560685Y183444D01*
X560704Y183518D01*
X560722Y183601D01*
X560750Y183703D01*
X560778Y183805D01*
X560852Y184027D01*
X560962Y184249D01*
X561027Y184360D01*
X561110Y184471D01*
X561194Y184572D01*
X561286Y184665D01*
X561295Y184674D01*
X561314Y184683D01*
X561342Y184711D01*
X561388Y184739D01*
X561443Y184776D01*
X561508Y184813D01*
X561582Y184859D01*
X561674Y184905D01*
X561776Y184951D01*
X561887Y184998D01*
X562007Y185035D01*
X562137Y185072D01*
X562275Y185099D01*
X562423Y185127D01*
X562580Y185136D01*
X562747Y185146D01*
X562839D01*
X562904Y185136D01*
D02*
G37*
G36*
X557754Y185109D02*
X557911Y185099D01*
X558078Y185090D01*
X558235Y185072D01*
X558374Y185053D01*
X558392D01*
X558457Y185035D01*
X558540Y185016D01*
X558651Y184988D01*
X558771Y184942D01*
X558901Y184887D01*
X559039Y184822D01*
X559160Y184748D01*
X559178Y184739D01*
X559215Y184711D01*
X559271Y184655D01*
X559345Y184591D01*
X559428Y184508D01*
X559511Y184397D01*
X559603Y184277D01*
X559677Y184138D01*
X559687Y184119D01*
X559705Y184073D01*
X559742Y183990D01*
X559779Y183879D01*
X559807Y183750D01*
X559844Y183601D01*
X559862Y183435D01*
X559871Y183260D01*
Y183250D01*
Y183223D01*
Y183186D01*
X559862Y183121D01*
X559853Y183056D01*
X559844Y182973D01*
X559825Y182880D01*
X559807Y182779D01*
X559742Y182566D01*
X559705Y182455D01*
X559650Y182335D01*
X559585Y182215D01*
X559520Y182104D01*
X559437Y181993D01*
X559345Y181882D01*
X559335Y181873D01*
X559317Y181854D01*
X559289Y181826D01*
X559243Y181799D01*
X559187Y181752D01*
X559113Y181706D01*
X559021Y181651D01*
X558919Y181604D01*
X558799Y181549D01*
X558660Y181493D01*
X558512Y181447D01*
X558337Y181410D01*
X558152Y181373D01*
X557948Y181346D01*
X557717Y181327D01*
X557477Y181318D01*
X555840D01*
Y178720D01*
X554990D01*
Y185118D01*
X557616D01*
X557754Y185109D01*
D02*
G37*
G36*
X550221Y111476D02*
X551090D01*
Y110755D01*
X550221D01*
Y109220D01*
X549435D01*
Y110755D01*
X546652D01*
Y111476D01*
X549583Y115618D01*
X550221D01*
Y111476D01*
D02*
G37*
G36*
X543842Y115609D02*
X543925D01*
X544119Y115599D01*
X544323Y115572D01*
X544544Y115544D01*
X544748Y115498D01*
X544850Y115470D01*
X544933Y115442D01*
X544942D01*
X544951Y115433D01*
X545007Y115405D01*
X545090Y115368D01*
X545191Y115303D01*
X545303Y115220D01*
X545423Y115109D01*
X545534Y114980D01*
X545645Y114832D01*
Y114823D01*
X545654Y114813D01*
X545691Y114758D01*
X545728Y114665D01*
X545783Y114545D01*
X545830Y114407D01*
X545876Y114240D01*
X545904Y114065D01*
X545913Y113870D01*
Y113861D01*
Y113843D01*
Y113806D01*
X545904Y113759D01*
Y113695D01*
X545894Y113630D01*
X545857Y113473D01*
X545802Y113288D01*
X545728Y113094D01*
X545617Y112900D01*
X545543Y112807D01*
X545469Y112715D01*
X545460Y112705D01*
X545450Y112696D01*
X545423Y112669D01*
X545386Y112641D01*
X545340Y112604D01*
X545284Y112567D01*
X545210Y112521D01*
X545136Y112465D01*
X545044Y112419D01*
X544942Y112373D01*
X544831Y112317D01*
X544711Y112271D01*
X544572Y112234D01*
X544433Y112188D01*
X544276Y112160D01*
X544110Y112132D01*
X544128Y112123D01*
X544165Y112105D01*
X544221Y112067D01*
X544295Y112030D01*
X544461Y111929D01*
X544544Y111864D01*
X544618Y111809D01*
X544637Y111790D01*
X544683Y111744D01*
X544757Y111670D01*
X544850Y111578D01*
X544951Y111448D01*
X545071Y111309D01*
X545191Y111143D01*
X545321Y110958D01*
X546421Y109220D01*
X545367D01*
X544526Y110551D01*
Y110561D01*
X544507Y110579D01*
X544489Y110607D01*
X544461Y110644D01*
X544396Y110745D01*
X544313Y110875D01*
X544212Y111013D01*
X544110Y111161D01*
X544008Y111300D01*
X543916Y111430D01*
X543906Y111439D01*
X543879Y111476D01*
X543832Y111531D01*
X543768Y111596D01*
X543629Y111735D01*
X543555Y111799D01*
X543481Y111855D01*
X543472Y111864D01*
X543453Y111873D01*
X543416Y111892D01*
X543361Y111920D01*
X543305Y111947D01*
X543241Y111975D01*
X543093Y112021D01*
X543083D01*
X543065Y112030D01*
X543028D01*
X542982Y112040D01*
X542917Y112049D01*
X542843D01*
X542742Y112058D01*
X541651D01*
Y109220D01*
X540800D01*
Y115618D01*
X543768D01*
X543842Y115609D01*
D02*
G37*
%LPC*%
G36*
X288618Y211254D02*
X288609D01*
X288599D01*
X288544Y211244D01*
X288461Y211235D01*
X288350Y211217D01*
X288239Y211170D01*
X288109Y211115D01*
X287989Y211032D01*
X287869Y210921D01*
X287860Y210902D01*
X287823Y210856D01*
X287777Y210782D01*
X287721Y210662D01*
X287666Y210523D01*
X287619Y210338D01*
X287582Y210126D01*
X287573Y209876D01*
Y207861D01*
X289690D01*
Y209765D01*
X289681Y209876D01*
X289672Y210005D01*
X289663Y210153D01*
X289644Y210301D01*
X289616Y210449D01*
X289579Y210579D01*
X289570Y210597D01*
X289552Y210634D01*
X289524Y210690D01*
X289487Y210764D01*
X289431Y210847D01*
X289367Y210930D01*
X289284Y211013D01*
X289191Y211078D01*
X289182Y211087D01*
X289145Y211106D01*
X289089Y211133D01*
X289015Y211170D01*
X288932Y211198D01*
X288840Y211226D01*
X288729Y211244D01*
X288618Y211254D01*
D02*
G37*
G36*
X701324Y711030D02*
X698458D01*
X701324Y709015D01*
Y711030D01*
D02*
G37*
G36*
X698939Y706638D02*
X698930D01*
X698920D01*
X698865Y706629D01*
X698782Y706620D01*
X698671Y706602D01*
X698560Y706555D01*
X698430Y706500D01*
X698310Y706417D01*
X698190Y706306D01*
X698181Y706287D01*
X698144Y706241D01*
X698097Y706167D01*
X698042Y706047D01*
X697987Y705908D01*
X697940Y705723D01*
X697903Y705511D01*
X697894Y705261D01*
Y703245D01*
X700011D01*
Y705150D01*
X700002Y705261D01*
X699993Y705390D01*
X699984Y705538D01*
X699965Y705686D01*
X699937Y705834D01*
X699900Y705964D01*
X699891Y705982D01*
X699873Y706019D01*
X699845Y706075D01*
X699808Y706149D01*
X699752Y706232D01*
X699688Y706315D01*
X699604Y706398D01*
X699512Y706463D01*
X699503Y706472D01*
X699466Y706491D01*
X699410Y706518D01*
X699336Y706555D01*
X699253Y706583D01*
X699161Y706611D01*
X699050Y706629D01*
X698939Y706638D01*
D02*
G37*
G36*
X258138Y918728D02*
X258129D01*
X258119D01*
X258064Y918719D01*
X257981Y918710D01*
X257870Y918692D01*
X257759Y918645D01*
X257629Y918590D01*
X257509Y918507D01*
X257389Y918396D01*
X257380Y918377D01*
X257343Y918331D01*
X257297Y918257D01*
X257241Y918137D01*
X257185Y917998D01*
X257139Y917813D01*
X257102Y917601D01*
X257093Y917351D01*
Y915335D01*
X259210D01*
Y917240D01*
X259201Y917351D01*
X259192Y917480D01*
X259183Y917628D01*
X259164Y917776D01*
X259136Y917924D01*
X259099Y918054D01*
X259090Y918072D01*
X259072Y918109D01*
X259044Y918165D01*
X259007Y918239D01*
X258951Y918322D01*
X258887Y918405D01*
X258804Y918488D01*
X258711Y918553D01*
X258702Y918562D01*
X258665Y918581D01*
X258609Y918608D01*
X258535Y918645D01*
X258452Y918673D01*
X258360Y918701D01*
X258249Y918719D01*
X258138Y918728D01*
D02*
G37*
G36*
X910044Y899874D02*
X910025D01*
X909979D01*
X909896D01*
X909785Y899864D01*
X909665D01*
X909517Y899855D01*
X909359Y899846D01*
X909193Y899827D01*
X908832Y899781D01*
X908657Y899753D01*
X908490Y899716D01*
X908333Y899679D01*
X908185Y899624D01*
X908056Y899568D01*
X907945Y899504D01*
X907936D01*
X907926Y899485D01*
X907862Y899439D01*
X907778Y899356D01*
X907686Y899254D01*
X907594Y899116D01*
X907510Y898958D01*
X907446Y898783D01*
X907436Y898690D01*
X907427Y898588D01*
Y898533D01*
X907436Y898496D01*
X907455Y898404D01*
X907492Y898274D01*
X907557Y898135D01*
X907649Y897978D01*
X907704Y897904D01*
X907778Y897830D01*
X907852Y897756D01*
X907945Y897682D01*
X907954D01*
X907973Y897664D01*
X908000Y897645D01*
X908046Y897627D01*
X908111Y897590D01*
X908194Y897562D01*
X908287Y897525D01*
X908398Y897488D01*
X908537Y897460D01*
X908684Y897423D01*
X908860Y897386D01*
X909045Y897359D01*
X909267Y897340D01*
X909498Y897322D01*
X909757Y897303D01*
X910044D01*
X910053D01*
X910062D01*
X910108D01*
X910191D01*
X910302Y897313D01*
X910423D01*
X910571Y897322D01*
X910728Y897331D01*
X910903Y897350D01*
X911255Y897396D01*
X911430Y897423D01*
X911597Y897460D01*
X911754Y897497D01*
X911902Y897553D01*
X912031Y897608D01*
X912142Y897673D01*
X912152D01*
X912161Y897692D01*
X912188Y897710D01*
X912225Y897738D01*
X912309Y897821D01*
X912410Y897923D01*
X912503Y898062D01*
X912586Y898219D01*
X912623Y898302D01*
X912651Y898394D01*
X912660Y898496D01*
X912669Y898598D01*
Y898653D01*
X912660Y898690D01*
X912642Y898792D01*
X912614Y898912D01*
X912558Y899051D01*
X912475Y899199D01*
X912420Y899273D01*
X912364Y899347D01*
X912290Y899411D01*
X912207Y899476D01*
X912198D01*
X912179Y899494D01*
X912142Y899513D01*
X912096Y899541D01*
X912022Y899568D01*
X911939Y899605D01*
X911837Y899633D01*
X911717Y899670D01*
X911578Y899707D01*
X911421Y899744D01*
X911245Y899781D01*
X911051Y899809D01*
X910829Y899837D01*
X910589Y899855D01*
X910330Y899864D01*
X910044Y899874D01*
D02*
G37*
G36*
X330639Y170699D02*
X330630D01*
X330620D01*
X330565Y170689D01*
X330482Y170680D01*
X330371Y170662D01*
X330260Y170615D01*
X330130Y170560D01*
X330010Y170477D01*
X329890Y170366D01*
X329881Y170347D01*
X329844Y170301D01*
X329797Y170227D01*
X329742Y170107D01*
X329687Y169968D01*
X329640Y169783D01*
X329603Y169571D01*
X329594Y169321D01*
Y167305D01*
X331711D01*
Y169210D01*
X331702Y169321D01*
X331693Y169450D01*
X331684Y169598D01*
X331665Y169746D01*
X331637Y169894D01*
X331600Y170024D01*
X331591Y170042D01*
X331573Y170079D01*
X331545Y170135D01*
X331508Y170208D01*
X331452Y170292D01*
X331388Y170375D01*
X331305Y170458D01*
X331212Y170523D01*
X331203Y170532D01*
X331166Y170551D01*
X331110Y170578D01*
X331036Y170615D01*
X330953Y170643D01*
X330861Y170671D01*
X330750Y170689D01*
X330639Y170699D01*
D02*
G37*
G36*
X269575Y275831D02*
X267670D01*
X267559Y275822D01*
X267430Y275813D01*
X267282Y275804D01*
X267134Y275785D01*
X266986Y275757D01*
X266856Y275720D01*
X266838Y275711D01*
X266801Y275693D01*
X266745Y275665D01*
X266671Y275628D01*
X266588Y275572D01*
X266505Y275508D01*
X266422Y275424D01*
X266357Y275332D01*
X266348Y275323D01*
X266329Y275286D01*
X266302Y275230D01*
X266265Y275156D01*
X266237Y275073D01*
X266209Y274981D01*
X266191Y274870D01*
X266181Y274759D01*
Y274750D01*
Y274740D01*
X266191Y274685D01*
X266200Y274602D01*
X266218Y274491D01*
X266265Y274380D01*
X266320Y274250D01*
X266403Y274130D01*
X266514Y274010D01*
X266533Y274001D01*
X266579Y273964D01*
X266653Y273917D01*
X266773Y273862D01*
X266912Y273806D01*
X267097Y273760D01*
X267309Y273723D01*
X267559Y273714D01*
X269575D01*
Y275831D01*
D02*
G37*
G36*
X650957Y631609D02*
X648840D01*
Y629705D01*
X648849Y629594D01*
X648858Y629464D01*
X648867Y629317D01*
X648886Y629169D01*
X648914Y629021D01*
X648951Y628891D01*
X648960Y628873D01*
X648978Y628836D01*
X649006Y628780D01*
X649043Y628706D01*
X649099Y628623D01*
X649163Y628540D01*
X649246Y628457D01*
X649339Y628392D01*
X649348Y628383D01*
X649385Y628364D01*
X649441Y628336D01*
X649515Y628300D01*
X649598Y628272D01*
X649690Y628244D01*
X649801Y628226D01*
X649912Y628216D01*
X649921D01*
X649931D01*
X649986Y628226D01*
X650069Y628235D01*
X650180Y628253D01*
X650291Y628300D01*
X650421Y628355D01*
X650541Y628438D01*
X650661Y628549D01*
X650670Y628568D01*
X650707Y628614D01*
X650753Y628688D01*
X650809Y628808D01*
X650864Y628947D01*
X650911Y629132D01*
X650948Y629344D01*
X650957Y629594D01*
Y631609D01*
D02*
G37*
G36*
X647342Y620496D02*
X647323D01*
X647277D01*
X647194Y620487D01*
X647092Y620478D01*
X646972Y620459D01*
X646843Y620422D01*
X646704Y620385D01*
X646565Y620330D01*
X646547Y620321D01*
X646500Y620293D01*
X646436Y620256D01*
X646353Y620200D01*
X646269Y620136D01*
X646168Y620052D01*
X646084Y619960D01*
X646001Y619849D01*
X645992Y619831D01*
X645974Y619794D01*
X645937Y619729D01*
X645909Y619646D01*
X645872Y619553D01*
X645835Y619442D01*
X645816Y619322D01*
X645807Y619193D01*
Y619146D01*
X645816Y619109D01*
X645826Y619017D01*
X645853Y618897D01*
X645909Y618767D01*
X645974Y618619D01*
X646075Y618471D01*
X646131Y618397D01*
X646205Y618333D01*
X646214D01*
X646223Y618314D01*
X646279Y618277D01*
X646371Y618222D01*
X646491Y618148D01*
X646648Y618083D01*
X646833Y618028D01*
X647046Y617991D01*
X647296Y617972D01*
X647305D01*
X647323D01*
X647360D01*
X647407Y617981D01*
X647462D01*
X647527Y617991D01*
X647675Y618018D01*
X647841Y618055D01*
X648017Y618120D01*
X648183Y618213D01*
X648340Y618333D01*
X648359Y618351D01*
X648405Y618397D01*
X648461Y618471D01*
X648534Y618573D01*
X648608Y618703D01*
X648664Y618851D01*
X648710Y619026D01*
X648729Y619220D01*
Y619276D01*
X648719Y619313D01*
X648710Y619405D01*
X648682Y619535D01*
X648636Y619673D01*
X648562Y619831D01*
X648470Y619978D01*
X648340Y620126D01*
X648322Y620145D01*
X648276Y620182D01*
X648192Y620247D01*
X648072Y620311D01*
X647934Y620376D01*
X647758Y620441D01*
X647564Y620478D01*
X647342Y620496D01*
D02*
G37*
G36*
X179354Y912769D02*
X176488D01*
X179354Y910754D01*
Y912769D01*
D02*
G37*
G36*
X176969Y903404D02*
X176959D01*
X176950D01*
X176895Y903394D01*
X176812Y903385D01*
X176701Y903367D01*
X176590Y903320D01*
X176460Y903265D01*
X176340Y903182D01*
X176220Y903071D01*
X176211Y903052D01*
X176174Y903006D01*
X176127Y902932D01*
X176072Y902812D01*
X176017Y902673D01*
X175970Y902488D01*
X175933Y902276D01*
X175924Y902026D01*
Y900011D01*
X178041D01*
Y901915D01*
X178032Y902026D01*
X178023Y902155D01*
X178013Y902303D01*
X177995Y902451D01*
X177967Y902599D01*
X177930Y902729D01*
X177921Y902747D01*
X177903Y902784D01*
X177875Y902840D01*
X177838Y902914D01*
X177782Y902997D01*
X177718Y903080D01*
X177635Y903163D01*
X177542Y903228D01*
X177533Y903237D01*
X177496Y903256D01*
X177440Y903283D01*
X177366Y903320D01*
X177283Y903348D01*
X177191Y903376D01*
X177080Y903394D01*
X176969Y903404D01*
D02*
G37*
G36*
X82989Y815774D02*
X82979D01*
X82970D01*
X82915Y815764D01*
X82832Y815755D01*
X82721Y815737D01*
X82610Y815690D01*
X82480Y815635D01*
X82360Y815552D01*
X82240Y815441D01*
X82231Y815422D01*
X82194Y815376D01*
X82147Y815302D01*
X82092Y815182D01*
X82037Y815043D01*
X81990Y814858D01*
X81953Y814646D01*
X81944Y814396D01*
Y812381D01*
X84061D01*
Y814285D01*
X84052Y814396D01*
X84043Y814525D01*
X84033Y814673D01*
X84015Y814821D01*
X83987Y814969D01*
X83950Y815099D01*
X83941Y815117D01*
X83923Y815154D01*
X83895Y815210D01*
X83858Y815284D01*
X83802Y815367D01*
X83738Y815450D01*
X83654Y815533D01*
X83562Y815598D01*
X83553Y815607D01*
X83516Y815626D01*
X83460Y815653D01*
X83386Y815690D01*
X83303Y815718D01*
X83211Y815746D01*
X83100Y815764D01*
X82989Y815774D01*
D02*
G37*
G36*
X320366Y752446D02*
X318351D01*
Y750329D01*
X320255D01*
X320366Y750338D01*
X320495Y750347D01*
X320643Y750356D01*
X320791Y750375D01*
X320939Y750403D01*
X321069Y750440D01*
X321087Y750449D01*
X321124Y750467D01*
X321180Y750495D01*
X321254Y750532D01*
X321337Y750588D01*
X321420Y750652D01*
X321503Y750735D01*
X321568Y750828D01*
X321577Y750837D01*
X321596Y750874D01*
X321623Y750930D01*
X321660Y751004D01*
X321688Y751087D01*
X321716Y751179D01*
X321734Y751290D01*
X321744Y751401D01*
Y751410D01*
Y751420D01*
X321734Y751475D01*
X321725Y751558D01*
X321707Y751669D01*
X321660Y751780D01*
X321605Y751910D01*
X321522Y752030D01*
X321411Y752150D01*
X321392Y752159D01*
X321346Y752196D01*
X321272Y752243D01*
X321152Y752298D01*
X321013Y752354D01*
X320828Y752400D01*
X320616Y752437D01*
X320366Y752446D01*
D02*
G37*
G36*
X61288Y679884D02*
X61279D01*
X61269D01*
X61214Y679874D01*
X61131Y679865D01*
X61020Y679847D01*
X60909Y679800D01*
X60779Y679745D01*
X60659Y679662D01*
X60539Y679551D01*
X60530Y679532D01*
X60493Y679486D01*
X60447Y679412D01*
X60391Y679292D01*
X60335Y679153D01*
X60289Y678968D01*
X60252Y678756D01*
X60243Y678506D01*
Y676490D01*
X62360D01*
Y678395D01*
X62351Y678506D01*
X62342Y678635D01*
X62333Y678783D01*
X62314Y678931D01*
X62286Y679079D01*
X62249Y679209D01*
X62240Y679227D01*
X62222Y679264D01*
X62194Y679320D01*
X62157Y679394D01*
X62101Y679477D01*
X62037Y679560D01*
X61954Y679643D01*
X61861Y679708D01*
X61852Y679717D01*
X61815Y679736D01*
X61759Y679763D01*
X61685Y679800D01*
X61602Y679828D01*
X61510Y679856D01*
X61399Y679874D01*
X61288Y679884D01*
D02*
G37*
G36*
X482928Y785294D02*
X482919D01*
X482909D01*
X482854Y785284D01*
X482771Y785275D01*
X482660Y785257D01*
X482549Y785210D01*
X482419Y785155D01*
X482299Y785072D01*
X482179Y784961D01*
X482170Y784942D01*
X482133Y784896D01*
X482086Y784822D01*
X482031Y784702D01*
X481976Y784563D01*
X481929Y784378D01*
X481892Y784166D01*
X481883Y783916D01*
Y781900D01*
X484000D01*
Y783805D01*
X483991Y783916D01*
X483982Y784045D01*
X483973Y784193D01*
X483954Y784341D01*
X483926Y784489D01*
X483889Y784619D01*
X483880Y784637D01*
X483862Y784674D01*
X483834Y784730D01*
X483797Y784804D01*
X483741Y784887D01*
X483677Y784970D01*
X483593Y785053D01*
X483501Y785118D01*
X483492Y785127D01*
X483455Y785146D01*
X483399Y785173D01*
X483325Y785210D01*
X483242Y785238D01*
X483150Y785266D01*
X483039Y785284D01*
X482928Y785294D01*
D02*
G37*
G36*
X855129Y321440D02*
X853225D01*
X853114Y321431D01*
X852984Y321422D01*
X852837Y321413D01*
X852689Y321394D01*
X852541Y321366D01*
X852411Y321329D01*
X852393Y321320D01*
X852356Y321302D01*
X852300Y321274D01*
X852226Y321237D01*
X852143Y321181D01*
X852060Y321117D01*
X851977Y321034D01*
X851912Y320941D01*
X851903Y320932D01*
X851884Y320895D01*
X851857Y320839D01*
X851820Y320765D01*
X851792Y320682D01*
X851764Y320590D01*
X851746Y320479D01*
X851736Y320368D01*
Y320359D01*
Y320349D01*
X851746Y320294D01*
X851755Y320211D01*
X851773Y320100D01*
X851820Y319989D01*
X851875Y319859D01*
X851958Y319739D01*
X852069Y319619D01*
X852088Y319610D01*
X852134Y319573D01*
X852208Y319527D01*
X852328Y319471D01*
X852467Y319415D01*
X852652Y319369D01*
X852864Y319332D01*
X853114Y319323D01*
X855129D01*
Y321440D01*
D02*
G37*
G36*
X842796Y324473D02*
X842740D01*
X842703Y324464D01*
X842611Y324445D01*
X842482Y324408D01*
X842343Y324343D01*
X842186Y324251D01*
X842112Y324196D01*
X842038Y324122D01*
X841964Y324048D01*
X841890Y323955D01*
Y323946D01*
X841871Y323927D01*
X841853Y323900D01*
X841834Y323853D01*
X841797Y323789D01*
X841770Y323705D01*
X841733Y323613D01*
X841696Y323502D01*
X841668Y323363D01*
X841631Y323215D01*
X841594Y323040D01*
X841566Y322855D01*
X841548Y322633D01*
X841529Y322402D01*
X841511Y322143D01*
Y321856D01*
Y321847D01*
Y321838D01*
Y321792D01*
Y321708D01*
X841520Y321598D01*
Y321477D01*
X841529Y321329D01*
X841538Y321172D01*
X841557Y320997D01*
X841603Y320645D01*
X841631Y320470D01*
X841668Y320303D01*
X841705Y320146D01*
X841760Y319998D01*
X841816Y319869D01*
X841880Y319758D01*
Y319748D01*
X841899Y319739D01*
X841917Y319711D01*
X841945Y319674D01*
X842029Y319591D01*
X842130Y319489D01*
X842269Y319397D01*
X842426Y319314D01*
X842509Y319277D01*
X842602Y319249D01*
X842703Y319240D01*
X842805Y319231D01*
X842861D01*
X842898Y319240D01*
X842999Y319258D01*
X843119Y319286D01*
X843258Y319342D01*
X843406Y319425D01*
X843480Y319480D01*
X843554Y319536D01*
X843619Y319610D01*
X843683Y319693D01*
Y319702D01*
X843702Y319721D01*
X843720Y319758D01*
X843748Y319804D01*
X843776Y319878D01*
X843813Y319961D01*
X843841Y320063D01*
X843878Y320183D01*
X843915Y320322D01*
X843952Y320479D01*
X843988Y320654D01*
X844016Y320849D01*
X844044Y321071D01*
X844062Y321311D01*
X844072Y321570D01*
X844081Y321856D01*
Y321875D01*
Y321921D01*
Y322004D01*
X844072Y322115D01*
Y322235D01*
X844062Y322383D01*
X844053Y322541D01*
X844035Y322707D01*
X843988Y323068D01*
X843961Y323243D01*
X843924Y323410D01*
X843887Y323567D01*
X843831Y323715D01*
X843776Y323844D01*
X843711Y323955D01*
Y323964D01*
X843693Y323974D01*
X843646Y324038D01*
X843563Y324122D01*
X843462Y324214D01*
X843323Y324306D01*
X843166Y324390D01*
X842990Y324454D01*
X842898Y324464D01*
X842796Y324473D01*
D02*
G37*
G36*
X517309Y336791D02*
X515405D01*
X515294Y336782D01*
X515164Y336773D01*
X515017Y336763D01*
X514869Y336745D01*
X514721Y336717D01*
X514591Y336680D01*
X514573Y336671D01*
X514536Y336653D01*
X514480Y336625D01*
X514406Y336588D01*
X514323Y336532D01*
X514240Y336468D01*
X514157Y336385D01*
X514092Y336292D01*
X514083Y336283D01*
X514064Y336246D01*
X514036Y336190D01*
X514000Y336116D01*
X513972Y336033D01*
X513944Y335941D01*
X513926Y335830D01*
X513916Y335719D01*
Y335709D01*
Y335700D01*
X513926Y335645D01*
X513935Y335562D01*
X513953Y335451D01*
X514000Y335340D01*
X514055Y335210D01*
X514138Y335090D01*
X514249Y334970D01*
X514268Y334961D01*
X514314Y334924D01*
X514388Y334877D01*
X514508Y334822D01*
X514647Y334767D01*
X514832Y334720D01*
X515044Y334683D01*
X515294Y334674D01*
X517309D01*
Y336791D01*
D02*
G37*
G36*
X889689Y497403D02*
X889634D01*
X889597Y497394D01*
X889495Y497384D01*
X889375Y497357D01*
X889227Y497310D01*
X889079Y497246D01*
X888931Y497153D01*
X888792Y497024D01*
X888774Y497005D01*
X888737Y496950D01*
X888681Y496867D01*
X888607Y496747D01*
X888543Y496599D01*
X888487Y496423D01*
X888450Y496210D01*
X888432Y495970D01*
Y495961D01*
Y495942D01*
Y495905D01*
X888441Y495859D01*
Y495794D01*
X888450Y495729D01*
X888478Y495582D01*
X888515Y495406D01*
X888580Y495221D01*
X888672Y495045D01*
X888792Y494888D01*
Y494879D01*
X888811Y494870D01*
X888857Y494823D01*
X888931Y494759D01*
X889033Y494685D01*
X889162Y494620D01*
X889310Y494555D01*
X889477Y494509D01*
X889569Y494491D01*
X889717D01*
X889754Y494500D01*
X889856Y494509D01*
X889976Y494546D01*
X890124Y494592D01*
X890281Y494675D01*
X890438Y494777D01*
X890512Y494851D01*
X890586Y494925D01*
Y494934D01*
X890604Y494944D01*
X890623Y494971D01*
X890641Y494999D01*
X890706Y495092D01*
X890771Y495221D01*
X890845Y495378D01*
X890910Y495572D01*
X890947Y495794D01*
X890965Y496035D01*
Y496044D01*
Y496062D01*
Y496090D01*
X890956Y496136D01*
Y496192D01*
X890947Y496247D01*
X890919Y496386D01*
X890873Y496543D01*
X890817Y496710D01*
X890725Y496876D01*
X890604Y497024D01*
X890586Y497042D01*
X890540Y497079D01*
X890457Y497144D01*
X890355Y497209D01*
X890216Y497283D01*
X890059Y497347D01*
X889883Y497384D01*
X889689Y497403D01*
D02*
G37*
G36*
X897039Y496700D02*
X895135D01*
X895024Y496691D01*
X894894Y496682D01*
X894747Y496673D01*
X894599Y496654D01*
X894451Y496626D01*
X894321Y496589D01*
X894303Y496580D01*
X894266Y496562D01*
X894210Y496534D01*
X894136Y496497D01*
X894053Y496441D01*
X893970Y496377D01*
X893887Y496293D01*
X893822Y496201D01*
X893813Y496192D01*
X893794Y496155D01*
X893766Y496099D01*
X893730Y496025D01*
X893702Y495942D01*
X893674Y495850D01*
X893656Y495739D01*
X893646Y495628D01*
Y495619D01*
Y495609D01*
X893656Y495554D01*
X893665Y495471D01*
X893683Y495360D01*
X893730Y495249D01*
X893785Y495119D01*
X893868Y494999D01*
X893979Y494879D01*
X893998Y494870D01*
X894044Y494833D01*
X894118Y494786D01*
X894238Y494731D01*
X894377Y494675D01*
X894562Y494629D01*
X894774Y494592D01*
X895024Y494583D01*
X897039D01*
Y496700D01*
D02*
G37*
G36*
X757339Y499240D02*
X755435D01*
X755324Y499231D01*
X755194Y499222D01*
X755047Y499213D01*
X754899Y499194D01*
X754751Y499166D01*
X754621Y499129D01*
X754603Y499120D01*
X754566Y499102D01*
X754510Y499074D01*
X754436Y499037D01*
X754353Y498982D01*
X754270Y498917D01*
X754187Y498834D01*
X754122Y498741D01*
X754113Y498732D01*
X754094Y498695D01*
X754066Y498639D01*
X754030Y498565D01*
X754002Y498482D01*
X753974Y498390D01*
X753956Y498279D01*
X753946Y498168D01*
Y498159D01*
Y498149D01*
X753956Y498094D01*
X753965Y498011D01*
X753983Y497900D01*
X754030Y497789D01*
X754085Y497659D01*
X754168Y497539D01*
X754279Y497419D01*
X754298Y497410D01*
X754344Y497373D01*
X754418Y497327D01*
X754538Y497271D01*
X754677Y497215D01*
X754862Y497169D01*
X755074Y497132D01*
X755324Y497123D01*
X757339D01*
Y499240D01*
D02*
G37*
G36*
X749971Y502273D02*
X749915D01*
X749878Y502264D01*
X749767Y502254D01*
X749638Y502227D01*
X749490Y502180D01*
X749333Y502125D01*
X749185Y502033D01*
X749037Y501912D01*
X749018Y501894D01*
X748981Y501848D01*
X748917Y501764D01*
X748852Y501663D01*
X748787Y501533D01*
X748723Y501376D01*
X748686Y501191D01*
X748667Y500997D01*
Y500988D01*
Y500969D01*
Y500942D01*
X748676Y500905D01*
X748686Y500803D01*
X748713Y500664D01*
X748760Y500526D01*
X748824Y500368D01*
X748917Y500211D01*
X749046Y500063D01*
X749065Y500045D01*
X749111Y500008D01*
X749194Y499943D01*
X749305Y499869D01*
X749444Y499804D01*
X749610Y499740D01*
X749795Y499703D01*
X749998Y499684D01*
X750054D01*
X750091Y499693D01*
X750193Y499703D01*
X750322Y499730D01*
X750470Y499777D01*
X750618Y499841D01*
X750775Y499934D01*
X750914Y500054D01*
X750932Y500072D01*
X750969Y500119D01*
X751025Y500202D01*
X751089Y500304D01*
X751163Y500442D01*
X751219Y500599D01*
X751256Y500775D01*
X751274Y500969D01*
Y500988D01*
Y501025D01*
X751265Y501089D01*
X751256Y501173D01*
X751237Y501274D01*
X751210Y501385D01*
X751173Y501496D01*
X751126Y501616D01*
X751117Y501626D01*
X751099Y501672D01*
X751062Y501727D01*
X751006Y501792D01*
X750941Y501875D01*
X750858Y501959D01*
X750766Y502033D01*
X750655Y502107D01*
X750636Y502116D01*
X750599Y502134D01*
X750535Y502162D01*
X750452Y502190D01*
X750350Y502217D01*
X750230Y502245D01*
X750100Y502264D01*
X749971Y502273D01*
D02*
G37*
G36*
Y499046D02*
X749952D01*
X749897Y499037D01*
X749814Y499028D01*
X749703Y499009D01*
X749582Y498972D01*
X749462Y498926D01*
X749333Y498852D01*
X749222Y498760D01*
X749213Y498750D01*
X749176Y498704D01*
X749129Y498649D01*
X749074Y498565D01*
X749018Y498464D01*
X748972Y498344D01*
X748935Y498205D01*
X748926Y498057D01*
Y498048D01*
Y498038D01*
Y497983D01*
X748944Y497900D01*
X748963Y497798D01*
X749000Y497687D01*
X749055Y497567D01*
X749129Y497447D01*
X749231Y497327D01*
X749240Y497317D01*
X749287Y497280D01*
X749351Y497234D01*
X749435Y497179D01*
X749545Y497123D01*
X749666Y497077D01*
X749814Y497040D01*
X749971Y497031D01*
X750045D01*
X750128Y497049D01*
X750239Y497068D01*
X750359Y497105D01*
X750489Y497151D01*
X750609Y497225D01*
X750729Y497327D01*
X750738Y497336D01*
X750775Y497373D01*
X750821Y497437D01*
X750868Y497521D01*
X750923Y497622D01*
X750969Y497743D01*
X751006Y497872D01*
X751015Y498020D01*
Y498029D01*
Y498038D01*
X751006Y498094D01*
X750997Y498177D01*
X750978Y498279D01*
X750941Y498399D01*
X750895Y498519D01*
X750821Y498649D01*
X750729Y498760D01*
X750720Y498769D01*
X750673Y498806D01*
X750609Y498852D01*
X750526Y498898D01*
X750415Y498954D01*
X750285Y499000D01*
X750137Y499037D01*
X749971Y499046D01*
D02*
G37*
G36*
X448714Y379084D02*
X448705D01*
X448687D01*
X448650D01*
X448603Y379074D01*
X448548D01*
X448483Y379065D01*
X448335Y379037D01*
X448169Y379000D01*
X447993Y378936D01*
X447827Y378843D01*
X447670Y378723D01*
X447651Y378704D01*
X447605Y378658D01*
X447549Y378584D01*
X447475Y378483D01*
X447402Y378353D01*
X447346Y378205D01*
X447300Y378030D01*
X447281Y377835D01*
Y377780D01*
X447290Y377743D01*
X447300Y377650D01*
X447327Y377521D01*
X447374Y377382D01*
X447448Y377225D01*
X447540Y377077D01*
X447670Y376929D01*
X447688Y376911D01*
X447734Y376874D01*
X447817Y376809D01*
X447938Y376744D01*
X448076Y376680D01*
X448252Y376615D01*
X448446Y376578D01*
X448668Y376559D01*
X448687D01*
X448733D01*
X448816Y376569D01*
X448918Y376578D01*
X449038Y376596D01*
X449167Y376633D01*
X449306Y376670D01*
X449445Y376726D01*
X449463Y376735D01*
X449510Y376763D01*
X449574Y376800D01*
X449657Y376855D01*
X449741Y376920D01*
X449842Y377003D01*
X449925Y377096D01*
X450009Y377207D01*
X450018Y377225D01*
X450037Y377262D01*
X450073Y377327D01*
X450101Y377410D01*
X450138Y377503D01*
X450175Y377613D01*
X450194Y377734D01*
X450203Y377863D01*
Y377909D01*
X450194Y377946D01*
X450184Y378039D01*
X450157Y378159D01*
X450101Y378288D01*
X450037Y378436D01*
X449935Y378584D01*
X449879Y378658D01*
X449805Y378723D01*
X449796D01*
X449787Y378741D01*
X449731Y378778D01*
X449639Y378834D01*
X449519Y378908D01*
X449361Y378973D01*
X449177Y379028D01*
X448964Y379065D01*
X448714Y379084D01*
D02*
G37*
G36*
X446098Y373814D02*
X446089D01*
X446079D01*
X446024Y373804D01*
X445941Y373795D01*
X445830Y373777D01*
X445719Y373730D01*
X445589Y373675D01*
X445469Y373592D01*
X445349Y373481D01*
X445340Y373462D01*
X445303Y373416D01*
X445257Y373342D01*
X445201Y373222D01*
X445145Y373083D01*
X445099Y372898D01*
X445062Y372686D01*
X445053Y372436D01*
Y370420D01*
X447170D01*
Y372325D01*
X447161Y372436D01*
X447152Y372565D01*
X447143Y372713D01*
X447124Y372861D01*
X447096Y373009D01*
X447059Y373139D01*
X447050Y373157D01*
X447032Y373194D01*
X447004Y373250D01*
X446967Y373324D01*
X446912Y373407D01*
X446847Y373490D01*
X446763Y373573D01*
X446671Y373638D01*
X446662Y373647D01*
X446625Y373666D01*
X446569Y373693D01*
X446495Y373730D01*
X446412Y373758D01*
X446320Y373786D01*
X446209Y373804D01*
X446098Y373814D01*
D02*
G37*
G36*
X216320Y233921D02*
X214415D01*
X214304Y233912D01*
X214174Y233903D01*
X214027Y233894D01*
X213879Y233875D01*
X213731Y233847D01*
X213601Y233810D01*
X213583Y233801D01*
X213546Y233783D01*
X213490Y233755D01*
X213416Y233718D01*
X213333Y233662D01*
X213250Y233598D01*
X213167Y233514D01*
X213102Y233422D01*
X213093Y233413D01*
X213074Y233376D01*
X213046Y233320D01*
X213010Y233246D01*
X212982Y233163D01*
X212954Y233071D01*
X212936Y232960D01*
X212926Y232849D01*
Y232840D01*
Y232830D01*
X212936Y232775D01*
X212945Y232692D01*
X212963Y232581D01*
X213010Y232470D01*
X213065Y232340D01*
X213148Y232220D01*
X213259Y232100D01*
X213278Y232091D01*
X213324Y232054D01*
X213398Y232007D01*
X213518Y231952D01*
X213657Y231896D01*
X213842Y231850D01*
X214054Y231813D01*
X214304Y231804D01*
X216320D01*
Y233921D01*
D02*
G37*
G36*
X94419Y131244D02*
X94410D01*
X94400D01*
X94345Y131234D01*
X94262Y131225D01*
X94151Y131207D01*
X94040Y131160D01*
X93910Y131105D01*
X93790Y131022D01*
X93670Y130911D01*
X93661Y130892D01*
X93624Y130846D01*
X93577Y130772D01*
X93522Y130652D01*
X93467Y130513D01*
X93420Y130328D01*
X93383Y130116D01*
X93374Y129866D01*
Y127851D01*
X95491D01*
Y129755D01*
X95482Y129866D01*
X95473Y129995D01*
X95463Y130143D01*
X95445Y130291D01*
X95417Y130439D01*
X95380Y130569D01*
X95371Y130587D01*
X95353Y130624D01*
X95325Y130680D01*
X95288Y130754D01*
X95232Y130837D01*
X95168Y130920D01*
X95084Y131003D01*
X94992Y131068D01*
X94983Y131077D01*
X94946Y131096D01*
X94890Y131123D01*
X94816Y131160D01*
X94733Y131188D01*
X94641Y131216D01*
X94530Y131234D01*
X94419Y131244D01*
D02*
G37*
G36*
X477939Y63630D02*
X476035D01*
X475924Y63621D01*
X475794Y63612D01*
X475647Y63603D01*
X475499Y63584D01*
X475351Y63556D01*
X475221Y63519D01*
X475203Y63510D01*
X475166Y63492D01*
X475110Y63464D01*
X475036Y63427D01*
X474953Y63372D01*
X474870Y63307D01*
X474787Y63224D01*
X474722Y63131D01*
X474713Y63122D01*
X474694Y63085D01*
X474666Y63029D01*
X474630Y62955D01*
X474602Y62872D01*
X474574Y62780D01*
X474556Y62669D01*
X474546Y62558D01*
Y62549D01*
Y62539D01*
X474556Y62484D01*
X474565Y62401D01*
X474583Y62290D01*
X474630Y62179D01*
X474685Y62049D01*
X474768Y61929D01*
X474879Y61809D01*
X474898Y61800D01*
X474944Y61763D01*
X475018Y61716D01*
X475138Y61661D01*
X475277Y61606D01*
X475462Y61559D01*
X475674Y61522D01*
X475924Y61513D01*
X477939D01*
Y63630D01*
D02*
G37*
G36*
X442101Y158960D02*
X440271D01*
Y156676D01*
X441990D01*
X442055Y156685D01*
X442120D01*
X442194Y156694D01*
X442369Y156713D01*
X442563Y156750D01*
X442757Y156805D01*
X442933Y156879D01*
X443016Y156926D01*
X443081Y156981D01*
X443100Y157000D01*
X443137Y157037D01*
X443192Y157111D01*
X443257Y157203D01*
X443321Y157323D01*
X443377Y157471D01*
X443414Y157638D01*
X443433Y157832D01*
Y157841D01*
Y157850D01*
Y157896D01*
X443423Y157980D01*
X443405Y158072D01*
X443386Y158174D01*
X443349Y158294D01*
X443294Y158405D01*
X443229Y158516D01*
X443220Y158525D01*
X443192Y158562D01*
X443146Y158608D01*
X443090Y158673D01*
X443007Y158738D01*
X442915Y158793D01*
X442813Y158849D01*
X442693Y158895D01*
X442684D01*
X442647Y158904D01*
X442591Y158913D01*
X442517Y158932D01*
X442406Y158941D01*
X442267Y158950D01*
X442101Y158960D01*
D02*
G37*
G36*
X557671Y184360D02*
X555840D01*
Y182076D01*
X557560D01*
X557625Y182085D01*
X557690D01*
X557764Y182094D01*
X557939Y182113D01*
X558133Y182150D01*
X558327Y182206D01*
X558503Y182279D01*
X558586Y182326D01*
X558651Y182381D01*
X558670Y182400D01*
X558707Y182437D01*
X558762Y182511D01*
X558827Y182603D01*
X558891Y182723D01*
X558947Y182871D01*
X558984Y183038D01*
X559002Y183232D01*
Y183241D01*
Y183250D01*
Y183296D01*
X558993Y183380D01*
X558975Y183472D01*
X558956Y183574D01*
X558919Y183694D01*
X558864Y183805D01*
X558799Y183916D01*
X558790Y183925D01*
X558762Y183962D01*
X558716Y184008D01*
X558660Y184073D01*
X558577Y184138D01*
X558485Y184193D01*
X558383Y184249D01*
X558263Y184295D01*
X558254D01*
X558217Y184304D01*
X558161Y184313D01*
X558087Y184332D01*
X557976Y184341D01*
X557837Y184350D01*
X557671Y184360D01*
D02*
G37*
G36*
X549435Y114342D02*
X547420Y111476D01*
X549435D01*
Y114342D01*
D02*
G37*
G36*
X543666Y114906D02*
X541651D01*
Y112789D01*
X543555D01*
X543666Y112798D01*
X543796Y112807D01*
X543943Y112816D01*
X544091Y112835D01*
X544239Y112863D01*
X544369Y112900D01*
X544387Y112909D01*
X544424Y112927D01*
X544480Y112955D01*
X544554Y112992D01*
X544637Y113048D01*
X544720Y113112D01*
X544803Y113195D01*
X544868Y113288D01*
X544877Y113297D01*
X544896Y113334D01*
X544923Y113390D01*
X544960Y113464D01*
X544988Y113547D01*
X545016Y113639D01*
X545034Y113750D01*
X545044Y113861D01*
Y113870D01*
Y113880D01*
X545034Y113935D01*
X545025Y114018D01*
X545007Y114129D01*
X544960Y114240D01*
X544905Y114370D01*
X544822Y114490D01*
X544711Y114610D01*
X544692Y114619D01*
X544646Y114656D01*
X544572Y114703D01*
X544452Y114758D01*
X544313Y114813D01*
X544128Y114860D01*
X543916Y114897D01*
X543666Y114906D01*
D02*
G37*
%LPD*%
D13*
X282370Y167460D02*
X304370D01*
Y246560D01*
X282370D02*
X304370D01*
X282370Y167460D02*
Y246560D01*
X689230Y667660D02*
X717930D01*
Y724260D01*
X689230D02*
X717930D01*
X689230Y667660D02*
Y724260D01*
X248540Y879750D02*
X277240D01*
Y936350D01*
X248540D02*
X277240D01*
X248540Y879750D02*
Y936350D01*
X892430Y935080D02*
X921130D01*
X892430Y878480D02*
Y935080D01*
Y878480D02*
X921130D01*
Y935080D01*
X320930Y131720D02*
X349630D01*
Y188320D01*
X320930D02*
X349630D01*
X320930Y131720D02*
Y188320D01*
X305160Y265050D02*
Y293750D01*
X248560D02*
X305160D01*
X248560Y265050D02*
Y293750D01*
Y265050D02*
X305160D01*
X634160Y672010D02*
X656160D01*
X634160Y592910D02*
Y672010D01*
Y592910D02*
X656160D01*
Y672010D01*
X170610Y859610D02*
X192610D01*
Y938710D01*
X170610D02*
X192610D01*
X170610Y859610D02*
Y938710D01*
X76630Y771980D02*
X98630D01*
Y851080D01*
X76630D02*
X98630D01*
X76630Y771980D02*
Y851080D01*
X277950Y735760D02*
Y757760D01*
Y735760D02*
X357050D01*
Y757760D01*
X277950D02*
X357050D01*
X55040Y636090D02*
X77040D01*
Y715190D01*
X55040D02*
X77040D01*
X55040Y636090D02*
Y715190D01*
X476680Y741500D02*
X498680D01*
Y820600D01*
X476680D02*
X498680D01*
X476680Y741500D02*
Y820600D01*
X895530Y314120D02*
Y336120D01*
X816430D02*
X895530D01*
X816430Y314120D02*
Y336120D01*
Y314120D02*
X895530D01*
X557710Y329360D02*
Y351360D01*
X478610D02*
X557710D01*
X478610Y329360D02*
Y351360D01*
Y329360D02*
X557710D01*
X937440Y489380D02*
Y511380D01*
X858340D02*
X937440D01*
X858340Y489380D02*
Y511380D01*
Y489380D02*
X937440D01*
X797740Y491920D02*
Y513920D01*
X718640D02*
X797740D01*
X718640Y491920D02*
Y513920D01*
Y491920D02*
X797740D01*
X439850Y330020D02*
X461850D01*
Y409120D01*
X439850D02*
X461850D01*
X439850Y330020D02*
Y409120D01*
X256720Y226490D02*
Y248490D01*
X177620D02*
X256720D01*
X177620Y226490D02*
Y248490D01*
Y226490D02*
X256720D01*
X88060Y87450D02*
X110060D01*
Y166550D01*
X88060D02*
X110060D01*
X88060Y87450D02*
Y166550D01*
X518340Y56310D02*
Y78310D01*
X439240D02*
X518340D01*
X439240Y56310D02*
Y78310D01*
Y56310D02*
X518340D01*
X404170Y116120D02*
Y190520D01*
Y116120D02*
X474670D01*
Y190520D01*
X404170D02*
X474670D01*
X519740Y141520D02*
Y215920D01*
Y141520D02*
X590240D01*
Y215920D01*
X519740D02*
X590240D01*
X501250Y98220D02*
Y120220D01*
Y98220D02*
X580350D01*
Y120220D01*
X501250D02*
X580350D01*
M02*
